<svg width="1728" height="1268" viewBox="0 0 1728 1268" fill="none" xmlns="http://www.w3.org/2000/svg">
<rect width="1728" height="1268" fill="#0D0D0D"/>
<path d="M712.702 334.01C686.87 341.347 701.14 380.187 712.089 381.121C709.613 393.407 708.212 405.754 708.41 418.32C708.513 424.917 723.36 435.322 739.068 443.357C748.269 456.842 763.547 456.868 768.5 456.99C773.453 456.868 788.732 456.842 797.933 443.357C813.64 435.322 828.488 424.918 828.591 418.32C828.788 405.754 827.387 393.407 824.912 381.121C835.861 380.187 850.13 341.347 824.298 334.01C816.024 334.435 808.116 338.71 800.385 344.842C786.438 339.111 779.315 338.838 768.5 338.838C757.685 338.838 750.562 339.111 736.615 344.842C728.884 338.71 720.976 334.435 712.702 334.01ZM714.136 348.539C715.899 348.511 719.152 350.176 721.938 352.807C722.916 353.731 715.269 367.663 714.133 367.404C712.797 367.098 709.772 353.352 713.049 348.977C713.266 348.688 713.643 348.547 714.136 348.539ZM822.865 348.539C823.358 348.547 823.735 348.688 823.951 348.977C827.228 353.352 824.203 367.098 822.867 367.404C821.732 367.663 814.084 353.731 815.063 352.807C817.848 350.176 821.102 348.511 822.865 348.539ZM746.953 372.428C752.033 372.34 755.883 379.542 759.188 385.401C743.598 390.021 735.157 380.421 742.381 374.407C744.012 373.049 745.531 372.453 746.953 372.428V372.428ZM790.047 372.428C791.47 372.453 792.989 373.049 794.619 374.407C801.843 380.421 793.403 390.021 777.813 385.401C781.117 379.542 784.967 372.34 790.047 372.428ZM768.5 394.204C773.541 394.269 779.217 396.988 777.288 404.831C776.868 406.54 773.646 407.339 771.119 407.654V410.265C800.187 422.233 794.274 450.588 768.5 450.588C742.726 450.588 736.813 422.233 765.881 410.265V407.654C763.355 407.339 760.133 406.54 759.712 404.831C757.783 396.988 763.46 394.269 768.5 394.204Z" fill="#0098CC"/>
<path d="M910.707 423.04C913.188 423.569 915.18 424.809 916.685 426.761C918.19 428.672 918.942 430.868 918.942 433.349C918.942 436.928 917.681 439.774 915.16 441.889C912.679 443.963 909.202 445 904.729 445H884.782V402.178H904.058C908.409 402.178 911.805 403.174 914.245 405.167C916.726 407.16 917.966 409.864 917.966 413.28C917.966 415.801 917.295 417.896 915.953 419.563C914.652 421.23 912.903 422.389 910.707 423.04ZM895.213 419.502H902.045C903.753 419.502 905.054 419.136 905.949 418.404C906.884 417.631 907.352 416.513 907.352 415.049C907.352 413.585 906.884 412.467 905.949 411.694C905.054 410.921 903.753 410.535 902.045 410.535H895.213V419.502ZM902.899 436.582C904.648 436.582 905.99 436.196 906.925 435.423C907.901 434.61 908.389 433.451 908.389 431.946C908.389 430.441 907.881 429.262 906.864 428.408C905.888 427.554 904.526 427.127 902.777 427.127H895.213V436.582H902.899ZM957.688 427.432C957.688 428.408 957.627 429.425 957.505 430.482H933.898C934.061 432.597 934.732 434.223 935.911 435.362C937.131 436.46 938.615 437.009 940.364 437.009C942.967 437.009 944.776 435.911 945.793 433.715H956.895C956.326 435.952 955.289 437.965 953.784 439.754C952.32 441.543 950.47 442.946 948.233 443.963C945.996 444.98 943.495 445.488 940.73 445.488C937.395 445.488 934.427 444.776 931.824 443.353C929.221 441.93 927.188 439.896 925.724 437.253C924.26 434.61 923.528 431.519 923.528 427.981C923.528 424.443 924.24 421.352 925.663 418.709C927.127 416.066 929.16 414.032 931.763 412.609C934.366 411.186 937.355 410.474 940.73 410.474C944.024 410.474 946.952 411.165 949.514 412.548C952.076 413.931 954.069 415.903 955.492 418.465C956.956 421.027 957.688 424.016 957.688 427.432ZM947.013 424.687C947.013 422.898 946.403 421.474 945.183 420.417C943.963 419.36 942.438 418.831 940.608 418.831C938.859 418.831 937.375 419.339 936.155 420.356C934.976 421.373 934.244 422.816 933.959 424.687H947.013ZM961.727 427.92C961.727 424.423 962.377 421.352 963.679 418.709C965.021 416.066 966.83 414.032 969.108 412.609C971.385 411.186 973.927 410.474 976.733 410.474C979.132 410.474 981.226 410.962 983.016 411.938C984.846 412.914 986.249 414.195 987.225 415.781V410.962H997.656V445H987.225V440.181C986.208 441.767 984.785 443.048 982.955 444.024C981.165 445 979.071 445.488 976.672 445.488C973.906 445.488 971.385 444.776 969.108 443.353C966.83 441.889 965.021 439.835 963.679 437.192C962.377 434.508 961.727 431.417 961.727 427.92ZM987.225 427.981C987.225 425.378 986.493 423.325 985.029 421.82C983.605 420.315 981.857 419.563 979.783 419.563C977.709 419.563 975.94 420.315 974.476 421.82C973.052 423.284 972.341 425.317 972.341 427.92C972.341 430.523 973.052 432.597 974.476 434.142C975.94 435.647 977.709 436.399 979.783 436.399C981.857 436.399 983.605 435.647 985.029 434.142C986.493 432.637 987.225 430.584 987.225 427.981ZM1016.24 416.635C1017.46 414.764 1018.99 413.3 1020.82 412.243C1022.65 411.145 1024.68 410.596 1026.92 410.596V421.637H1024.05C1021.45 421.637 1019.5 422.206 1018.2 423.345C1016.89 424.443 1016.24 426.395 1016.24 429.201V445H1005.81V410.962H1016.24V416.635Z" fill="#0098CC"/>
<path d="M716.702 560.01C690.87 567.347 705.14 606.187 716.089 607.121C713.613 619.407 712.212 631.754 712.41 644.32C712.513 650.917 727.36 661.322 743.068 669.357C752.269 682.842 767.547 682.868 772.5 682.99C777.453 682.868 792.732 682.842 801.933 669.357C817.64 661.322 832.488 650.918 832.591 644.32C832.788 631.754 831.387 619.407 828.912 607.121C839.861 606.187 854.13 567.347 828.298 560.01C820.024 560.435 812.116 564.71 804.385 570.842C790.438 565.111 783.315 564.838 772.5 564.838C761.685 564.838 754.562 565.111 740.615 570.842C732.884 564.71 724.976 560.435 716.702 560.01ZM718.136 574.539C719.899 574.511 723.152 576.176 725.938 578.807C726.916 579.731 719.269 593.663 718.133 593.404C716.797 593.098 713.772 579.352 717.049 574.977C717.266 574.688 717.643 574.547 718.136 574.539ZM826.865 574.539C827.358 574.547 827.735 574.688 827.951 574.977C831.228 579.352 828.203 593.098 826.867 593.404C825.732 593.663 818.084 579.731 819.063 578.807C821.848 576.176 825.102 574.511 826.865 574.539ZM750.953 598.428C756.033 598.34 759.883 605.542 763.188 611.401C747.598 616.021 739.157 606.421 746.381 600.407C748.012 599.049 749.531 598.453 750.953 598.428V598.428ZM794.047 598.428C795.47 598.453 796.989 599.049 798.619 600.407C805.843 606.421 797.403 616.021 781.813 611.401C785.117 605.542 788.967 598.34 794.047 598.428ZM772.5 620.204C777.541 620.269 783.217 622.988 781.288 630.831C780.868 632.54 777.646 633.339 775.119 633.654V636.265C804.187 648.233 798.274 676.588 772.5 676.588C746.726 676.588 740.813 648.233 769.881 636.265V633.654C767.355 633.339 764.133 632.54 763.712 630.831C761.783 622.988 767.46 620.269 772.5 620.204Z" fill="#D1D5DB"/>
<path d="M914.707 624.04C917.188 624.569 919.18 625.809 920.685 627.761C922.19 629.672 922.942 631.868 922.942 634.349C922.942 637.928 921.681 640.774 919.16 642.889C916.679 644.963 913.202 646 908.729 646H888.782V603.178H908.058C912.409 603.178 915.805 604.174 918.245 606.167C920.726 608.16 921.966 610.864 921.966 614.28C921.966 616.801 921.295 618.896 919.953 620.563C918.652 622.23 916.903 623.389 914.707 624.04ZM899.213 620.502H906.045C907.753 620.502 909.054 620.136 909.949 619.404C910.884 618.631 911.352 617.513 911.352 616.049C911.352 614.585 910.884 613.467 909.949 612.694C909.054 611.921 907.753 611.535 906.045 611.535H899.213V620.502ZM906.899 637.582C908.648 637.582 909.99 637.196 910.925 636.423C911.901 635.61 912.389 634.451 912.389 632.946C912.389 631.441 911.881 630.262 910.864 629.408C909.888 628.554 908.526 628.127 906.777 628.127H899.213V637.582H906.899ZM961.688 628.432C961.688 629.408 961.627 630.425 961.505 631.482H937.898C938.061 633.597 938.732 635.223 939.911 636.362C941.131 637.46 942.615 638.009 944.364 638.009C946.967 638.009 948.776 636.911 949.793 634.715H960.895C960.326 636.952 959.289 638.965 957.784 640.754C956.32 642.543 954.47 643.946 952.233 644.963C949.996 645.98 947.495 646.488 944.73 646.488C941.395 646.488 938.427 645.776 935.824 644.353C933.221 642.93 931.188 640.896 929.724 638.253C928.26 635.61 927.528 632.519 927.528 628.981C927.528 625.443 928.24 622.352 929.663 619.709C931.127 617.066 933.16 615.032 935.763 613.609C938.366 612.186 941.355 611.474 944.73 611.474C948.024 611.474 950.952 612.165 953.514 613.548C956.076 614.931 958.069 616.903 959.492 619.465C960.956 622.027 961.688 625.016 961.688 628.432ZM951.013 625.687C951.013 623.898 950.403 622.474 949.183 621.417C947.963 620.36 946.438 619.831 944.608 619.831C942.859 619.831 941.375 620.339 940.155 621.356C938.976 622.373 938.244 623.816 937.959 625.687H951.013ZM965.727 628.92C965.727 625.423 966.377 622.352 967.679 619.709C969.021 617.066 970.83 615.032 973.108 613.609C975.385 612.186 977.927 611.474 980.733 611.474C983.132 611.474 985.226 611.962 987.016 612.938C988.846 613.914 990.249 615.195 991.225 616.781V611.962H1001.66V646H991.225V641.181C990.208 642.767 988.785 644.048 986.955 645.024C985.165 646 983.071 646.488 980.672 646.488C977.906 646.488 975.385 645.776 973.108 644.353C970.83 642.889 969.021 640.835 967.679 638.192C966.377 635.508 965.727 632.417 965.727 628.92ZM991.225 628.981C991.225 626.378 990.493 624.325 989.029 622.82C987.605 621.315 985.857 620.563 983.783 620.563C981.709 620.563 979.94 621.315 978.476 622.82C977.052 624.284 976.341 626.317 976.341 628.92C976.341 631.523 977.052 633.597 978.476 635.142C979.94 636.647 981.709 637.399 983.783 637.399C985.857 637.399 987.605 636.647 989.029 635.142C990.493 633.637 991.225 631.584 991.225 628.981ZM1020.24 617.635C1021.46 615.764 1022.99 614.3 1024.82 613.243C1026.65 612.145 1028.68 611.596 1030.92 611.596V622.637H1028.05C1025.45 622.637 1023.5 623.206 1022.2 624.345C1020.89 625.443 1020.24 627.395 1020.24 630.201V646H1009.81V611.962H1020.24V617.635Z" fill="#D1D5DB"/>
<path d="M712.702 811.01C686.87 818.347 701.14 857.187 712.089 858.121C709.613 870.407 708.212 882.754 708.41 895.32C708.513 901.917 723.36 912.322 739.068 920.357C748.269 933.842 763.547 933.868 768.5 933.99C773.453 933.868 788.732 933.842 797.933 920.357C813.64 912.322 828.488 901.918 828.591 895.32C828.788 882.754 827.387 870.407 824.912 858.121C835.861 857.187 850.13 818.347 824.298 811.01C816.024 811.435 808.116 815.71 800.385 821.842C786.438 816.111 779.315 815.838 768.5 815.838C757.685 815.838 750.562 816.111 736.615 821.842C728.884 815.71 720.976 811.435 712.702 811.01ZM714.136 825.539C715.899 825.511 719.152 827.176 721.938 829.807C722.916 830.731 715.269 844.663 714.133 844.404C712.797 844.098 709.772 830.352 713.049 825.977C713.266 825.688 713.643 825.547 714.136 825.539ZM822.865 825.539C823.358 825.547 823.735 825.688 823.951 825.977C827.228 830.352 824.203 844.098 822.867 844.404C821.732 844.663 814.084 830.731 815.063 829.807C817.848 827.176 821.102 825.511 822.865 825.539ZM746.953 849.428C752.033 849.34 755.883 856.542 759.188 862.401C743.598 867.021 735.157 857.421 742.381 851.407C744.012 850.049 745.531 849.453 746.953 849.428V849.428ZM790.047 849.428C791.47 849.453 792.989 850.049 794.619 851.407C801.843 857.421 793.403 867.021 777.813 862.401C781.117 856.542 784.967 849.34 790.047 849.428ZM768.5 871.204C773.541 871.269 779.217 873.988 777.288 881.831C776.868 883.54 773.646 884.339 771.119 884.654V887.265C800.187 899.233 794.274 927.588 768.5 927.588C742.726 927.588 736.813 899.233 765.881 887.265V884.654C763.355 884.339 760.133 883.54 759.712 881.831C757.783 873.988 763.46 871.269 768.5 871.204Z" fill="#C03247"/>
<path d="M910.707 875.04C913.188 875.569 915.18 876.809 916.685 878.761C918.19 880.672 918.942 882.868 918.942 885.349C918.942 888.928 917.681 891.774 915.16 893.889C912.679 895.963 909.202 897 904.729 897H884.782V854.178H904.058C908.409 854.178 911.805 855.174 914.245 857.167C916.726 859.16 917.966 861.864 917.966 865.28C917.966 867.801 917.295 869.896 915.953 871.563C914.652 873.23 912.903 874.389 910.707 875.04ZM895.213 871.502H902.045C903.753 871.502 905.054 871.136 905.949 870.404C906.884 869.631 907.352 868.513 907.352 867.049C907.352 865.585 906.884 864.467 905.949 863.694C905.054 862.921 903.753 862.535 902.045 862.535H895.213V871.502ZM902.899 888.582C904.648 888.582 905.99 888.196 906.925 887.423C907.901 886.61 908.389 885.451 908.389 883.946C908.389 882.441 907.881 881.262 906.864 880.408C905.888 879.554 904.526 879.127 902.777 879.127H895.213V888.582H902.899ZM957.688 879.432C957.688 880.408 957.627 881.425 957.505 882.482H933.898C934.061 884.597 934.732 886.223 935.911 887.362C937.131 888.46 938.615 889.009 940.364 889.009C942.967 889.009 944.776 887.911 945.793 885.715H956.895C956.326 887.952 955.289 889.965 953.784 891.754C952.32 893.543 950.47 894.946 948.233 895.963C945.996 896.98 943.495 897.488 940.73 897.488C937.395 897.488 934.427 896.776 931.824 895.353C929.221 893.93 927.188 891.896 925.724 889.253C924.26 886.61 923.528 883.519 923.528 879.981C923.528 876.443 924.24 873.352 925.663 870.709C927.127 868.066 929.16 866.032 931.763 864.609C934.366 863.186 937.355 862.474 940.73 862.474C944.024 862.474 946.952 863.165 949.514 864.548C952.076 865.931 954.069 867.903 955.492 870.465C956.956 873.027 957.688 876.016 957.688 879.432ZM947.013 876.687C947.013 874.898 946.403 873.474 945.183 872.417C943.963 871.36 942.438 870.831 940.608 870.831C938.859 870.831 937.375 871.339 936.155 872.356C934.976 873.373 934.244 874.816 933.959 876.687H947.013ZM961.727 879.92C961.727 876.423 962.377 873.352 963.679 870.709C965.021 868.066 966.83 866.032 969.108 864.609C971.385 863.186 973.927 862.474 976.733 862.474C979.132 862.474 981.226 862.962 983.016 863.938C984.846 864.914 986.249 866.195 987.225 867.781V862.962H997.656V897H987.225V892.181C986.208 893.767 984.785 895.048 982.955 896.024C981.165 897 979.071 897.488 976.672 897.488C973.906 897.488 971.385 896.776 969.108 895.353C966.83 893.889 965.021 891.835 963.679 889.192C962.377 886.508 961.727 883.417 961.727 879.92ZM987.225 879.981C987.225 877.378 986.493 875.325 985.029 873.82C983.605 872.315 981.857 871.563 979.783 871.563C977.709 871.563 975.94 872.315 974.476 873.82C973.052 875.284 972.341 877.317 972.341 879.92C972.341 882.523 973.052 884.597 974.476 886.142C975.94 887.647 977.709 888.399 979.783 888.399C981.857 888.399 983.605 887.647 985.029 886.142C986.493 884.637 987.225 882.584 987.225 879.981ZM1016.24 868.635C1017.46 866.764 1018.99 865.3 1020.82 864.243C1022.65 863.145 1024.68 862.596 1026.92 862.596V873.637H1024.05C1021.45 873.637 1019.5 874.206 1018.2 875.345C1016.89 876.443 1016.24 878.395 1016.24 881.201V897H1005.81V862.962H1016.24V868.635Z" fill="#C03247"/>
</svg>
