<?xml version="1.0" standalone="no"?>
<!DOCTYPE svg PUBLIC "-//W3C//DTD SVG 20010904//EN"
 "http://www.w3.org/TR/2001/REC-SVG-20010904/DTD/svg10.dtd">
<svg version="1.0" xmlns="http://www.w3.org/2000/svg"
 width="772.000000pt" height="567.000000pt" viewBox="0 0 772.000000 567.000000"
 preserveAspectRatio="xMidYMid meet">

<g transform="translate(0.000000,567.000000) scale(0.100000,-0.100000)"
fill="#000000" stroke="none">
<path d="M290 5503 c-40 -13 -60 -29 -75 -58 -13 -30 -15 -304 -15 -2582 0
-2508 0 -2549 20 -2580 10 -18 31 -40 47 -50 26 -17 173 -18 3593 -18 3851 0
3603 -4 3645 53 20 27 20 45 23 2590 2 2819 7 2603 -58 2637 -26 13 -426 15
-3597 14 -1962 0 -3575 -3 -3583 -6z m7181 -52 l29 -29 0 -2552 0 -2551 -25
-24 -24 -25 -3584 0 c-3515 0 -3585 0 -3608 19 l-24 19 0 2560 c0 2479 1 2561
19 2580 10 12 28 23 40 25 11 2 1624 5 3584 6 l3564 1 29 -29z"/>
<path d="M2660 5265 c0 -93 2 -105 18 -105 14 0 17 9 17 51 0 39 4 54 18 63
24 15 37 -6 37 -66 0 -36 4 -48 15 -48 12 0 15 13 15 59 0 70 -16 91 -56 72
-35 -15 -34 -16 -34 34 0 33 -4 45 -15 45 -12 0 -15 -18 -15 -105z"/>
<path d="M3250 5265 c0 -87 3 -105 15 -105 12 0 15 18 15 105 0 87 -3 105 -15
105 -12 0 -15 -18 -15 -105z"/>
<path d="M4285 5265 c0 -92 2 -105 17 -105 14 0 18 11 20 58 3 49 6 57 23 57
17 0 20 -8 23 -57 3 -50 6 -58 22 -58 17 0 20 7 20 53 0 30 -6 62 -14 73 -13
17 -18 18 -45 7 l-31 -11 0 44 c0 35 -3 44 -17 44 -16 0 -18 -12 -18 -105z"/>
<path d="M4457 5364 c-13 -13 -7 -24 14 -24 11 0 19 5 17 12 -5 14 -22 21 -31
12z"/>
<path d="M3102 5345 c-68 -30 -75 -137 -12 -170 40 -21 94 -19 111 3 11 14 11
15 -1 5 -8 -7 -26 -13 -40 -13 -35 0 -58 19 -68 55 -12 44 -1 85 30 108 24 18
31 19 54 8 15 -6 29 -9 32 -6 20 20 -65 29 -106 10z"/>
<path d="M3876 5264 c-21 -52 -36 -98 -32 -101 3 -3 11 8 17 25 10 28 15 32
49 32 33 0 39 -4 49 -30 6 -19 17 -30 29 -30 18 0 17 7 -18 97 -21 54 -42 99
-47 100 -4 2 -25 -40 -47 -93z m53 5 c6 -18 11 -34 11 -35 0 -2 -14 -4 -31 -4
-26 0 -30 3 -24 18 4 9 10 25 12 35 8 26 20 21 32 -14z"/>
<path d="M2533 5343 l27 -4 0 -90 c0 -79 2 -89 18 -89 16 0 18 8 14 89 l-4 90
33 4 c19 2 0 4 -41 4 -41 0 -63 -2 -47 -4z"/>
<path d="M4544 5327 c-3 -8 -4 -47 -2 -88 l3 -74 30 -3 c26 -2 27 -1 12 9 -14
8 -18 22 -17 62 3 85 1 107 -10 107 -6 0 -13 -6 -16 -13z"/>
<path d="M4935 5330 c-12 -19 -15 -131 -5 -150 6 -11 20 -20 33 -19 12 0 16 3
10 6 -9 3 -13 31 -13 89 0 76 -8 101 -25 74z"/>
<path d="M2840 5280 c-28 -28 -27 -84 2 -104 24 -17 73 -22 82 -8 2 4 -7 8
-22 7 -18 0 -30 8 -39 25 -12 25 -12 25 32 28 49 3 55 14 29 50 -19 28 -57 29
-84 2z m62 -15 c5 -22 2 -25 -23 -25 -32 0 -34 3 -19 31 15 27 37 24 42 -6z"/>
<path d="M3340 5280 c-45 -45 -14 -120 50 -120 l25 0 -25 13 c-14 7 -26 23
-28 35 -3 20 1 22 37 22 45 0 51 11 25 48 -19 28 -57 29 -84 2z m62 -15 c5
-22 2 -25 -23 -25 -32 0 -34 3 -19 31 15 27 37 24 42 -6z"/>
<path d="M3487 5287 c-16 -11 -14 -12 15 -12 44 0 43 -22 -2 -44 -39 -18 -46
-47 -18 -65 13 -8 23 -8 38 1 12 8 21 9 25 3 3 -6 16 -10 28 -9 12 0 16 3 10
6 -8 3 -13 25 -13 58 0 43 -4 56 -19 65 -26 13 -43 13 -64 -3z m41 -104 c-13
-12 -16 -12 -27 1 -10 12 -8 19 11 38 l23 23 3 -24 c2 -13 -3 -30 -10 -38z"/>
<path d="M3676 5291 c-3 -5 1 -11 9 -15 11 -4 15 -21 15 -61 0 -48 2 -55 20
-55 17 0 20 7 20 51 0 28 -5 59 -10 70 -11 20 -45 26 -54 10z"/>
<path d="M4095 5284 c-13 -13 -20 -15 -23 -6 -2 6 -10 12 -18 12 -11 0 -14
-16 -14 -65 0 -58 2 -65 20 -65 18 0 20 6 18 46 -1 43 6 56 36 67 5 2 7 9 5
16 -4 10 -9 9 -24 -5z"/>
<path d="M4165 5275 c-30 -29 -32 -68 -5 -95 20 -20 74 -27 84 -11 4 5 -4 7
-15 4 -28 -8 -49 20 -49 63 0 40 24 63 50 46 11 -6 22 -8 24 -3 3 5 -1 12 -10
15 -30 12 -55 6 -79 -19z"/>
<path d="M4640 5280 c-28 -28 -27 -84 2 -104 24 -17 73 -22 82 -8 2 4 -7 8
-22 7 -18 0 -30 8 -39 25 -12 25 -12 25 32 28 31 2 45 8 45 18 0 21 -37 54
-60 54 -11 0 -29 -9 -40 -20z m60 -15 c0 -20 -5 -25 -26 -25 -14 0 -23 3 -21
8 2 4 7 15 10 25 10 27 37 21 37 -8z"/>
<path d="M4805 5288 c-28 -16 -35 -28 -35 -65 0 -22 7 -37 22 -47 24 -17 73
-21 82 -7 3 4 -5 6 -18 4 -18 -4 -29 2 -41 21 -35 53 16 128 53 80 13 -18 14
-18 10 1 -4 24 -43 31 -73 13z"/>
<path d="M5232 5288 c-19 -19 -14 -30 8 -18 11 6 20 15 20 20 0 14 -14 12 -28
-2z"/>
<path d="M5300 5280 c-28 -28 -27 -84 2 -104 24 -17 73 -21 82 -7 3 4 -5 6
-18 4 -17 -4 -28 2 -40 18 -24 35 -20 39 30 39 42 0 45 1 39 23 -15 47 -61 61
-95 27z m60 -15 c0 -20 -5 -25 -25 -25 -28 0 -29 3 -15 31 15 28 40 24 40 -6z"/>
<path d="M3615 5225 c0 -55 3 -65 18 -65 14 0 17 9 17 55 0 30 1 58 3 63 1 4
-7 8 -18 10 -18 2 -20 -3 -20 -63z"/>
<path d="M4450 5225 c0 -58 2 -65 20 -65 18 0 20 7 20 65 0 58 -2 65 -20 65
-18 0 -20 -7 -20 -65z"/>
<path d="M5012 5234 c3 -62 20 -83 54 -69 15 6 16 8 4 13 -23 8 -30 23 -30 70
0 31 -4 42 -15 42 -13 0 -15 -11 -13 -56z"/>
<path d="M5098 5238 c-5 -62 -1 -78 18 -78 11 0 14 16 14 65 0 49 -3 65 -14
65 -10 0 -15 -16 -18 -52z"/>
<path d="M5180 5225 c0 -49 3 -65 14 -65 10 0 15 15 18 49 4 62 0 81 -18 81
-11 0 -14 -15 -14 -65z"/>
<path d="M2325 4968 c-246 -27 -518 -108 -750 -222 -249 -122 -445 -265 -641
-468 -181 -187 -307 -368 -420 -603 -284 -591 -300 -1281 -42 -1895 110 -262
308 -552 508 -745 39 -38 86 -84 104 -100 17 -17 49 -44 71 -60 21 -17 47 -37
56 -45 8 -8 24 -20 35 -27 10 -7 42 -28 69 -48 28 -19 57 -38 65 -42 8 -4 38
-22 67 -40 29 -18 56 -33 60 -33 5 0 24 -11 43 -23 19 -13 41 -22 48 -20 6 3
12 0 12 -5 0 -6 17 -16 38 -23 20 -6 46 -17 57 -23 43 -23 206 -78 310 -104
219 -55 281 -63 515 -69 223 -6 347 6 565 52 72 15 197 53 296 90 119 45 299
130 310 147 3 5 10 10 15 10 8 -1 183 106 194 118 3 3 32 25 64 50 118 89 293
260 393 383 318 394 513 928 513 1409 l0 127 133 41 c72 23 140 44 150 46 13
4 17 -1 17 -25 l0 -31 100 0 100 0 0 95 0 95 -100 0 -100 0 0 -58 0 -59 -138
-41 c-77 -23 -143 -42 -149 -42 -5 0 -13 37 -16 83 -3 45 -9 103 -13 129 l-7
47 149 47 c82 26 155 49 162 52 8 3 12 -6 12 -27 l0 -31 100 0 100 0 0 95 0
95 -100 0 -100 0 0 -60 c0 -33 -2 -60 -4 -60 -3 0 -75 -22 -162 -50 -87 -27
-158 -48 -159 -47 -4 10 -47 226 -49 241 -1 17 24 27 163 72 228 73 211 70
211 34 l0 -30 100 0 100 0 0 95 0 95 -100 0 -100 0 0 -58 0 -58 -182 -57
c-101 -32 -188 -57 -194 -57 -8 0 -77 177 -87 225 -2 8 424 161 456 164 4 1 7
-12 7 -29 l0 -30 100 0 100 0 0 95 0 95 -100 0 -100 0 0 -59 0 -60 -229 -75
c-125 -42 -232 -76 -237 -76 -5 0 -35 54 -67 119 -176 360 -464 685 -805 909
-297 193 -660 323 -1014 361 -114 13 -389 12 -503 -1z m620 -47 c244 -41 428
-101 650 -210 448 -222 811 -589 1031 -1044 26 -53 45 -99 43 -101 -6 -5 -402
-136 -405 -133 -1 1 -21 40 -44 87 -198 397 -567 725 -992 884 -1023 382
-2154 -212 -2423 -1272 -26 -103 -55 -303 -55 -378 l0 -44 -115 0 c-70 0 -115
-4 -115 -10 0 -6 44 -10 113 -10 l114 0 6 -113 c8 -131 28 -257 63 -389 29
-112 27 -104 48 -150 9 -21 16 -43 16 -50 0 -27 135 -292 168 -330 8 -10 11
-18 6 -18 -5 0 -4 -4 2 -8 5 -4 37 -43 70 -87 90 -121 272 -301 379 -374 28
-19 52 -37 55 -40 6 -7 17 -14 130 -78 147 -84 272 -134 443 -178 l107 -28 0
-69 0 -68 74 0 c50 0 76 4 79 13 4 9 7 9 18 0 7 -7 19 -13 27 -13 12 0 11 5
-2 25 -14 22 -15 28 -3 45 18 25 35 12 39 -30 2 -29 8 -36 28 -38 20 -3 23 -1
13 9 -15 15 -17 69 -3 69 6 0 10 7 10 15 0 8 7 15 15 15 12 0 11 -5 -3 -29
-13 -24 -14 -34 -4 -55 14 -31 61 -36 83 -10 12 15 10 16 -18 10 -18 -4 -34
-3 -38 3 -4 7 7 11 31 11 35 0 36 1 31 30 -4 16 -2 32 3 35 6 3 11 -5 11 -19
1 -14 3 -30 4 -36 1 -5 3 -19 4 -30 0 -11 8 -20 16 -20 10 0 15 11 15 35 0 19
5 35 10 35 6 0 15 10 20 22 7 18 9 10 9 -34 1 -44 5 -58 15 -58 10 0 16 13 18
37 4 51 25 53 33 4 9 -55 35 -56 35 -1 0 27 -6 45 -21 58 -20 19 -20 20 47 27
37 4 73 9 81 12 10 4 13 -11 13 -66 0 -58 3 -71 16 -71 13 0 15 12 12 74 l-3
74 39 6 c56 9 251 73 324 107 35 16 65 29 68 29 2 0 23 12 47 27 23 14 48 26
54 26 7 0 13 4 13 9 0 5 4 7 9 4 5 -4 11 -2 13 2 1 5 30 26 63 47 33 21 65 45
72 54 7 9 13 12 13 6 0 -7 3 -7 8 0 4 6 30 28 57 49 58 46 238 226 275 274 14
19 42 55 63 82 20 26 37 51 37 54 0 4 18 34 40 66 22 32 40 66 40 75 0 9 5 13
10 10 6 -3 10 1 10 9 0 9 9 31 20 51 11 19 18 35 15 35 -2 0 7 21 20 46 14 26
25 52 25 59 0 7 7 26 15 43 9 17 18 41 20 54 3 13 9 34 14 48 13 32 45 173 63
270 8 47 13 154 13 286 l0 212 191 61 c106 34 198 61 207 61 15 0 17 -14 33
-186 l6 -70 -43 -13 c-141 -41 -180 -54 -175 -58 4 -4 158 37 205 55 12 5 13
-18 8 -144 -30 -680 -328 -1268 -861 -1697 -467 -377 -1117 -550 -1723 -462
-914 134 -1649 799 -1873 1695 -49 194 -64 323 -64 545 0 272 30 463 110 709
189 576 603 1053 1149 1321 259 128 502 196 820 229 100 10 424 -3 540 -23z
m-200 -441 c431 -41 816 -222 1112 -522 159 -162 257 -297 347 -483 49 -100
122 -292 114 -300 -5 -5 -581 -185 -583 -183 -1 2 -10 28 -20 58 -10 30 -28
79 -41 108 -17 38 -20 54 -11 57 7 3 138 47 292 99 154 52 276 95 270 95 -5 0
-138 -42 -294 -93 l-285 -94 -33 55 c-64 106 -121 179 -207 261 -559 536
-1458 407 -1851 -266 -78 -134 -138 -326 -151 -484 l-7 -78 -113 0 c-69 0
-114 -4 -114 -10 0 -6 45 -10 115 -10 l115 0 0 -52 c0 -82 28 -233 60 -330
104 -309 315 -557 600 -704 84 -44 136 -63 260 -96 74 -19 110 -22 270 -22
163 0 195 2 270 23 47 13 91 23 98 24 6 0 12 4 12 9 0 4 3 8 8 7 26 -4 197 81
275 137 26 19 50 34 53 34 15 0 151 142 202 210 31 41 59 77 63 80 18 14 119
226 142 301 57 180 73 397 42 574 -11 62 -13 90 -5 95 16 10 571 182 575 178
6 -7 45 -208 45 -235 0 -27 -4 -29 -145 -73 -80 -24 -145 -47 -145 -51 0 -4
62 13 137 37 76 24 143 44 149 44 20 0 28 -179 16 -327 -32 -378 -170 -724
-403 -1009 -81 -100 -240 -248 -350 -326 -122 -88 -336 -196 -475 -241 -932
-302 -1917 172 -2258 1086 -61 164 -95 333 -110 549 l-6 77 35 -1 c32 -1 41
-18 9 -18 -8 0 -14 -4 -14 -10 0 -5 6 -10 13 -10 11 0 118 38 125 45 2 2 -21
12 -50 23 -29 11 -61 23 -70 27 -11 4 -18 3 -18 -4 0 -7 10 -16 22 -21 20 -8
18 -9 -14 -9 -35 -1 -37 1 -33 27 2 15 7 67 10 116 13 203 78 430 185 642 217
431 588 750 1044 899 252 82 473 108 721 85z m67 -665 c224 -47 424 -154 585
-314 72 -71 157 -182 194 -253 l19 -37 -263 -86 -262 -87 -75 74 c-86 85 -165
130 -276 158 -329 84 -666 -124 -739 -456 -10 -44 -19 -85 -21 -91 -2 -9 -29
-13 -89 -13 -50 0 -85 -4 -85 -10 0 -6 35 -10 85 -10 47 0 85 -3 86 -7 0 -5 2
-42 4 -84 6 -96 60 -270 79 -252 4 5 6 1 4 -8 -1 -9 14 -35 35 -58 21 -23 35
-41 32 -41 -4 0 22 -25 57 -55 112 -97 268 -155 415 -155 207 1 416 129 525
322 94 165 98 408 9 591 l-38 79 26 10 c45 18 495 167 497 165 15 -18 84 -194
84 -214 0 -1 -74 -26 -165 -55 -91 -29 -165 -55 -165 -60 0 -4 6 -5 13 -3 53
19 303 95 312 95 20 0 40 -147 39 -285 -1 -191 -37 -341 -122 -510 -99 -197
-277 -382 -473 -489 -450 -247 -1023 -161 -1375 206 -200 209 -301 436 -329
741 -5 60 -4 67 12 67 10 0 25 -5 33 -10 13 -8 12 -10 -3 -10 -16 0 -21 -18
-7 -23 14 -4 131 46 124 53 -15 13 -126 51 -133 45 -3 -4 3 -13 13 -21 19 -13
18 -14 -12 -14 -28 0 -32 3 -28 23 3 12 8 54 11 92 16 181 100 393 219 552 58
76 195 208 271 260 157 106 333 170 545 197 62 8 257 -4 332 -19z m2558 -60
l0 -85 -90 0 -90 0 0 85 0 85 90 0 90 0 0 -85z m-647 -323 c22 -62 38 -115 35
-118 -6 -5 -385 -124 -398 -124 -4 0 -23 44 -42 98 -19 53 -38 104 -42 113 -6
13 25 27 186 82 106 36 199 65 207 64 9 -1 30 -48 54 -115z m647 33 l0 -85
-90 0 -90 0 0 85 0 85 90 0 90 0 0 -85z m-581 -257 c12 -51 22 -110 24 -131
l2 -38 -155 -50 c-85 -27 -176 -56 -202 -64 l-47 -14 -7 37 c-3 20 -15 77 -25
127 -10 49 -16 92 -11 96 6 6 377 128 393 129 3 0 16 -42 28 -92z m-2023 17
c41 -14 99 -41 127 -59 67 -43 154 -133 142 -145 -6 -5 -82 -32 -170 -61 -142
-46 -202 -69 -185 -70 3 0 86 27 185 60 99 33 182 60 186 60 28 0 96 -186 105
-286 13 -144 -48 -312 -153 -425 -114 -121 -250 -180 -413 -180 -169 0 -288
48 -406 166 -103 102 -149 203 -167 363 l-5 42 66 0 67 -1 -30 -16 c-16 -9
-25 -18 -18 -20 13 -5 136 37 130 44 -14 13 -128 50 -133 42 -3 -5 5 -13 18
-18 18 -8 11 -10 -34 -10 l-58 -1 0 43 c1 103 78 254 179 349 153 144 367 190
567 123z m2604 -50 l0 -85 -90 0 -90 0 0 85 0 85 90 0 90 0 0 -85z m0 -290 l0
-85 -90 0 -90 0 0 85 0 85 90 0 90 0 0 -85z m-2960 -2067 c0 -5 0 -13 0 -20 0
-7 -6 -6 -17 4 -26 23 -49 11 -27 -13 14 -16 15 -23 5 -46 -9 -20 -15 -23 -23
-15 -7 7 -27 12 -45 12 -23 0 -33 5 -33 15 0 11 11 15 36 15 45 0 42 24 -4 28
-46 5 -39 22 8 22 22 0 40 4 40 9 0 5 14 6 30 2 17 -3 31 -9 30 -13z m350 2
c0 -5 -5 -10 -11 -10 -5 0 -7 5 -4 10 3 6 8 10 11 10 2 0 4 -4 4 -10z m-175
-40 c3 -5 -1 -10 -9 -10 -9 0 -16 5 -16 10 0 6 4 10 9 10 6 0 13 -4 16 -10z"/>
<path d="M3760 4274 c0 -3 8 -35 17 -70 13 -46 22 -64 34 -64 12 0 19 13 25
48 l8 47 10 -47 c14 -71 37 -65 59 16 21 78 21 76 2 76 -8 0 -17 -14 -21 -35
-7 -37 -24 -48 -24 -16 0 29 -11 51 -25 51 -14 0 -25 -22 -25 -51 0 -32 -17
-21 -24 16 -4 21 -13 35 -21 35 -8 0 -15 -3 -15 -6z"/>
<path d="M4050 4209 l0 -70 43 3 42 3 0 45 c0 43 -1 45 -32 48 -25 2 -33 8
-33 23 0 10 -4 19 -10 19 -6 0 -10 -30 -10 -71z m60 -19 c0 -19 -5 -30 -14
-30 -17 0 -28 24 -20 45 11 27 34 17 34 -15z"/>
<path d="M1209 4249 c-40 -40 -6 -68 56 -45 14 5 11 0 -10 -18 -28 -24 -28
-26 -8 -26 27 0 53 25 53 51 0 25 -27 36 -51 21 -22 -14 -29 -15 -29 -3 0 5 9
11 21 14 12 3 18 10 14 16 -9 16 -23 13 -46 -10z"/>
<path d="M3940 4215 c-15 -40 3 -75 39 -75 15 0 35 7 42 16 12 15 10 16 -18
10 -18 -4 -34 -3 -38 3 -4 7 7 11 29 11 28 0 36 4 36 18 0 26 -20 42 -52 42
-21 0 -31 -6 -38 -25z m55 -5 c3 -5 -1 -10 -9 -10 -9 0 -16 5 -16 10 0 6 4 10
9 10 6 0 13 -4 16 -10z"/>
<path d="M1154 4180 c-12 -5 -24 -16 -28 -26 -9 -23 24 -68 51 -72 25 -4 53
22 53 49 0 25 -17 25 -25 -1 -3 -11 -14 -20 -22 -20 -14 0 -13 4 5 23 12 13
22 26 22 30 0 13 -36 24 -56 17z m16 -35 c-7 -9 -15 -13 -17 -11 -7 7 7 26 19
26 6 0 6 -6 -2 -15z"/>
<path d="M1078 4098 c-28 -23 -29 -48 -3 -74 13 -13 31 -24 39 -24 22 0 47 30
44 52 -4 27 -22 27 -26 1 -4 -26 -24 -30 -42 -8 -14 17 -5 35 16 35 9 0 14 5
12 12 -6 18 -22 20 -40 6z"/>
<path d="M986 4053 c-11 -11 -6 -23 9 -23 8 0 15 4 15 9 0 13 -16 22 -24 14z"/>
<path d="M1015 4029 c-12 -18 63 -85 78 -70 6 6 9 12 6 13 -2 2 -21 18 -40 36
-27 25 -39 30 -44 21z"/>
<path d="M987 3993 c-4 -3 3 -22 15 -41 l21 -34 -32 16 c-29 16 -51 15 -51 -2
0 -4 21 -15 47 -25 63 -24 75 -11 43 48 -25 45 -31 51 -43 38z"/>
<path d="M914 3900 c-12 -5 -24 -16 -28 -26 -9 -23 24 -68 51 -72 25 -4 53 22
53 49 0 25 -17 25 -25 -1 -3 -11 -14 -20 -22 -20 -14 0 -13 4 5 23 12 13 22
26 22 30 0 13 -36 24 -56 17z m16 -35 c-7 -9 -15 -13 -17 -11 -7 7 7 26 19 26
6 0 6 -6 -2 -15z"/>
<path d="M791 3818 c-17 -17 -31 -34 -31 -37 0 -3 22 -25 49 -48 l49 -43 26
31 c35 41 33 71 -5 103 -39 33 -50 33 -88 -6z m69 -16 c18 -14 22 -25 16 -45
-8 -34 -16 -34 -51 3 -23 24 -26 32 -15 45 16 19 23 19 50 -3z"/>
<path d="M4290 1712 c0 -66 11 -82 55 -82 44 0 55 16 55 82 0 44 -3 58 -15 58
-10 0 -15 -15 -17 -57 -3 -50 -6 -58 -23 -58 -17 0 -20 8 -23 58 -2 42 -7 57
-17 57 -12 0 -15 -14 -15 -58z"/>
<path d="M4420 1700 c0 -56 3 -70 15 -70 12 0 15 14 15 70 0 56 -3 70 -15 70
-12 0 -15 -14 -15 -70z"/>
<path d="M757 1603 c-4 -3 -7 -35 -7 -70 l0 -63 44 0 c35 0 48 5 60 22 37 53
5 118 -57 118 -19 0 -37 -3 -40 -7z m81 -61 c3 -26 -1 -34 -20 -41 -32 -12
-38 -6 -38 40 0 38 2 40 28 37 22 -2 28 -8 30 -36z"/>
<path d="M890 1540 l0 -70 44 0 c54 0 64 12 62 73 -1 55 -13 67 -68 67 l-38 0
0 -70z m78 28 c-7 -20 -48 -23 -48 -4 0 11 9 16 26 16 16 0 24 -5 22 -12z m2
-53 c0 -8 -3 -15 -7 -16 -5 0 -16 -2 -25 -4 -12 -2 -18 3 -18 16 0 14 7 19 25
19 16 0 25 -6 25 -15z"/>
<path d="M2836 804 c-23 -22 -20 -26 14 -19 39 9 39 -3 -1 -17 -23 -8 -29 -16
-27 -32 2 -17 11 -22 46 -24 l42 -3 0 45 c0 35 -5 48 -19 56 -27 14 -37 13
-55 -6z m44 -64 c0 -5 -7 -10 -15 -10 -8 0 -15 5 -15 10 0 6 7 10 15 10 8 0
15 -4 15 -10z"/>
<path d="M2160 550 c0 -56 3 -70 15 -70 12 0 15 14 15 70 0 56 -3 70 -15 70
-12 0 -15 -14 -15 -70z"/>
<path d="M2583 600 c-5 -19 -30 -26 -70 -21 -9 1 -13 -14 -13 -49 0 -27 5 -50
10 -50 6 0 10 11 10 24 0 27 24 56 46 56 10 0 14 -12 14 -40 0 -22 5 -40 10
-40 6 0 10 18 10 39 0 22 5 42 13 44 9 4 9 8 -2 15 -9 7 -10 12 -2 16 16 10
13 26 -5 26 -9 0 -18 -9 -21 -20z"/>
<path d="M2331 592 c-6 -11 -6 -35 1 -65 7 -36 14 -47 29 -47 10 0 19 5 19 10
0 6 -4 10 -10 10 -15 0 -12 57 3 64 10 5 10 7 0 12 -7 3 -13 12 -13 20 0 20
-17 17 -29 -4z"/>
<path d="M2210 530 c0 -37 4 -50 14 -50 10 0 16 13 18 38 4 52 32 51 36 -1 4
-45 27 -46 28 -1 1 49 -12 64 -56 64 l-40 0 0 -50z"/>
<path d="M2390 555 c-15 -40 3 -75 39 -75 15 0 35 7 42 16 12 15 10 16 -18 10
-18 -4 -34 -3 -38 3 -4 7 7 11 29 11 28 0 36 4 36 18 0 26 -20 42 -52 42 -21
0 -31 -6 -38 -25z m55 -5 c3 -5 -1 -10 -9 -10 -9 0 -16 5 -16 10 0 6 4 10 9
10 6 0 13 -4 16 -10z"/>
<path d="M2639 564 c-12 -15 -11 -16 19 -10 21 5 32 4 32 -3 0 -6 -8 -11 -19
-11 -24 0 -45 -25 -37 -45 3 -10 19 -15 46 -15 l41 0 -3 48 c-3 44 -5 47 -34
50 -19 2 -36 -3 -45 -14z m51 -54 c0 -5 -7 -10 -15 -10 -8 0 -15 5 -15 10 0 6
7 10 15 10 8 0 15 -4 15 -10z"/>
<path d="M2751 566 c-7 -8 -11 -30 -9 -48 3 -28 7 -34 31 -36 28 -3 57 12 57
29 0 5 -7 9 -15 9 -8 0 -15 -4 -15 -10 0 -5 -7 -10 -15 -10 -10 0 -15 10 -15
30 0 20 5 30 15 30 8 0 15 -4 15 -10 0 -5 7 -10 16 -10 11 0 14 5 10 16 -3 9
-6 18 -6 20 0 11 -59 2 -69 -10z"/>
<path d="M2852 568 c-17 -17 -15 -63 2 -77 19 -16 68 -10 74 8 3 10 -3 11 -27
6 -20 -4 -31 -3 -31 4 0 6 13 11 29 11 36 0 41 8 30 38 -9 25 -56 31 -77 10z
m48 -18 c0 -5 -7 -10 -16 -10 -8 0 -12 5 -9 10 3 6 10 10 16 10 5 0 9 -4 9
-10z"/>
<path d="M2957 573 c-17 -16 -5 -42 23 -52 39 -13 39 -24 -1 -16 -24 6 -30 4
-27 -6 3 -9 20 -14 44 -14 32 0 39 3 39 20 0 11 -10 24 -23 31 -38 19 -39 27
-2 19 31 -7 33 -6 21 9 -13 16 -62 22 -74 9z"/>
<path d="M2046 4208 c-38 -53 -9 -128 49 -128 32 0 65 21 65 41 0 14 -21 11
-40 -6 -33 -30 -69 9 -56 60 8 30 34 40 56 20 21 -19 40 -19 40 0 0 38 -90 48
-114 13z"/>
<path d="M2720 4155 c0 -60 3 -75 15 -75 12 0 15 15 15 75 0 60 -3 75 -15 75
-12 0 -15 -15 -15 -75z"/>
<path d="M2780 4155 c0 -60 3 -75 15 -75 12 0 15 15 15 75 0 60 -3 75 -15 75
-12 0 -15 -15 -15 -75z"/>
<path d="M2438 4203 c-3 -10 -2 -40 1 -68 5 -42 10 -51 29 -53 12 -2 22 1 22
7 0 6 -4 11 -10 11 -15 0 -12 67 3 74 10 5 10 7 0 12 -7 3 -13 12 -13 20 0 20
-27 17 -32 -3z"/>
<path d="M2209 4186 c-17 -8 -25 -22 -27 -44 -4 -43 12 -62 54 -62 27 0 37 5
46 25 25 54 -23 106 -73 81z m46 -35 c8 -26 -5 -53 -24 -49 -29 6 -27 68 3 68
8 0 17 -8 21 -19z"/>
<path d="M2619 4186 c-17 -8 -25 -22 -27 -44 -4 -43 12 -62 54 -62 27 0 37 5
46 25 25 54 -23 106 -73 81z m46 -35 c8 -26 -5 -53 -24 -49 -29 6 -27 68 3 68
8 0 17 -8 21 -19z"/>
<path d="M3060 4192 c-42 -14 -38 -49 8 -69 27 -12 32 -18 19 -21 -10 -2 -25
2 -33 9 -17 14 -29 6 -21 -16 8 -18 67 -21 85 -3 21 21 13 39 -23 54 -43 18
-45 28 -4 19 23 -5 30 -4 27 5 -5 16 -38 29 -58 22z"/>
<path d="M2310 4134 c0 -41 4 -54 15 -54 10 0 15 10 15 29 0 39 9 61 26 61 10
0 14 -13 14 -45 0 -38 3 -45 20 -45 16 0 20 7 20 36 0 58 -14 73 -65 72 l-45
-1 0 -53z"/>
<path d="M2510 4134 c0 -41 4 -54 15 -54 11 0 15 11 15 40 0 29 4 40 15 40 30
0 15 27 -15 28 -30 1 -30 0 -30 -54z"/>
<path d="M2838 4165 c-14 -32 0 -78 25 -83 26 -5 67 6 67 18 0 6 -14 9 -31 8
-19 -2 -34 2 -36 10 -3 8 8 12 36 12 45 0 48 5 25 38 -22 32 -71 30 -86 -3z
m62 -5 c0 -5 -9 -10 -21 -10 -11 0 -17 5 -14 10 3 6 13 10 21 10 8 0 14 -4 14
-10z"/>
<path d="M2950 4134 c0 -41 4 -54 15 -54 9 0 15 9 15 24 0 35 10 56 26 56 8 0
14 6 14 14 0 9 -12 14 -35 14 l-35 0 0 -54z"/>
<path d="M4007 2272 c-22 -24 -22 -61 -1 -69 9 -3 29 2 45 11 16 9 29 13 29 7
0 -6 -9 -15 -20 -21 -25 -14 -26 -30 -1 -30 22 0 51 35 51 63 0 26 -29 33 -62
14 -22 -13 -28 -13 -28 -3 0 8 9 16 21 19 12 3 18 10 14 16 -10 16 -30 13 -48
-7z"/>
<path d="M3960 2199 c0 -6 -8 -17 -17 -24 -16 -12 -14 -15 16 -41 47 -41 59
-46 67 -33 4 7 -3 20 -17 32 -13 10 -24 31 -25 45 -1 25 -24 46 -24 21z"/>
<path d="M3892 2114 c-28 -19 -28 -57 0 -84 27 -25 39 -25 68 -2 15 12 21 26
18 42 l-4 25 -14 -27 c-7 -16 -19 -28 -27 -28 -19 0 -16 10 10 38 22 23 22 24
3 38 -25 18 -27 17 -54 -2z m26 -26 c-2 -6 -10 -14 -16 -16 -7 -2 -10 2 -6 12
7 18 28 22 22 4z"/>
<path d="M3796 2053 c-3 -3 -2 -11 2 -17 4 -6 7 -15 7 -20 0 -5 8 -10 19 -12
10 -1 29 -12 42 -25 25 -23 54 -20 54 7 0 10 -6 14 -14 11 -14 -6 -56 31 -56
49 0 10 -45 15 -54 7z"/>
<path d="M1116 1998 c-36 -33 -42 -68 -16 -101 12 -15 30 -27 41 -27 10 0 19
-4 19 -10 0 -19 16 -10 38 20 l22 29 -24 17 c-29 18 -57 9 -30 -10 16 -12 16
-13 -1 -20 -41 -15 -61 46 -26 78 26 24 53 17 69 -17 13 -28 32 -28 32 -1 0
24 -47 64 -74 64 -14 0 -36 -10 -50 -22z"/>
<path d="M3772 1978 c-7 -7 -12 -16 -12 -21 0 -6 -7 -15 -16 -22 -14 -10 -11
-16 27 -48 29 -25 46 -34 53 -27 7 7 0 20 -22 40 -50 46 -26 69 30 29 47 -34
57 -8 11 30 -41 34 -53 37 -71 19z"/>
<path d="M1247 1904 c-10 -11 3 -24 24 -24 10 0 19 -4 19 -10 0 -12 -2 -12
-33 -1 -34 13 -62 -7 -53 -37 4 -12 16 -22 26 -22 10 0 20 -7 24 -15 3 -8 9
-15 13 -15 11 0 53 67 53 83 0 29 -54 59 -73 41z m14 -69 c-1 -15 -24 -12 -29
3 -3 9 2 13 12 10 10 -1 17 -7 17 -13z"/>
<path d="M3687 1872 c-23 -25 -21 -57 5 -82 27 -25 39 -25 68 -2 15 12 21 26
18 42 l-4 25 -14 -27 c-7 -16 -19 -28 -27 -28 -19 0 -16 10 10 38 22 23 22 24
3 38 -26 19 -40 18 -59 -4z m31 -24 c-2 -6 -10 -14 -16 -16 -7 -2 -10 2 -6 12
7 18 28 22 22 4z"/>
<path d="M1365 1860 c-3 -6 -11 -8 -16 -5 -5 4 -9 -1 -9 -11 0 -9 -9 -32 -21
-50 -11 -19 -18 -38 -14 -44 10 -16 35 -11 35 8 1 21 23 52 39 52 6 0 11 9 11
20 0 11 0 23 1 27 1 12 -19 15 -26 3z"/>
<path d="M1380 1780 c-28 -28 -26 -66 5 -86 14 -9 32 -13 41 -10 20 8 9 26
-17 26 -12 0 -19 7 -19 20 0 20 0 20 29 -1 16 -12 34 -18 40 -15 17 11 13 51
-7 69 -25 22 -48 21 -72 -3z m60 -26 c0 -14 -3 -14 -15 -4 -8 7 -15 14 -15 16
0 2 7 4 15 4 8 0 15 -7 15 -16z"/>
<path d="M3605 1780 c-12 -13 -15 -27 -11 -45 7 -29 26 -32 61 -9 15 10 25 12
25 6 0 -6 -9 -16 -20 -22 -25 -14 -26 -30 -1 -30 22 0 51 35 51 63 0 26 -29
33 -62 14 -22 -13 -28 -13 -28 -3 0 8 9 16 21 19 12 3 18 10 14 16 -10 17 -30
13 -50 -9z"/>
<path d="M1477 1700 c-9 -26 -17 -53 -17 -59 0 -19 32 -12 58 12 l25 22 -17
-33 c-17 -32 -14 -52 6 -52 14 0 88 59 88 71 0 16 -23 10 -48 -13 l-24 -23 7
25 c4 14 10 30 12 36 9 24 -19 25 -44 3 -24 -22 -25 -22 -18 -4 16 42 16 52 3
58 -10 3 -19 -10 -31 -43z"/>
<path d="M3537 1692 c-23 -25 -21 -57 5 -82 27 -25 39 -25 68 -2 15 12 21 26
18 42 l-4 25 -14 -27 c-7 -16 -19 -28 -27 -28 -19 0 -16 10 10 38 22 23 22 24
3 38 -26 19 -40 18 -59 -4z m31 -24 c-2 -6 -10 -14 -16 -16 -7 -2 -10 2 -6 12
7 18 28 22 22 4z"/>
<path d="M3472 1615 l-22 -23 44 -36 c51 -41 74 -31 32 13 -16 17 -24 34 -21
43 10 26 -9 28 -33 3z"/>
<path d="M1627 1624 c-10 -11 3 -24 24 -24 10 0 19 -4 19 -10 0 -12 -2 -12
-33 -1 -34 13 -62 -7 -53 -37 4 -12 16 -22 26 -22 10 0 20 -7 24 -15 3 -8 9
-15 13 -15 11 0 53 67 53 83 0 29 -54 59 -73 41z m14 -69 c-1 -15 -24 -12 -29
3 -3 9 2 13 12 10 10 -1 17 -7 17 -13z"/>
<path d="M1709 1529 c-10 -39 -19 -53 -38 -60 -31 -12 -13 -34 21 -25 39 10
122 76 110 88 -7 7 -19 4 -38 -11 -33 -26 -38 -23 -24 13 13 36 13 46 -4 46
-9 0 -19 -20 -27 -51z"/>
<path d="M3366 1549 c-14 -17 -26 -34 -26 -39 0 -10 99 -90 111 -90 18 0 17
18 -1 35 -17 16 -18 21 -7 34 25 29 27 51 7 71 -28 28 -54 25 -84 -11z m61
-15 c3 -8 -1 -22 -9 -30 -13 -13 -16 -13 -28 0 -10 13 -10 19 0 31 16 19 29
19 37 -1z"/>
<path d="M1810 1485 c-11 -13 -9 -21 9 -45 18 -25 19 -30 5 -30 -9 0 -18 9
-21 20 -6 22 -18 26 -28 9 -10 -16 36 -60 59 -57 31 5 43 33 23 56 -9 10 -17
25 -17 33 0 8 11 1 25 -16 22 -27 24 -28 25 -9 0 24 -29 54 -52 54 -9 0 -21
-7 -28 -15z"/>
<path d="M2130 3540 c0 -69 13 -90 53 -90 52 0 61 12 62 77 0 46 -3 58 -17 61
-14 3 -17 -6 -20 -55 -2 -44 -7 -58 -18 -58 -11 0 -16 15 -20 55 -4 42 -9 56
-22 58 -15 3 -18 -4 -18 -48z"/>
<path d="M2547 3572 c-21 -23 -22 -86 -1 -106 25 -25 72 -24 92 2 25 33 3 45
-30 16 -31 -29 -60 12 -42 60 7 19 27 20 54 4 27 -17 37 -2 15 22 -23 25 -67
26 -88 2z"/>
<path d="M2288 3553 c-34 -8 -28 -63 8 -63 7 0 16 -5 20 -11 4 -8 -3 -9 -26
-4 -24 5 -31 4 -28 -5 6 -19 40 -29 66 -19 33 13 28 46 -10 64 l-33 15 34 -6
c24 -5 32 -3 29 6 -5 16 -37 28 -60 23z"/>
<path d="M2393 3549 c-27 -10 -39 -49 -24 -77 15 -29 47 -33 74 -11 l22 20
-32 -6 c-18 -4 -34 -2 -38 4 -4 7 7 11 30 11 31 0 36 3 33 21 -4 30 -37 49
-65 38z m32 -29 c3 -5 -1 -10 -9 -10 -9 0 -16 5 -16 10 0 6 4 10 9 10 6 0 13
-4 16 -10z"/>
<path d="M2786 3547 c-23 -17 -17 -51 9 -55 11 -2 25 -8 30 -14 7 -7 -1 -8
-24 -3 -25 5 -32 4 -29 -5 10 -32 88 -28 88 5 0 8 -15 25 -32 36 l-33 20 32
-6 c27 -5 32 -4 27 9 -3 9 -10 16 -14 16 -5 0 -14 2 -22 5 -7 3 -22 -1 -32 -8z"/>
<path d="M2903 3549 c-27 -10 -39 -49 -23 -78 13 -26 61 -28 81 -5 12 15 10
16 -18 10 -18 -4 -34 -3 -38 3 -4 7 7 11 30 11 31 0 36 3 33 21 -4 30 -37 49
-65 38z m32 -29 c3 -5 -1 -10 -9 -10 -9 0 -16 5 -16 10 0 6 4 10 9 10 6 0 13
-4 16 -10z"/>
<path d="M3008 3553 c-34 -8 -28 -63 8 -63 7 0 16 -5 20 -11 4 -8 -3 -9 -26
-4 -24 5 -31 4 -28 -5 6 -19 40 -29 66 -19 33 13 28 46 -10 64 l-33 15 34 -6
c24 -5 32 -3 29 6 -5 16 -37 28 -60 23z"/>
<path d="M2669 3534 c-12 -15 -11 -16 21 -9 24 5 32 4 25 -3 -5 -6 -19 -12
-30 -14 -14 -2 -20 -11 -20 -28 0 -23 4 -25 46 -28 l45 -3 -5 48 c-6 45 -8 48
-37 51 -19 2 -36 -3 -45 -14z m51 -54 c0 -5 -7 -10 -15 -10 -8 0 -15 5 -15 10
0 6 7 10 15 10 8 0 15 -4 15 -10z"/>
<path d="M2300 2690 l0 -60 45 0 c25 0 45 5 45 10 0 6 -13 10 -30 10 -20 0
-30 5 -30 15 0 9 9 15 25 15 14 0 25 5 25 10 0 6 -11 10 -25 10 -16 0 -25 6
-25 15 0 10 10 15 30 15 17 0 30 5 30 10 0 6 -20 10 -45 10 l-45 0 0 -60z"/>
<path d="M2560 2740 c0 -5 5 -10 10 -10 6 0 10 5 10 10 0 6 -4 10 -10 10 -5 0
-10 -4 -10 -10z"/>
<path d="M2660 2740 c0 -5 5 -10 10 -10 6 0 10 5 10 10 0 6 -4 10 -10 10 -5 0
-10 -4 -10 -10z"/>
<path d="M2502 2720 c-7 -12 -8 -20 -2 -20 5 0 10 -16 10 -35 0 -22 5 -35 13
-35 11 0 15 49 8 103 -2 13 -16 7 -29 -13z"/>
<path d="M2602 2720 c-7 -12 -8 -20 -2 -20 5 0 10 -16 10 -35 0 -22 5 -35 13
-35 11 0 15 49 8 103 -2 13 -16 7 -29 -13z"/>
<path d="M2410 2674 c0 -50 17 -60 22 -12 4 46 28 49 28 4 0 -20 5 -36 11 -36
6 0 9 17 7 43 -3 40 -5 42 -35 44 -33 1 -33 1 -33 -43z"/>
<path d="M2560 2675 c0 -25 5 -45 10 -45 6 0 10 20 10 45 0 25 -4 45 -10 45
-5 0 -10 -20 -10 -45z"/>
<path d="M2660 2675 c0 -25 5 -45 10 -45 6 0 10 20 10 45 0 25 -4 45 -10 45
-5 0 -10 -20 -10 -45z"/>
<path d="M2714 2712 c-18 -12 -24 -42 -13 -63 12 -23 59 -23 67 -1 3 9 -3 11
-22 6 -16 -4 -26 -2 -26 5 0 6 11 11 25 11 27 0 33 18 13 38 -14 14 -28 15
-44 4z m31 -22 c3 -5 -1 -10 -9 -10 -9 0 -16 5 -16 10 0 6 4 10 9 10 6 0 13
-4 16 -10z"/>
<path d="M2797 2713 c-16 -15 -5 -42 21 -52 l27 -11 -28 5 c-21 4 -28 2 -25
-7 3 -7 18 -13 34 -13 39 0 46 31 10 45 -33 12 -34 24 -1 16 27 -7 35 8 9 18
-20 8 -39 8 -47 -1z"/>
<path d="M5457 3803 c-2 -5 -4 -29 -4 -55 l-1 -48 44 0 c24 0 44 5 44 10 0 6
-13 10 -30 10 -39 0 -41 27 -2 33 l27 4 -27 2 c-36 1 -39 31 -3 31 14 0 25 5
25 10 0 12 -67 14 -73 3z"/>
<path d="M5990 3800 c0 -5 5 -10 10 -10 6 0 10 5 10 10 0 6 -4 10 -10 10 -5 0
-10 -4 -10 -10z"/>
<path d="M6240 3756 l0 -56 34 0 c37 0 62 22 50 42 -4 7 -8 24 -8 38 -1 22 -6
25 -38 28 l-38 3 0 -55z m53 19 c1 -5 -6 -11 -15 -13 -11 -2 -18 3 -18 13 0
17 30 18 33 0z m5 -42 c2 -8 -5 -13 -17 -13 -12 0 -21 6 -21 16 0 18 31 15 38
-3z"/>
<path d="M6520 3800 c0 -5 5 -10 10 -10 6 0 10 5 10 10 0 6 -4 10 -10 10 -5 0
-10 -4 -10 -10z"/>
<path d="M6950 3755 c0 -30 5 -55 10 -55 6 0 10 9 10 20 0 13 7 20 20 20 13 0
20 -7 20 -20 0 -11 6 -20 13 -20 13 0 17 76 4 98 -5 6 -24 12 -43 12 l-34 0 0
-55z m60 20 c0 -8 -9 -15 -20 -15 -11 0 -20 7 -20 15 0 8 9 15 20 15 11 0 20
-7 20 -15z"/>
<path d="M7150 3755 c0 -30 5 -55 10 -55 6 0 10 25 10 55 0 30 -4 55 -10 55
-5 0 -10 -25 -10 -55z"/>
<path d="M5648 3788 c-9 -23 4 -88 16 -88 10 0 13 44 7 93 -2 12 -18 8 -23 -5z"/>
<path d="M5550 3739 c0 -44 17 -53 22 -12 4 39 28 42 28 4 0 -21 5 -31 15 -31
19 0 21 53 3 68 -7 5 -25 10 -40 10 -26 0 -28 -4 -28 -39z"/>
<path d="M5700 3765 c-25 -30 9 -76 46 -60 17 7 17 8 -6 15 -22 7 -22 8 -4 9
29 1 35 10 23 32 -12 23 -42 25 -59 4z"/>
<path d="M5780 3739 c0 -22 5 -39 10 -39 6 0 10 11 10 25 0 14 7 28 15 31 23
9 18 22 -10 22 -22 0 -25 -5 -25 -39z"/>
<path d="M5840 3723 c0 -29 5 -53 10 -53 6 0 10 6 10 14 0 8 10 16 23 18 18 2
22 9 22 38 0 33 -2 35 -32 35 l-33 1 0 -53z m48 14 c2 -10 -3 -17 -12 -17 -10
0 -16 9 -16 21 0 24 23 21 28 -4z"/>
<path d="M5930 3739 c0 -22 5 -39 10 -39 6 0 10 11 10 25 0 14 7 28 15 31 23
9 18 22 -10 22 -22 0 -25 -5 -25 -39z"/>
<path d="M5990 3740 c0 -22 5 -40 10 -40 6 0 10 18 10 40 0 22 -4 40 -10 40
-5 0 -10 -18 -10 -40z"/>
<path d="M6034 3766 c-7 -19 3 -36 22 -36 8 0 14 -5 14 -10 0 -7 -6 -7 -20 0
-16 9 -20 8 -20 -5 0 -12 8 -15 33 -13 39 4 43 27 7 46 -24 13 -24 13 -2 9 15
-4 22 -1 19 6 -6 18 -46 21 -53 3z"/>
<path d="M6122 3771 c-8 -5 -12 -21 -10 -37 3 -30 26 -42 56 -28 14 6 11 9
-13 14 l-30 8 28 1 c28 1 35 19 15 39 -14 14 -28 15 -46 3z m35 -17 c-3 -3
-12 -4 -19 -1 -8 3 -5 6 6 6 11 1 17 -2 13 -5z"/>
<path d="M6350 3740 c0 -39 1 -40 35 -40 34 0 35 1 35 40 0 45 -17 55 -22 13
-4 -39 -28 -42 -28 -4 0 17 -4 31 -10 31 -5 0 -10 -18 -10 -40z"/>
<path d="M6443 3769 c-15 -15 0 -39 23 -39 8 0 14 -5 14 -10 0 -7 -6 -7 -19 0
-11 5 -22 6 -25 1 -8 -13 5 -21 36 -21 35 0 39 31 6 49 l-23 11 24 -6 c17 -4
22 -2 19 7 -6 18 -40 23 -55 8z"/>
<path d="M6520 3740 c0 -22 5 -40 10 -40 6 0 10 18 10 40 0 22 -4 40 -10 40
-5 0 -10 -18 -10 -40z"/>
<path d="M6560 3739 c0 -46 15 -52 24 -9 3 17 10 30 16 30 5 0 10 -13 10 -30
0 -20 5 -30 15 -30 19 0 21 53 3 68 -7 5 -25 10 -40 10 -26 0 -28 -4 -28 -39z"/>
<path d="M6662 3771 c-8 -5 -12 -21 -10 -37 3 -30 26 -42 56 -28 14 6 11 9
-13 14 l-30 8 28 1 c28 1 35 19 15 39 -14 14 -28 15 -46 3z m35 -17 c-3 -3
-12 -4 -19 -1 -8 3 -5 6 6 6 11 1 17 -2 13 -5z"/>
<path d="M6743 3769 c-15 -15 0 -39 23 -39 8 0 14 -4 14 -10 0 -13 -17 -13
-25 0 -4 6 -11 8 -16 4 -17 -10 1 -24 32 -24 36 0 40 31 7 49 l-23 11 24 -6
c17 -4 22 -2 19 7 -6 18 -40 23 -55 8z"/>
<path d="M6824 3766 c-7 -19 3 -36 22 -36 8 0 14 -5 14 -10 0 -7 -6 -7 -20 0
-16 9 -20 8 -20 -5 0 -12 8 -15 33 -13 39 4 43 27 7 46 -24 13 -24 13 -2 9 15
-4 22 -1 19 6 -6 18 -46 21 -53 3z"/>
<path d="M7052 3743 c3 -36 5 -38 39 -41 36 -3 36 -3 34 34 -2 47 -25 59 -25
14 0 -39 -23 -36 -28 3 -5 42 -24 32 -20 -10z"/>
<path d="M7190 3765 c-20 -24 -4 -65 25 -65 31 0 44 20 13 21 -22 1 -19 2 20
15 10 3 10 9 2 24 -13 24 -42 26 -60 5z"/>
<path d="M7274 3766 c-7 -19 3 -36 22 -36 8 0 14 -5 14 -10 0 -7 -6 -7 -20 0
-16 9 -20 8 -20 -5 0 -12 8 -15 33 -13 39 4 43 27 7 46 -24 13 -24 13 -2 9 15
-4 22 -1 19 6 -6 18 -46 21 -53 3z"/>
<path d="M5476 3488 c-23 -56 -28 -78 -17 -78 5 0 13 5 16 10 3 6 15 10 26 10
10 0 19 -4 19 -10 0 -5 6 -10 14 -10 12 0 12 8 -3 52 -21 63 -37 71 -55 26z
m34 -29 c0 -5 -4 -9 -10 -9 -5 0 -10 7 -10 16 0 8 5 12 10 9 6 -3 10 -10 10
-16z"/>
<path d="M5750 3465 c0 -30 5 -55 10 -55 6 0 10 25 10 55 0 30 -4 55 -10 55
-5 0 -10 -25 -10 -55z"/>
<path d="M5790 3510 c0 -5 5 -10 10 -10 6 0 10 5 10 10 0 6 -4 10 -10 10 -5 0
-10 -4 -10 -10z"/>
<path d="M6050 3510 c0 -5 5 -10 10 -10 6 0 10 5 10 10 0 6 -4 10 -10 10 -5 0
-10 -4 -10 -10z"/>
<path d="M6317 3513 c-4 -3 -7 -28 -7 -55 l0 -49 43 3 42 3 2 45 c1 26 -3 48
-10 52 -15 10 -61 10 -70 1z m56 -28 c1 -5 -6 -11 -15 -13 -11 -2 -18 3 -18
13 0 17 30 18 33 0z m5 -42 c2 -8 -5 -13 -17 -13 -12 0 -21 6 -21 16 0 18 31
15 38 -3z"/>
<path d="M6600 3510 c0 -5 5 -10 10 -10 6 0 10 5 10 10 0 6 -4 10 -10 10 -5 0
-10 -4 -10 -10z"/>
<path d="M7020 3465 c0 -30 5 -55 10 -55 6 0 10 9 10 20 0 13 7 20 19 20 10 0
21 -9 24 -20 9 -36 26 -21 25 23 -2 54 -12 67 -54 67 l-34 0 0 -55z m61 20 c0
-5 -9 -11 -21 -13 -20 -3 -27 8 -13 22 10 9 34 3 34 -9z"/>
<path d="M7220 3465 c0 -30 5 -55 10 -55 6 0 10 25 10 55 0 30 -4 55 -10 55
-5 0 -10 -25 -10 -55z"/>
<path d="M5998 3498 c-9 -23 4 -88 16 -88 10 0 13 44 7 93 -2 12 -18 8 -23 -5z"/>
<path d="M5560 3433 c0 -29 5 -53 10 -53 6 0 10 7 10 15 0 9 9 15 25 15 18 0
26 7 31 25 8 33 -10 54 -47 53 -28 -1 -29 -2 -29 -55z m56 26 c10 -17 -13 -36
-27 -22 -12 12 -4 33 11 33 5 0 12 -5 16 -11z"/>
<path d="M5650 3433 c0 -29 5 -53 10 -53 6 0 10 7 10 15 0 9 9 15 25 15 18 0
26 7 31 25 8 33 -10 54 -47 53 -28 -1 -29 -2 -29 -55z m56 26 c10 -17 -13 -36
-27 -22 -12 12 -4 33 11 33 5 0 12 -5 16 -11z"/>
<path d="M5790 3450 c0 -22 5 -40 10 -40 6 0 10 18 10 40 0 22 -4 40 -10 40
-5 0 -10 -18 -10 -40z"/>
<path d="M5834 3476 c-3 -8 -4 -25 -2 -38 4 -28 52 -39 61 -13 5 12 1 14 -18
9 -21 -5 -25 -3 -25 15 0 18 4 20 28 15 24 -7 26 -6 13 9 -17 21 -50 22 -57 3z"/>
<path d="M5917 3484 c-15 -15 -6 -24 21 -19 l27 5 -27 -11 c-17 -6 -28 -18
-28 -30 0 -15 7 -18 36 -17 34 1 35 2 32 37 -3 30 -7 36 -28 39 -14 2 -29 0
-33 -4z m33 -54 c0 -5 -4 -10 -10 -10 -5 0 -10 5 -10 10 0 6 5 10 10 10 6 0
10 -4 10 -10z"/>
<path d="M6050 3450 c0 -22 5 -40 10 -40 6 0 10 18 10 40 0 22 -4 40 -10 40
-5 0 -10 -18 -10 -40z"/>
<path d="M6092 3478 c-29 -29 -2 -72 40 -66 42 6 32 78 -11 78 -9 0 -22 -5
-29 -12z m48 -28 c0 -11 -6 -20 -13 -20 -19 0 -27 10 -20 26 8 21 33 17 33 -6z"/>
<path d="M6180 3449 c0 -21 5 -39 10 -39 6 0 10 14 10 30 0 20 5 30 15 30 10
0 15 -10 15 -30 0 -16 5 -30 11 -30 6 0 9 16 7 38 -3 34 -6 37 -35 39 -32 1
-33 0 -33 -38z"/>
<path d="M6422 3453 c3 -35 6 -38 36 -41 31 -3 32 -2 32 37 0 23 -4 41 -10 41
-5 0 -10 -13 -10 -30 0 -20 -5 -30 -15 -30 -10 0 -15 10 -15 30 0 17 -5 30
-11 30 -6 0 -9 -16 -7 -37z"/>
<path d="M6523 3483 c-22 -8 -14 -32 12 -39 14 -3 22 -10 19 -16 -3 -5 -12 -4
-20 3 -17 14 -32 3 -17 -12 15 -15 57 -7 61 12 2 11 -7 21 -25 28 l-28 11 28
-5 c29 -6 38 9 11 19 -18 7 -23 7 -41 -1z"/>
<path d="M6600 3450 c0 -22 5 -40 10 -40 6 0 10 18 10 40 0 22 -4 40 -10 40
-5 0 -10 -18 -10 -40z"/>
<path d="M6640 3449 c0 -21 5 -39 10 -39 6 0 10 14 10 31 0 38 24 35 28 -4 5
-42 24 -32 20 11 -3 34 -6 37 -35 39 -32 1 -33 0 -33 -38z"/>
<path d="M6730 3470 c-15 -28 4 -60 35 -60 31 0 33 17 3 23 -20 4 -19 4 5 6
28 1 35 19 15 39 -18 18 -46 14 -58 -8z"/>
<path d="M6823 3483 c-22 -8 -14 -32 12 -39 14 -3 22 -10 19 -16 -3 -5 -12 -4
-20 3 -17 14 -32 3 -17 -12 15 -15 57 -7 61 12 2 11 -7 21 -25 28 l-28 11 28
-5 c29 -6 38 9 11 19 -18 7 -23 7 -41 -1z"/>
<path d="M6903 3479 c-15 -15 0 -39 23 -39 8 0 14 -4 14 -10 0 -13 -17 -13
-25 0 -4 6 -11 8 -16 4 -17 -10 1 -24 32 -24 36 0 40 31 7 49 l-23 11 24 -6
c17 -4 22 -2 19 7 -6 18 -40 23 -55 8z"/>
<path d="M7132 3453 c3 -35 6 -38 36 -41 31 -3 32 -2 32 37 0 23 -4 41 -10 41
-5 0 -10 -13 -10 -30 0 -20 -5 -30 -15 -30 -10 0 -15 10 -15 30 0 17 -5 30
-11 30 -6 0 -9 -16 -7 -37z"/>
<path d="M7272 3481 c-8 -5 -12 -21 -10 -37 3 -30 26 -42 56 -28 14 6 11 9
-13 14 l-30 8 28 1 c28 1 35 19 15 39 -14 14 -28 15 -46 3z m35 -17 c-3 -3
-12 -4 -19 -1 -8 3 -5 6 6 6 11 1 17 -2 13 -5z"/>
<path d="M7353 3479 c-15 -15 0 -39 23 -39 8 0 14 -5 14 -10 0 -7 -6 -7 -19 0
-11 5 -22 6 -25 1 -8 -13 5 -21 36 -21 35 0 39 31 6 49 l-23 11 24 -6 c17 -4
22 -2 19 7 -6 18 -40 23 -55 8z"/>
<path d="M5450 3176 c0 -44 3 -56 16 -56 12 0 14 10 12 52 -4 74 -28 77 -28 4z"/>
<path d="M5782 3214 c-5 -9 -21 -16 -36 -16 -24 0 -26 -4 -26 -39 0 -44 17
-53 22 -12 2 17 10 29 21 31 13 3 17 -3 17 -27 0 -17 5 -31 10 -31 6 0 10 13
10 29 0 16 6 32 13 34 9 4 8 8 -3 16 -10 7 -11 11 -2 11 6 0 12 5 12 10 0 16
-28 11 -38 -6z"/>
<path d="M6145 3218 c-33 -91 -34 -98 -20 -98 8 0 15 5 15 10 0 14 33 13 48
-2 20 -20 22 -4 5 50 -16 49 -38 67 -48 40z m21 -55 c-10 -10 -19 5 -10 18 6
11 8 11 12 0 2 -7 1 -15 -2 -18z"/>
<path d="M6273 3218 c-4 -7 -17 -18 -28 -24 -13 -7 -20 -22 -20 -40 0 -26 4
-29 38 -32 l37 -3 0 55 c0 54 -10 70 -27 44z m-3 -58 c0 -11 -7 -20 -15 -20
-15 0 -21 21 -8 33 12 13 23 7 23 -13z"/>
<path d="M5588 3208 c-9 -23 4 -88 16 -88 10 0 13 44 7 93 -2 12 -18 8 -23 -5z"/>
<path d="M6487 3207 c-10 -27 8 -82 28 -85 16 -3 18 -1 8 9 -15 16 -17 49 -3
49 6 0 5 8 -2 20 -15 23 -24 25 -31 7z"/>
<path d="M5500 3159 c0 -21 5 -39 10 -39 6 0 10 14 10 31 0 38 24 35 28 -4 5
-42 24 -32 20 11 -3 34 -6 37 -35 39 -32 1 -33 0 -33 -38z"/>
<path d="M5640 3185 c-25 -30 9 -76 46 -60 17 7 17 8 -6 15 -22 7 -22 8 -4 9
29 1 35 10 23 32 -12 23 -42 25 -59 4z"/>
<path d="M5837 3193 c-15 -14 -6 -24 16 -18 18 5 17 3 -5 -10 -37 -21 -27 -45
19 -45 32 0 34 2 30 29 -3 17 -8 35 -12 40 -7 12 -38 15 -48 4z m33 -47 c0 -3
-4 -8 -10 -11 -5 -3 -10 -1 -10 4 0 6 5 11 10 11 6 0 10 -2 10 -4z"/>
<path d="M5920 3186 c-6 -8 -10 -25 -8 -38 2 -18 9 -23 32 -23 16 0 31 6 34
13 3 9 -3 11 -23 6 -23 -6 -26 -4 -23 12 3 13 11 18 26 17 25 -3 30 12 6 21
-23 9 -30 8 -44 -8z"/>
<path d="M6000 3185 c-20 -24 -4 -65 25 -65 31 0 44 20 13 21 -22 1 -19 2 20
15 10 3 10 9 2 24 -13 24 -42 26 -60 5z"/>
<path d="M6327 3194 c-14 -14 -7 -22 16 -17 20 4 20 4 -3 -9 -36 -20 -32 -42
8 -46 33 -3 33 -3 30 35 -2 29 -8 39 -23 41 -12 2 -24 0 -28 -4z m28 -53 c-3
-6 -11 -8 -17 -5 -6 4 -5 9 3 15 16 10 23 4 14 -10z"/>
<path d="M6400 3143 c0 -29 5 -53 10 -53 6 0 10 7 10 15 0 8 9 15 20 15 26 0
44 34 30 59 -7 13 -20 19 -40 19 -29 -1 -30 -2 -30 -55z m50 17 c0 -11 -7 -20
-15 -20 -8 0 -15 9 -15 20 0 11 7 20 15 20 8 0 15 -9 15 -20z"/>
<path d="M6540 3180 c-15 -28 4 -60 35 -60 31 0 33 17 3 23 -20 4 -19 4 5 6
28 1 35 19 15 39 -18 18 -46 14 -58 -8z"/>
<path d="M6620 3159 c0 -22 5 -39 10 -39 6 0 10 9 10 19 0 11 7 26 15 35 20
20 19 24 -10 24 -22 0 -25 -5 -25 -39z"/>
<path d="M6693 3193 c-22 -8 -14 -32 12 -39 14 -3 22 -10 19 -16 -3 -5 -12 -4
-20 3 -17 14 -32 3 -17 -12 15 -15 57 -7 61 12 2 11 -7 21 -25 28 -20 8 -21
10 -6 7 27 -5 40 9 17 18 -18 7 -23 7 -41 -1z"/>
<path d="M5457 2933 c-4 -3 -7 -28 -7 -55 0 -36 4 -48 15 -48 8 0 15 9 15 20
0 13 7 20 20 20 11 0 20 5 20 10 0 6 -9 10 -20 10 -11 0 -20 7 -20 15 0 9 9
15 25 15 14 0 25 5 25 10 0 11 -63 14 -73 3z"/>
<path d="M6170 2885 c0 -30 5 -55 10 -55 6 0 10 8 10 18 1 16 1 16 14 0 21
-28 38 -23 24 7 -8 19 -8 28 2 40 10 12 10 15 -3 15 -9 0 -21 -8 -26 -17 -9
-15 -10 -12 -11 15 0 17 -4 32 -10 32 -5 0 -10 -25 -10 -55z"/>
<path d="M6401 2926 c-6 -7 -9 -21 -5 -30 3 -9 1 -16 -6 -16 -6 0 -10 -10 -8
-22 2 -19 10 -24 43 -26 37 -3 40 -1 40 23 0 16 -5 23 -12 21 -17 -7 -24 7
-13 24 5 9 5 19 -2 27 -13 17 -23 16 -37 -1z m29 -16 c0 -5 -4 -10 -10 -10 -5
0 -10 5 -10 10 0 6 5 10 10 10 6 0 10 -4 10 -10z m-5 -50 c3 -5 -1 -10 -9 -10
-9 0 -16 5 -16 10 0 6 4 10 9 10 6 0 13 -4 16 -10z"/>
<path d="M6530 2885 l0 -55 33 0 c42 0 57 15 57 57 0 36 -21 53 -64 53 -25 0
-26 -3 -26 -55z m63 13 c14 -22 1 -48 -23 -48 -15 0 -20 7 -20 28 0 44 22 54
43 20z"/>
<path d="M6700 2930 c0 -5 5 -10 10 -10 6 0 10 5 10 10 0 6 -4 10 -10 10 -5 0
-10 -4 -10 -10z"/>
<path d="M5550 2868 c0 -21 5 -38 10 -38 6 0 10 11 10 24 0 14 5 28 10 31 16
10 11 21 -10 21 -16 0 -20 -7 -20 -38z"/>
<path d="M5607 2904 c-15 -15 -6 -24 21 -19 l27 5 -28 -11 c-39 -15 -32 -43
11 -46 32 -1 33 0 30 35 -3 31 -7 37 -28 40 -14 2 -29 0 -33 -4z m33 -48 c0
-3 -4 -8 -10 -11 -5 -3 -10 -1 -10 4 0 6 5 11 10 11 6 0 10 -2 10 -4z"/>
<path d="M5690 2869 c0 -22 5 -39 10 -39 6 0 10 14 10 30 0 17 5 30 10 30 6 0
10 -13 10 -30 0 -37 18 -40 22 -3 4 39 28 42 28 4 0 -17 5 -31 11 -31 6 0 9
16 7 38 l-3 37 -52 1 -53 1 0 -38z"/>
<path d="M5820 2890 c-15 -28 4 -60 35 -60 31 0 33 17 3 23 -20 4 -19 4 5 6
28 1 35 19 15 39 -18 18 -46 14 -58 -8z"/>
<path d="M5904 2879 c3 -17 6 -35 6 -40 0 -19 28 -8 35 14 l8 22 4 -22 c7 -35
28 -27 41 14 6 20 10 39 7 41 -9 9 -25 -11 -26 -31 -1 -21 -1 -21 -8 2 -9 33
-27 37 -36 9 l-8 -23 -4 23 c-2 12 -9 22 -15 22 -6 0 -8 -12 -4 -31z"/>
<path d="M6024 2896 c-12 -32 0 -61 28 -64 34 -4 54 27 38 58 -12 23 -58 27
-66 6z m46 -26 c0 -11 -7 -20 -15 -20 -8 0 -15 9 -15 20 0 11 7 20 15 20 8 0
15 -9 15 -20z"/>
<path d="M6110 2869 c0 -22 5 -39 10 -39 6 0 10 9 10 19 0 11 7 26 15 35 20
20 19 24 -10 24 -22 0 -25 -5 -25 -39z"/>
<path d="M6263 2903 c-22 -8 -14 -32 12 -39 14 -3 22 -10 19 -16 -3 -5 -12 -4
-20 3 -17 14 -32 3 -17 -12 15 -15 57 -7 61 12 2 11 -7 21 -25 28 l-28 11 28
-5 c29 -6 38 9 11 19 -18 7 -23 7 -41 -1z"/>
<path d="M6640 2868 c0 -21 5 -38 10 -38 6 0 10 11 10 24 0 14 5 28 10 31 16
10 11 21 -10 21 -16 0 -20 -7 -20 -38z"/>
<path d="M6700 2870 c0 -22 5 -40 10 -40 6 0 10 18 10 40 0 22 -4 40 -10 40
-5 0 -10 -18 -10 -40z"/>
<path d="M6730 2906 c0 -21 32 -77 42 -74 15 5 41 78 27 78 -5 0 -15 -12 -21
-27 l-11 -28 -6 24 c-6 21 -31 43 -31 27z"/>
<path d="M6820 2890 c-15 -28 4 -60 35 -60 31 0 33 17 3 23 -20 4 -19 4 5 6
28 1 35 19 15 39 -18 18 -46 14 -58 -8z"/>
<path d="M6900 2869 c0 -22 5 -39 10 -39 6 0 10 9 10 19 0 11 7 26 15 35 20
20 19 24 -10 24 -22 0 -25 -5 -25 -39z"/>
<path d="M6973 2903 c-22 -8 -14 -32 12 -39 14 -3 22 -10 19 -16 -3 -5 -12 -4
-20 3 -17 14 -32 3 -17 -12 15 -15 57 -7 61 12 2 11 -7 21 -25 28 l-28 11 28
-5 c29 -6 38 9 11 19 -18 7 -23 7 -41 -1z"/>
<path d="M6910 2195 c-20 -12 -88 -14 -357 -15 l-333 0 0 -91 c0 -83 -2 -90
-17 -84 -26 10 -125 45 -130 45 -1 0 -3 -11 -3 -25 l0 -25 -115 0 -115 0 0 90
0 90 -460 0 -460 0 0 -190 0 -190 460 0 460 0 0 90 0 90 115 0 c93 0 115 -3
115 -14 0 -27 18 -27 81 -1 34 14 64 25 66 25 2 0 3 -43 3 -95 l0 -95 230 0
229 0 -24 -64 c-24 -63 -23 -98 2 -54 10 20 12 7 13 -89 l0 -113 -225 0 -225
0 0 -190 0 -190 225 0 225 0 0 -85 c0 -78 -2 -85 -20 -85 -25 0 -25 -3 5 -80
14 -35 25 -65 25 -67 0 -2 -103 -3 -230 -3 l-230 0 0 -90 c0 -51 -4 -90 -10
-90 -5 0 -32 9 -60 20 -55 22 -96 16 -45 -6 26 -11 11 -13 -117 -14 l-148 0 0
90 0 90 -460 0 -460 0 0 -190 0 -190 460 0 460 0 0 90 0 90 148 0 c128 -1 143
-3 117 -14 -51 -22 -10 -28 45 -6 28 11 55 20 60 20 6 0 10 -39 10 -90 l0 -90
460 0 460 0 0 189 0 189 -54 4 c-51 3 -53 2 -39 -14 13 -15 13 -18 -7 -28 -12
-6 -19 -14 -16 -17 3 -3 21 4 41 16 20 11 40 21 46 21 5 0 9 -70 9 -170 l0
-170 -440 0 -440 0 0 170 0 170 313 0 c297 0 314 -1 346 -21 18 -11 35 -18 38
-15 3 2 -5 11 -16 18 -21 13 -21 13 -1 28 18 14 8 15 -105 12 -69 -2 -125 -1
-125 2 0 3 11 35 25 72 14 36 25 68 25 70 0 2 -11 4 -25 4 -25 0 -25 1 -25 85
l0 85 225 0 225 0 0 190 0 190 -225 0 -225 0 0 116 c0 74 4 113 10 109 6 -3
10 -13 10 -21 0 -8 5 -14 10 -14 14 0 13 13 -10 70 -11 28 -20 53 -20 55 0 3
101 5 225 5 l225 0 0 190 0 190 -25 0 c-15 0 -40 7 -58 15 -29 15 -30 15 -12
0 20 -16 20 -16 -5 -36 -20 -17 -21 -19 -5 -13 11 4 35 9 53 12 l32 4 0 -171
0 -171 -440 0 -440 0 0 170 0 170 334 0 c213 0 337 -4 341 -10 3 -5 12 -10 18
-10 7 1 2 9 -10 19 l-23 19 23 15 c28 20 20 21 -13 2z m-1090 -205 l0 -170
-440 0 -440 0 0 170 0 170 440 0 440 0 0 -170z m333 0 c-4 -4 -18 -11 -30 -15
-20 -5 -23 -3 -23 19 0 24 2 24 31 14 17 -6 27 -14 22 -18z m967 -700 l0 -170
-440 0 -440 0 0 170 0 170 440 0 440 0 0 -170z m-410 -384 c0 -1 -5 -18 -11
-36 l-12 -33 -13 24 c-20 36 -17 49 11 49 14 0 25 -2 25 -4z m-890 -316 l0
-170 -440 0 -440 0 0 170 0 170 440 0 440 0 0 -170z"/>
<path d="M5110 1995 c0 -25 5 -45 10 -45 6 0 10 7 10 15 0 8 6 15 14 15 7 0
19 7 26 15 17 20 -3 45 -36 45 -22 0 -24 -4 -24 -45z m45 15 c-3 -5 -10 -10
-16 -10 -5 0 -9 5 -9 10 0 6 7 10 16 10 8 0 12 -4 9 -10z"/>
<path d="M5508 2028 c-8 -21 3 -78 16 -78 14 0 13 67 -1 81 -7 7 -12 6 -15 -3z"/>
<path d="M5190 1982 c0 -32 11 -38 16 -9 1 7 5 19 8 28 5 10 2 16 -9 16 -11 0
-15 -10 -15 -35z"/>
<path d="M5234 2006 c-15 -39 23 -74 50 -46 8 9 6 11 -11 5 -14 -4 -23 -2 -23
4 0 6 9 11 21 11 14 0 19 5 17 18 -4 22 -46 29 -54 8z"/>
<path d="M5303 2005 c-3 -9 2 -22 13 -31 17 -12 17 -13 2 -8 -10 3 -18 1 -18
-5 0 -6 11 -11 25 -11 30 0 36 36 8 43 -17 4 -17 5 0 6 10 0 15 6 12 11 -9 15
-35 12 -42 -5z"/>
<path d="M5371 2006 c-7 -8 -10 -24 -6 -36 7 -22 39 -27 51 -8 5 8 2 9 -9 5
-9 -3 -19 -2 -22 3 -4 6 3 10 15 10 15 0 20 5 18 17 -4 23 -31 28 -47 9z"/>
<path d="M5435 2012 c-9 -10 -5 -62 5 -62 6 0 10 11 10 25 0 14 5 25 10 25 6
0 10 -11 10 -25 0 -14 5 -25 11 -25 6 0 9 14 7 33 -2 25 -8 32 -25 33 -12 1
-25 -1 -28 -4z"/>
<path d="M5551 2006 c-7 -8 -10 -24 -6 -36 7 -22 39 -27 51 -8 5 8 2 9 -9 5
-9 -3 -19 -2 -22 3 -4 6 3 10 15 10 15 0 20 5 18 17 -4 23 -31 28 -47 9z"/>
<path d="M5615 2012 c-9 -10 -5 -62 5 -62 6 0 10 9 10 19 0 11 5 23 10 26 6 3
10 10 10 14 0 8 -27 11 -35 3z"/>
<path d="M6410 1384 c0 -38 18 -64 44 -64 26 0 36 17 36 62 0 33 -24 35 -26 2
-1 -10 -2 -25 -3 -31 -2 -30 -21 -10 -21 22 0 24 -5 35 -15 35 -9 0 -15 -10
-15 -26z"/>
<path d="M6670 1389 c-18 -34 2 -71 37 -67 14 2 28 9 31 16 3 9 -3 11 -22 6
-23 -5 -26 -3 -26 21 0 24 3 26 26 21 19 -5 25 -3 22 6 -8 23 -55 21 -68 -3z"/>
<path d="M6503 1375 c-3 -9 2 -22 13 -31 17 -12 17 -13 2 -8 -10 3 -18 2 -18
-4 0 -6 26 -10 60 -10 34 0 60 4 60 10 0 6 -7 8 -15 5 -8 -4 -17 -2 -20 3 -4
6 3 10 15 10 15 0 20 5 18 18 -5 25 -45 28 -53 3 -4 -13 -11 -18 -23 -14 -10
4 -12 8 -4 11 20 6 14 22 -8 22 -11 0 -23 -7 -27 -15z"/>
<path d="M6759 1388 c0 -2 -2 -18 -5 -35 -4 -31 -2 -33 27 -33 28 0 30 2 27
33 -2 24 -8 33 -25 35 -13 2 -23 2 -24 0z m31 -42 c0 -3 -4 -8 -10 -11 -5 -3
-10 -1 -10 4 0 6 5 11 10 11 6 0 10 -2 10 -4z"/>
<path d="M6823 1375 c-3 -9 2 -22 13 -31 17 -12 17 -13 2 -8 -10 3 -18 2 -18
-4 0 -6 26 -10 60 -10 34 0 60 4 60 10 0 6 -7 8 -15 5 -8 -4 -17 -2 -20 3 -4
6 5 10 20 10 23 0 24 2 15 20 -14 26 -47 26 -55 1 -4 -14 -11 -18 -23 -14 -10
4 -12 8 -4 11 20 6 14 22 -8 22 -11 0 -23 -7 -27 -15z"/>
<path d="M6410 1225 c0 -25 5 -45 10 -45 6 0 10 20 10 45 0 25 -4 45 -10 45
-5 0 -10 -20 -10 -45z"/>
<path d="M6514 1256 c-10 -25 0 -71 16 -74 12 -2 15 6 12 38 -4 43 -18 61 -28
36z"/>
<path d="M6798 1259 c-7 -21 4 -79 16 -79 9 0 12 26 7 78 -1 15 -18 16 -23 1z"/>
<path d="M6440 1216 c0 -20 5 -36 10 -36 6 0 10 11 10 25 0 14 5 25 10 25 6 0
10 -11 10 -25 0 -14 5 -25 11 -25 6 0 9 14 7 33 -2 27 -8 33 -30 35 -26 3 -28
1 -28 -32z"/>
<path d="M6557 1244 c-4 -4 -7 -18 -7 -31 0 -27 21 -39 48 -28 15 7 14 9 -8
15 -25 8 -25 8 -2 9 17 1 22 6 20 19 -3 17 -38 29 -51 16z"/>
<path d="M6620 1215 c0 -19 5 -35 10 -35 6 0 10 11 10 25 0 14 5 25 10 25 6 0
10 5 10 10 0 6 -9 10 -20 10 -16 0 -20 -7 -20 -35z"/>
<path d="M6667 1223 c-7 -36 -2 -43 29 -43 22 0 25 4 22 33 -2 24 -8 33 -24
35 -17 2 -23 -3 -27 -25z"/>
<path d="M6734 1236 c-11 -28 0 -51 25 -51 14 0 26 6 29 14 3 9 -1 11 -17 6
-15 -5 -21 -2 -21 10 0 12 6 15 21 10 15 -5 20 -3 17 6 -6 20 -47 23 -54 5z"/>
<path d="M6844 1236 c-11 -29 0 -51 26 -51 21 0 25 5 25 30 0 24 -5 31 -23 33
-13 2 -24 -3 -28 -12z m36 -21 c0 -8 -4 -15 -10 -15 -5 0 -10 7 -10 15 0 8 5
15 10 15 6 0 10 -7 10 -15z"/>
<path d="M6910 1214 c0 -19 5 -34 10 -34 6 0 10 9 10 19 0 11 5 23 10 26 16
10 11 21 -10 22 -16 1 -20 -4 -20 -33z"/>
<path d="M5104 627 c-3 -9 -4 -28 -2 -44 2 -22 9 -29 29 -31 17 -2 29 3 32 13
5 12 1 14 -18 9 -22 -5 -25 -3 -25 21 0 24 3 26 26 21 19 -5 25 -3 22 6 -7 19
-57 23 -64 5z"/>
<path d="M5334 627 c-8 -22 -1 -70 11 -74 6 -2 10 14 9 37 -1 44 -10 62 -20
37z"/>
<path d="M5490 595 c0 -25 5 -45 10 -45 6 0 10 20 10 45 0 25 -4 45 -10 45 -5
0 -10 -20 -10 -45z"/>
<path d="M5520 595 c0 -25 5 -45 10 -45 6 0 10 20 10 45 0 25 -4 45 -10 45 -5
0 -10 -20 -10 -45z"/>
<path d="M5190 605 c-17 -20 -8 -49 16 -53 30 -4 48 21 34 47 -13 25 -33 27
-50 6z m35 -23 c0 -18 -20 -15 -23 4 -3 10 1 15 10 12 7 -3 13 -10 13 -16z"/>
<path d="M5260 583 c0 -18 5 -33 10 -33 6 0 10 11 10 25 0 14 5 25 10 25 6 0
10 -11 10 -25 0 -14 5 -25 10 -25 12 0 13 40 2 57 -4 7 -18 11 -30 10 -18 -1
-22 -7 -22 -34z"/>
<path d="M5370 585 c0 -19 5 -35 10 -35 6 0 10 11 10 25 0 14 5 25 10 25 6 0
10 5 10 10 0 6 -9 10 -20 10 -16 0 -20 -7 -20 -35z"/>
<path d="M5420 600 c-9 -16 -8 -25 1 -36 27 -33 75 -2 52 35 -15 24 -40 25
-53 1z m38 -17 c-4 -22 -22 -20 -26 1 -2 10 3 16 13 16 10 0 15 -7 13 -17z"/>
<path d="M5561 606 c-7 -8 -10 -24 -6 -36 7 -22 39 -27 51 -8 5 8 2 9 -9 5 -9
-3 -19 -2 -22 3 -4 6 3 10 15 10 15 0 20 5 18 17 -4 23 -31 28 -47 9z"/>
<path d="M5620 584 c0 -19 5 -34 10 -34 6 0 10 9 10 19 0 11 5 23 10 26 16 10
11 21 -10 22 -16 1 -20 -4 -20 -33z"/>
<path d="M6968 2203 c6 -2 12 -15 12 -28 0 -13 -6 -26 -12 -28 -7 -3 1 -5 17
-5 17 0 24 2 18 5 -7 2 -13 15 -13 28 0 13 6 26 13 28 6 3 -1 5 -18 5 -16 0
-24 -2 -17 -5z"/>
<path d="M6410 2084 c0 -38 18 -64 44 -64 26 0 36 17 36 62 0 34 -24 34 -26 0
-2 -38 -4 -42 -14 -42 -5 0 -10 16 -10 35 0 24 -5 35 -15 35 -9 0 -15 -10 -15
-26z"/>
<path d="M6670 2089 c-18 -34 2 -71 37 -67 14 2 28 9 31 16 3 9 -3 11 -22 6
-23 -5 -26 -3 -26 21 0 24 3 26 26 21 19 -5 25 -3 22 6 -8 23 -55 21 -68 -3z"/>
<path d="M6503 2075 c-3 -9 2 -22 13 -31 17 -12 17 -13 2 -8 -10 3 -18 2 -18
-4 0 -6 26 -10 60 -10 34 0 60 4 60 10 0 6 -7 8 -15 5 -8 -4 -17 -2 -20 3 -4
6 3 10 14 10 25 0 28 28 4 37 -10 4 -22 -1 -33 -14 -12 -15 -21 -18 -31 -12
-10 6 -10 9 -1 9 6 0 12 5 12 10 0 16 -40 11 -47 -5z"/>
<path d="M6759 2088 c0 -2 -2 -18 -5 -35 -4 -31 -2 -33 27 -33 28 0 30 2 27
33 -2 24 -8 33 -25 35 -13 2 -23 2 -24 0z m31 -42 c0 -3 -4 -8 -10 -11 -5 -3
-10 -1 -10 4 0 6 5 11 10 11 6 0 10 -2 10 -4z"/>
<path d="M6823 2075 c-3 -9 2 -22 13 -31 17 -12 17 -13 2 -8 -10 3 -18 2 -18
-4 0 -6 26 -10 60 -10 34 0 60 4 60 10 0 6 -7 8 -15 5 -8 -4 -17 -2 -20 3 -4
6 3 10 15 10 15 0 20 5 18 18 -5 27 -43 27 -56 0 l-11 -23 0 23 c-1 26 -38 31
-48 7z"/>
<path d="M6354 1946 c-11 -44 4 -68 39 -64 30 3 32 5 32 43 0 38 -2 40 -32 43
-27 3 -33 -1 -39 -22z m56 -21 c0 -18 -5 -25 -20 -25 -15 0 -20 7 -20 25 0 18
5 25 20 25 15 0 20 -7 20 -25z"/>
<path d="M6517 1958 c-7 -21 4 -78 17 -78 9 0 12 26 7 78 0 6 -5 12 -10 12 -5
0 -11 -6 -14 -12z"/>
<path d="M6705 1959 c-3 -8 -3 -26 -1 -39 2 -14 5 -28 5 -32 1 -5 7 -8 14 -8
7 0 12 13 11 36 -1 39 -20 67 -29 43z"/>
<path d="M6780 1925 c0 -25 5 -45 10 -45 6 0 10 7 10 15 0 8 6 15 14 15 20 0
37 25 30 44 -4 10 -18 16 -35 16 -28 0 -29 -2 -29 -45z m45 15 c-3 -5 -10 -10
-16 -10 -5 0 -9 5 -9 10 0 6 7 10 16 10 8 0 12 -4 9 -10z"/>
<path d="M6980 1960 c0 -5 -11 -10 -25 -10 -22 0 -25 -4 -25 -35 0 -19 5 -35
10 -35 6 0 10 11 10 25 0 16 6 25 15 25 9 0 15 -9 15 -25 0 -14 6 -25 13 -25
11 0 13 24 8 78 -1 14 -21 17 -21 2z"/>
<path d="M6442 1918 c2 -28 8 -34 31 -36 25 -3 27 -1 27 32 0 20 -4 36 -10 36
-5 0 -10 -11 -10 -25 0 -14 -4 -25 -10 -25 -5 0 -10 11 -10 25 0 14 -5 25 -11
25 -6 0 -9 -14 -7 -32z"/>
<path d="M6560 1898 c1 -44 3 -50 13 -37 7 8 20 18 30 22 13 5 17 15 15 34 -2
22 -9 29 -30 31 -27 3 -28 2 -28 -50z m40 17 c0 -8 -4 -15 -10 -15 -5 0 -10 7
-10 15 0 8 5 15 10 15 6 0 10 -7 10 -15z"/>
<path d="M6632 1918 c2 -28 8 -34 31 -36 25 -3 27 -1 27 32 0 20 -4 36 -10 36
-5 0 -10 -11 -10 -25 0 -14 -4 -25 -10 -25 -5 0 -10 11 -10 25 0 14 -5 25 -11
25 -6 0 -9 -14 -7 -32z"/>
<path d="M6861 1936 c-21 -25 -4 -58 27 -54 23 2 27 8 27 33 0 23 -5 31 -21
33 -11 2 -26 -4 -33 -12z m39 -21 c0 -8 -4 -15 -9 -15 -13 0 -22 16 -14 24 11
11 23 6 23 -9z"/>
<path d="M6968 783 c15 -6 16 -35 0 -51 -9 -9 -5 -12 18 -11 16 0 23 3 17 6
-7 2 -13 15 -13 28 0 13 6 26 13 28 6 3 -1 5 -18 5 -16 0 -24 -2 -17 -5z"/>
<path d="M6410 684 c0 -38 18 -64 44 -64 26 0 36 17 36 61 0 18 -5 29 -14 29
-7 0 -13 -8 -13 -17 0 -39 -3 -53 -13 -53 -5 0 -10 16 -10 35 0 24 -5 35 -15
35 -9 0 -15 -10 -15 -26z"/>
<path d="M6671 691 c-8 -13 -8 -28 -1 -46 8 -21 16 -26 37 -23 14 2 28 9 31
16 3 9 -3 11 -22 6 -23 -5 -26 -3 -26 21 0 24 3 26 26 21 19 -5 25 -3 22 6 -8
22 -55 22 -67 -1z"/>
<path d="M6503 675 c-3 -9 2 -22 13 -31 17 -12 17 -13 2 -8 -10 3 -18 2 -18
-4 0 -6 26 -10 60 -10 34 0 60 4 60 10 0 6 -7 8 -15 5 -8 -4 -17 -2 -20 3 -4
6 3 10 15 10 15 0 20 5 18 18 -5 27 -43 27 -56 0 l-11 -23 0 23 c-1 26 -38 31
-48 7z"/>
<path d="M6759 688 c0 -2 -2 -18 -5 -35 -4 -31 -2 -33 27 -33 28 0 30 2 27 33
-2 24 -8 33 -25 35 -13 2 -23 2 -24 0z m31 -42 c0 -3 -4 -8 -10 -11 -5 -3 -10
-1 -10 4 0 6 5 11 10 11 6 0 10 -2 10 -4z"/>
<path d="M6823 675 c-3 -9 2 -22 13 -31 17 -12 17 -13 2 -8 -10 3 -18 2 -18
-4 0 -6 26 -10 60 -10 34 0 60 4 60 10 0 6 -7 8 -15 5 -8 -4 -17 -2 -20 3 -4
6 3 10 15 10 15 0 20 5 18 18 -5 25 -45 28 -53 3 -4 -13 -11 -18 -23 -14 -10
4 -12 8 -4 11 20 6 14 22 -8 22 -11 0 -23 -7 -27 -15z"/>
<path d="M6400 525 c0 -25 5 -45 10 -45 6 0 10 20 10 45 0 25 -4 45 -10 45 -5
0 -10 -20 -10 -45z"/>
<path d="M6656 558 c-9 -28 -1 -73 14 -76 12 -2 15 6 12 38 -4 41 -19 62 -26
38z"/>
<path d="M6730 525 c0 -25 5 -45 10 -45 6 0 10 7 10 15 0 8 6 15 14 15 20 0
37 25 30 44 -4 10 -18 16 -35 16 -28 0 -29 -2 -29 -45z m40 15 c0 -5 -4 -10
-10 -10 -5 0 -10 5 -10 10 0 6 5 10 10 10 6 0 10 -4 10 -10z"/>
<path d="M6930 560 c0 -5 -11 -10 -25 -10 -22 0 -25 -4 -25 -35 0 -19 5 -35
10 -35 6 0 10 11 10 25 0 16 6 25 15 25 9 0 15 -9 15 -25 0 -14 6 -25 13 -25
11 0 13 24 8 78 -1 14 -21 17 -21 2z"/>
<path d="M6430 515 c0 -19 5 -35 10 -35 6 0 10 9 10 19 0 11 5 23 10 26 6 4
10 -5 10 -19 0 -14 5 -26 10 -26 6 0 10 16 10 35 0 32 -2 35 -30 35 -28 0 -30
-3 -30 -35z"/>
<path d="M6510 498 c1 -44 3 -50 13 -37 7 8 20 18 30 22 13 5 17 15 15 34 -2
22 -9 29 -30 31 -27 3 -28 2 -28 -50z m40 17 c0 -8 -4 -15 -10 -15 -5 0 -10 7
-10 15 0 8 5 15 10 15 6 0 10 -7 10 -15z"/>
<path d="M6582 518 c2 -28 8 -34 31 -36 25 -3 27 -1 27 32 0 20 -4 36 -10 36
-5 0 -10 -11 -10 -25 0 -14 -4 -25 -10 -25 -5 0 -10 11 -10 25 0 14 -5 25 -11
25 -6 0 -9 -14 -7 -32z"/>
<path d="M6810 535 c-18 -21 -3 -55 25 -55 29 0 39 14 31 46 -7 27 -37 32 -56
9z m40 -20 c0 -8 -4 -15 -9 -15 -13 0 -22 16 -14 24 11 11 23 6 23 -9z"/>
</g>
</svg>
