<?xml version="1.0" standalone="no"?>
<!DOCTYPE svg PUBLIC "-//W3C//DTD SVG 20010904//EN"
 "http://www.w3.org/TR/2001/REC-SVG-20010904/DTD/svg10.dtd">
<svg version="1.0" xmlns="http://www.w3.org/2000/svg"
 width="279.000000pt" height="181.000000pt" viewBox="0 0 279.000000 181.000000"
 preserveAspectRatio="xMidYMid meet">

<g transform="translate(0.000000,181.000000) scale(0.100000,-0.100000)"
fill="#000000" stroke="none">
<path d="M998 1703 l-3 -78 -132 -3 -133 -3 0 -174 c0 -96 0 -299 0 -450 0
-151 0 -349 0 -440 l0 -165 525 0 525 0 0 620 0 620 -135 0 -135 0 0 75 0 75
-255 0 -254 0 -3 -77z m252 14 c0 -8 3 -7 9 1 12 19 46 10 45 -11 -1 -9 2 -17
7 -17 5 0 9 9 9 21 0 14 5 19 17 17 11 -2 18 -12 18 -28 0 -21 -5 -25 -30 -26
-16 -1 -33 4 -37 10 -6 8 -8 8 -8 -1 0 -8 -19 -12 -61 -10 -61 1 -77 11 -66
40 7 17 97 20 97 4z m-40 -434 c0 -5 35 -7 79 -7 l79 2 -7 -26 c-4 -14 -13
-28 -20 -30 -8 -3 -11 0 -7 7 4 6 2 19 -3 28 -9 16 -10 16 -11 2 0 -13 -12
-18 -46 -21 -25 -2 -48 1 -51 5 -3 5 -8 5 -12 -1 -8 -13 -51 4 -51 21 0 8 3
17 7 20 9 9 43 9 43 0z m-75 -463 c4 -6 11 -8 16 -4 5 3 16 0 24 -6 9 -7 15
-8 15 -2 0 16 109 9 120 -8 8 -13 10 -13 10 1 0 12 8 16 29 15 16 -1 33 -4 36
-8 4 -4 18 0 31 9 24 15 24 15 24 -16 0 -24 -4 -31 -20 -31 -11 0 -20 6 -20
13 0 8 -4 7 -10 -3 -8 -13 -10 -12 -11 5 -1 15 -2 16 -6 4 -6 -24 -143 -23
-144 0 0 12 -3 10 -9 -4 l-9 -20 -1 20 c-1 15 -3 17 -8 5 -9 -19 -103 -21
-110 -2 -10 31 27 59 43 32z"/>
<path d="M1170 1700 c0 -5 7 -7 15 -4 8 4 15 8 15 10 0 2 -7 4 -15 4 -8 0 -15
-4 -15 -10z"/>
<path d="M1180 1270 c0 -5 5 -10 11 -10 5 0 7 5 4 10 -3 6 -8 10 -11 10 -2 0
-4 -4 -4 -10z"/>
<path d="M1100 799 c0 -5 9 -9 20 -9 11 0 20 4 20 8 0 4 -9 8 -20 9 -11 1 -20
-2 -20 -8z"/>
<path d="M175 1285 c-32 -31 -32 -76 -2 -109 50 -56 147 -21 147 54 0 71 -94
107 -145 55z"/>
<path d="M2422 1255 c0 -16 2 -22 5 -12 2 9 2 23 0 30 -3 6 -5 -1 -5 -18z"/>
<path d="M30 915 l0 -315 205 0 205 0 0 315 0 315 -44 0 c-41 0 -45 -2 -51
-29 -14 -63 -90 -101 -154 -75 -37 14 -71 57 -71 88 0 12 -10 16 -45 16 l-45
0 0 -315z m165 182 c4 -8 23 -11 60 -10 64 3 82 -15 47 -48 -25 -23 -32 -24
-32 -4 0 15 -29 10 -41 -7 -3 -4 -15 1 -27 12 -12 11 -23 16 -27 10 -8 -13
-25 -13 -25 -1 0 5 4 21 10 35 10 28 28 34 35 13z"/>
<path d="M2339 1200 c-91 -16 -89 -12 -89 -169 l0 -139 33 -12 c18 -7 97 -14
182 -16 91 -2 138 0 120 5 -16 5 -23 9 -14 10 22 1 32 30 18 47 -9 12 -9 13 4
9 8 -4 18 -1 23 6 4 8 3 10 -4 5 -7 -4 -20 -2 -29 3 -17 10 -17 10 0 11 9 0
17 6 17 14 0 8 8 13 18 12 11 -1 17 6 17 19 0 13 -6 20 -17 19 -10 -1 -18 2
-18 7 0 5 4 9 8 9 5 0 9 7 9 15 0 8 -4 15 -9 15 -4 0 -8 -4 -8 -10 0 -5 -5
-10 -11 -10 -5 0 -8 4 -4 9 3 5 -2 16 -10 24 -13 13 -6 17 62 32 132 29 151
48 77 74 -46 16 -307 24 -375 11z m251 -164 c0 -3 -4 -8 -10 -11 -5 -3 -10 -1
-10 4 0 6 5 11 10 11 6 0 10 -2 10 -4z"/>
<path d="M2386 815 c-4 -10 1 -15 14 -15 13 0 18 5 14 15 -4 8 -10 15 -14 15
-4 0 -10 -7 -14 -15z"/>
<path d="M2376 145 c-11 -8 -15 -15 -9 -15 6 0 16 7 23 15 16 19 11 19 -14 0z"/>
<path d="M1801 74 c0 -11 3 -14 6 -6 3 7 2 16 -1 19 -3 4 -6 -2 -5 -13z"/>
</g>
</svg>
