<svg width="128" height="128" viewBox="0 0 128 128" fill="none" xmlns="http://www.w3.org/2000/svg">
<g clip-path="url(#clip0_1115_159)">
<path d="M64 128C99.3462 128 128 99.3462 128 64C128 28.6538 99.3462 0 64 0C28.6538 0 0 28.6538 0 64C0 99.3462 28.6538 128 64 128Z" fill="black"/>
<path d="M106.317 112.014L49.1669 38.3999H38.3999V89.5789H47.0139V49.3389L99.5539 117.223C101.921 115.638 104.181 113.898 106.317 112.014Z" fill="url(#paint0_linear_1115_159)"/>
<path d="M81.7781 38.3999H90.3111V89.5999H81.7781V38.3999Z" fill="url(#paint1_linear_1115_159)"/>
</g>
<defs>
<linearGradient id="paint0_linear_1115_159" x1="77.5109" y1="82.8442" x2="102.755" y2="114.133" gradientUnits="userSpaceOnUse">
<stop stop-color="white"/>
<stop offset="1" stop-color="white" stop-opacity="0"/>
</linearGradient>
<linearGradient id="paint1_linear_1115_159" x1="86.0444" y1="38.3998" x2="85.9015" y2="75.9998" gradientUnits="userSpaceOnUse">
<stop stop-color="white"/>
<stop offset="1" stop-color="white" stop-opacity="0"/>
</linearGradient>
<clipPath id="clip0_1115_159">
<rect width="128" height="128" fill="white"/>
</clipPath>
</defs>
</svg>
