<svg width="128" height="128" viewBox="0 0 128 128" fill="none" xmlns="http://www.w3.org/2000/svg">
<g clip-path="url(#clip0_1101_149)">
<path d="M119.517 51.188H79.291C78.8128 51.1879 78.3394 51.0936 77.8977 50.9105C77.456 50.7274 77.0547 50.4591 76.7167 50.1209C76.3787 49.7827 76.1106 49.3813 75.9278 48.9395C75.7449 48.4977 75.6509 48.0242 75.651 47.546V5.62004C75.653 4.8812 75.5089 4.14926 75.2269 3.46632C74.945 2.78338 74.5309 2.16292 74.0083 1.64062C73.4857 1.11832 72.865 0.704492 72.1819 0.422939C71.4988 0.141386 70.7668 -0.00233598 70.028 3.94024e-05H55.66C54.9209 -0.00273172 54.1885 0.140691 53.505 0.422055C52.8215 0.703418 52.2004 1.11717 51.6774 1.63949C51.1544 2.16182 50.7399 2.78241 50.4577 3.46555C50.1755 4.14869 50.0311 4.8809 50.033 5.62004V47.266C50.0346 47.7815 49.9343 48.2922 49.7379 48.7688C49.5415 49.2454 49.2529 49.6785 48.8887 50.0432C48.5244 50.4079 48.0917 50.6971 47.6154 50.8941C47.139 51.091 46.6284 51.192 46.113 51.191L32.925 51.238C30.749 51.238 28.953 49.488 28.999 47.312L29.093 5.62504C29.0955 4.88557 28.9517 4.1529 28.6698 3.46925C28.388 2.78559 27.9736 2.16445 27.4507 1.64161C26.9278 1.11877 26.3066 0.70455 25.6229 0.422815C24.9392 0.141081 24.2065 -0.00260303 23.467 3.94024e-05H9.09999C8.36066 -0.00207185 7.62821 0.141975 6.94475 0.423897C6.26128 0.70582 5.64028 1.12006 5.11745 1.64279C4.59462 2.16553 4.18027 2.78646 3.89823 3.46987C3.61619 4.15329 3.47201 4.88571 3.47399 5.62504V122.99C3.47399 125.727 5.69399 128 8.48399 128H119.517C120.845 127.998 122.119 127.47 123.057 126.53C123.996 125.591 124.524 124.317 124.525 122.989V56.195C124.529 55.5362 124.403 54.8832 124.152 54.2737C123.902 53.6642 123.534 53.1105 123.068 52.6447C122.602 52.1789 122.048 51.8103 121.438 51.5602C120.829 51.3102 120.176 51.1837 119.517 51.188ZM100.66 95.242C100.654 96.9708 99.9652 98.6271 98.7427 99.8494C97.5202 101.072 95.8637 101.761 94.135 101.766H82.791C81.0626 101.76 79.4067 101.071 78.1846 99.8487C76.9625 98.6265 76.2735 96.9704 76.268 95.242V83.9C76.2735 82.1716 76.9625 80.5156 78.1846 79.2933C79.4067 78.0711 81.0626 77.3818 82.791 77.376H94.134C95.8626 77.3813 97.5189 78.0702 98.7413 79.2923C99.9638 80.5144 100.653 82.1705 100.659 83.899L100.66 95.242Z" fill="#FF6600"/>
</g>
<defs>
<clipPath id="clip0_1101_149">
<rect width="128" height="128" fill="white"/>
</clipPath>
</defs>
</svg>
