<svg width="75" height="75" viewBox="0 0 75 75" fill="none" xmlns="http://www.w3.org/2000/svg">
<path d="M62.5 37.5001V32.1657C62.5 18.2845 51.6281 6.66261 38.2656 6.25948C31.3781 6.10011 24.9812 8.55948 20.0906 13.3095C17.6795 15.6324 15.7639 18.4196 14.4593 21.503C13.1547 24.5864 12.4882 27.9021 12.5 31.2501V37.5001C9.05312 37.5001 6.25 40.3032 6.25 43.7501V56.2501C6.25 59.697 9.05312 62.5001 12.5 62.5001H18.75V31.2501C18.7408 28.7392 19.2403 26.2523 20.2183 23.9396C21.1963 21.627 22.6326 19.5363 24.4406 17.7939C26.241 16.0413 28.3765 14.67 30.7192 13.762C33.0619 12.854 35.5638 12.428 38.075 12.5095C48.1 12.8095 56.25 21.6282 56.25 32.1657V62.5001H62.5C65.9468 62.5001 68.75 59.697 68.75 56.2501V43.7501C68.75 40.3032 65.9468 37.5001 62.5 37.5001Z" fill="#0B84BA"/>
<path d="M21.875 37.5H28.125V62.5H21.875V37.5ZM46.875 37.5H53.125V62.5H46.875V37.5Z" fill="#0B84BA"/>
</svg>
