<svg width="256" height="288" viewBox="0 0 256 288" fill="none" xmlns="http://www.w3.org/2000/svg">
<g clip-path="url(#clip0_1103_151)">
<path d="M0 143.82C0 156.26 1.744 168.261 4.71 179.776H179.777C199.633 179.776 215.732 163.676 215.732 143.82C215.732 123.955 199.632 107.865 179.777 107.865H4.71C1.744 119.371 0 131.38 0 143.82Z" fill="#343741"/>
<path d="M242.013 68.863C247.038 64.234 251.713 59.263 256 53.933C229.636 21.079 189.213 0 143.82 0C87 0 38.101 33.052 14.775 80.9H211.334C222.714 80.9 233.653 76.576 242.012 68.863" fill="#FEC514"/>
<path d="M211.334 206.742H14.774C38.11 254.581 87 287.642 143.819 287.642C189.212 287.642 229.635 266.554 255.999 233.709C251.717 228.386 247.041 223.392 242.012 218.769C233.652 211.048 222.713 206.742 211.334 206.742Z" fill="#00BFB3"/>
</g>
<defs>
<clipPath id="clip0_1103_151">
<rect width="256" height="288" fill="white"/>
</clipPath>
</defs>
</svg>
