<svg width="256" height="230" viewBox="0 0 256 230" fill="none" xmlns="http://www.w3.org/2000/svg">
<path d="M157.98 142.487L153.07 151.014C152.343 152.276 151.297 153.324 150.036 154.053C148.775 154.781 147.344 155.165 145.888 155.165H108.27C106.814 155.165 105.383 154.781 104.122 154.053C102.861 153.324 101.815 152.276 101.088 151.014L96.177 142.487H157.98ZM171.727 118.617L163.069 133.651H91.089L82.431 118.617H171.727ZM163.387 95.275L171.741 109.781H82.417L90.771 95.275H163.387ZM145.887 73.209C147.343 73.2087 148.774 73.5923 150.035 74.3211C151.296 75.0498 152.343 76.098 153.07 77.36L158.298 86.439H95.86L101.089 77.36C101.816 76.0981 102.862 75.05 104.123 74.3213C105.384 73.5926 106.815 73.2089 108.271 73.209H145.887Z" fill="#00435B"/>
<path d="M53.523 69.2518C49.356 49.0458 48.461 33.5478 51.155 22.2948C52.757 15.6018 55.685 10.1418 60.139 6.20176C64.841 2.04276 70.785 0.00175734 77.465 0.00175734C88.483 0.00175734 100.067 5.02676 112.445 14.5718C117.495 18.4658 122.735 23.1588 128.177 28.6538C128.611 28.0968 129.1 27.5708 129.646 27.0838C145.032 13.3738 157.986 4.85376 169.066 1.56976C175.654 -0.384243 181.839 -0.570243 187.471 1.32576C193.417 3.32576 198.154 7.46276 201.497 13.2558C207.013 22.8168 208.467 35.3798 206.411 50.8928C205.573 57.2158 204.14 64.1028 202.115 71.5658C202.879 71.6578 203.645 71.8278 204.403 72.0788C223.924 78.5488 237.748 85.5048 246.117 93.4558C251.097 98.1858 254.348 103.452 255.524 109.282C256.764 115.435 255.554 121.606 252.216 127.395C246.71 136.943 236.586 144.472 222.164 150.436C216.374 152.831 209.821 155 202.5 156.951C202.834 157.705 203.094 158.506 203.267 159.346C207.434 179.552 208.328 195.05 205.635 206.303C204.033 212.996 201.104 218.456 196.65 222.396C191.949 226.555 186.004 228.596 179.325 228.596C168.306 228.596 156.723 223.571 144.345 214.026C139.241 210.09 133.943 205.339 128.438 199.768C127.859 200.673 127.157 201.495 126.354 202.21C110.968 215.922 98.014 224.44 86.934 227.725C80.346 229.679 74.161 229.865 68.529 227.969C62.583 225.969 57.846 221.832 54.503 216.039C48.987 206.478 47.533 193.915 49.589 178.402C50.458 171.851 51.965 164.693 54.107 156.917C53.2533 156.83 52.4116 156.65 51.597 156.38C32.076 149.91 18.252 142.954 9.88305 135.003C4.90305 130.273 1.65205 125.007 0.476047 119.177C-0.763953 113.024 0.446047 106.852 3.78405 101.063C9.29005 91.5158 19.414 83.9858 33.836 78.0228C39.799 75.5558 46.57 73.3298 54.156 71.3338C53.8814 70.6607 53.6695 69.9638 53.523 69.2518Z" fill="#002B3B"/>
<path d="M189.647 161.333C190.579 161.168 191.538 161.367 192.327 161.891C193.115 162.414 193.672 163.22 193.882 164.143L193.905 164.255L194.112 165.33C200.822 200.606 196.095 218.245 179.932 218.245C164.119 218.245 143.988 203.194 119.54 173.092C119.106 172.557 118.83 171.911 118.745 171.227C118.659 170.543 118.767 169.849 119.056 169.224C119.346 168.598 119.805 168.066 120.381 167.689C120.957 167.311 121.628 167.102 122.317 167.087H122.431L123.719 167.096C134.007 167.152 144.008 166.793 153.723 166.02C165.19 165.107 177.165 163.545 189.647 161.333ZM78.646 134.667L78.708 134.772L79.354 135.899C84.531 144.899 89.924 153.441 95.534 161.526C102.142 171.046 109.572 180.684 117.824 190.44C118.437 191.164 118.746 192.096 118.689 193.043C118.631 193.989 118.211 194.877 117.515 195.522L117.422 195.605L116.592 196.32C89.285 219.717 71.537 224.388 63.348 210.332C55.331 196.575 58.238 171.559 72.067 135.285C72.3119 134.642 72.7317 134.081 73.2791 133.665C73.8265 133.248 74.4795 132.994 75.1643 132.929C75.849 132.865 76.538 132.994 77.1534 133.301C77.7687 133.608 78.2858 134.081 78.646 134.667ZM203.503 82.6128L203.615 82.6498L204.643 83.0038C238.348 94.7288 251.153 107.614 243.059 121.659C235.143 135.395 212.129 145.397 174.018 151.663C173.327 151.777 172.618 151.691 171.975 151.416C171.331 151.142 170.778 150.689 170.383 150.112C169.987 149.535 169.763 148.856 169.739 148.157C169.715 147.457 169.89 146.765 170.245 146.162C175.703 136.876 180.62 127.638 184.994 118.445C189.954 108.02 194.609 96.8288 198.959 84.8748C199.275 84.006 199.906 83.2876 200.727 82.8625C201.548 82.4373 202.499 82.3365 203.391 82.5798L203.503 82.6128ZM84.446 76.7098C84.8631 76.9548 85.2279 77.2796 85.5195 77.6656C85.8111 78.0516 86.0238 78.4913 86.1455 78.9595C86.2671 79.4277 86.2954 79.9153 86.2285 80.3944C86.1617 80.8735 86.0011 81.3348 85.756 81.7518C80.296 91.0368 75.38 100.276 71.006 109.469C66.046 119.894 61.391 131.084 57.041 143.039C56.718 143.927 56.0664 144.656 55.2207 145.077C54.3751 145.498 53.4 145.578 52.497 145.301L52.385 145.264L51.357 144.909C17.652 133.185 4.84701 120.299 12.941 106.255C20.857 92.5178 43.871 82.5168 81.982 76.2508C82.832 76.1108 83.704 76.2728 84.446 76.7098ZM192.652 18.9618C200.669 32.7198 197.762 57.7358 183.933 94.0098C183.688 94.6525 183.268 95.2138 182.721 95.6301C182.174 96.0464 181.52 96.3012 180.836 96.3655C180.151 96.4298 179.462 96.3011 178.847 95.994C178.231 95.6869 177.714 95.2137 177.354 94.6278L177.292 94.5228L176.646 93.3958C171.469 84.3958 166.076 75.8538 160.466 67.7688C153.858 58.2488 146.428 48.6108 138.176 38.8548C137.563 38.1308 137.254 37.1985 137.311 36.2519C137.369 35.3053 137.789 34.4173 138.485 33.7728L138.578 33.6898L139.408 32.9748C166.715 9.57784 184.463 4.90684 192.652 18.9618ZM77.45 10.5898C93.264 10.5898 113.395 25.6398 137.842 55.7418C138.276 56.2769 138.552 56.923 138.637 57.6068C138.723 58.2906 138.615 58.9846 138.326 59.6101C138.036 60.2356 137.577 60.7674 137.001 61.1451C136.425 61.5228 135.754 61.7313 135.065 61.7468H134.951L133.663 61.7388C123.376 61.6828 113.374 62.0418 103.66 62.8148C92.192 63.7278 80.217 65.2898 67.735 67.5018C66.8035 67.6667 65.8442 67.4668 65.056 66.9437C64.2677 66.4206 63.711 65.6143 63.501 64.6918L63.477 64.5788L63.27 63.5048C56.56 28.2278 61.286 10.5898 77.45 10.5898Z" fill="#FF4154"/>
<path d="M111.295 73.6699H142.871C145.14 73.6698 147.368 74.2684 149.331 75.4053C151.295 76.5423 152.923 78.1772 154.052 80.1449L169.907 107.771C171.028 109.724 171.618 111.936 171.618 114.188C171.618 116.44 171.028 118.652 169.907 120.605L154.052 148.231C152.923 150.199 151.294 151.833 149.331 152.97C147.368 154.107 145.14 154.706 142.871 154.706H111.295C106.677 154.706 102.412 152.236 100.113 148.231L84.26 120.605C83.1393 118.652 82.5495 116.44 82.5495 114.188C82.5495 111.936 83.1393 109.724 84.26 107.771L100.114 80.1449C101.243 78.1772 102.872 76.5423 104.835 75.4054C106.799 74.2685 109.026 73.6698 111.295 73.6699ZM138.059 82.0079C142.679 82.0079 146.947 84.4809 149.244 88.4889L160.3 107.777C161.419 109.728 162.007 111.939 162.007 114.188C162.007 116.437 161.419 118.647 160.3 120.599L149.244 139.887C148.115 141.856 146.486 143.492 144.522 144.63C142.558 145.768 140.329 146.367 138.059 146.367H116.109C111.489 146.367 107.221 143.895 104.924 139.887L93.868 120.599C92.7495 118.647 92.161 116.437 92.161 114.188C92.161 111.939 92.7495 109.728 93.868 107.777L104.924 88.4889C106.053 86.5199 107.681 84.8839 109.645 83.746C111.609 82.6082 113.838 82.009 116.108 82.0089L138.059 82.0079ZM132.872 91.1279H121.296C119.028 91.1279 116.801 91.726 114.838 92.862C112.875 93.9979 111.247 95.6315 110.117 97.5979L104.275 107.765C103.152 109.719 102.561 111.934 102.561 114.188C102.561 116.442 103.152 118.657 104.275 120.611L110.117 130.779C111.247 132.745 112.875 134.379 114.838 135.515C116.801 136.651 119.028 137.249 121.296 137.249H132.872C137.488 137.249 141.752 134.781 144.051 130.779L149.893 120.611C151.016 118.657 151.607 116.442 151.607 114.188C151.607 111.934 151.016 109.719 149.893 107.765L144.051 97.5969C142.921 95.6305 141.293 93.9969 139.33 92.861C137.367 91.725 135.14 91.1279 132.872 91.1279ZM127.878 99.8559C132.49 99.8559 136.751 102.32 139.051 106.316L139.88 107.756C141.006 109.712 141.599 111.93 141.599 114.187C141.599 116.444 141.006 118.662 139.88 120.618L139.051 122.058C137.921 124.022 136.293 125.653 134.331 126.787C132.37 127.921 130.144 128.518 127.878 128.518H126.29C124.024 128.518 121.798 127.921 119.837 126.787C117.875 125.653 116.247 124.022 115.117 122.058L114.288 120.618C113.162 118.662 112.569 116.444 112.569 114.187C112.569 111.93 113.162 109.712 114.288 107.756L115.117 106.316C116.247 104.352 117.875 102.721 119.837 101.587C121.798 100.453 124.024 99.8559 126.29 99.8559H127.878ZM127.086 108.455C126.079 108.454 125.09 108.719 124.217 109.222C123.345 109.725 122.62 110.449 122.116 111.321C121.613 112.192 121.348 113.181 121.348 114.187C121.348 115.193 121.613 116.182 122.116 117.053C122.62 117.925 123.344 118.649 124.216 119.152C125.088 119.656 126.078 119.921 127.085 119.921C128.091 119.921 129.081 119.656 129.953 119.152C130.825 118.649 131.549 117.925 132.053 117.053C132.556 116.182 132.821 115.193 132.821 114.187C132.821 113.181 132.556 112.192 132.053 111.321C131.549 110.449 130.825 109.726 129.953 109.223C129.082 108.72 128.093 108.455 127.086 108.455ZM80.577 114.187H90.897Z" fill="#FFD94C"/>
</svg>
