<svg width="200" height="200" viewBox="0 0 200 200" fill="none" xmlns="http://www.w3.org/2000/svg">
<path d="M36.25 153.75L37.3125 152.269L87.4375 57.1812L87.5437 56.175L65.45 14.675C65.0455 13.9161 64.4127 13.3036 63.641 12.9241C62.8692 12.5447 61.9978 12.4175 61.1498 12.5606C60.3018 12.7036 59.5203 13.1097 58.9158 13.7213C58.3113 14.3329 57.9144 15.1192 57.7812 15.9687L36.25 153.75Z" fill="#FFC24A"/>
<path d="M36.875 152.625L37.675 151.062L87.2813 56.9624L65.2438 15.2999C64.8803 14.5754 64.2919 13.9881 63.5667 13.626C62.8415 13.264 62.0185 13.1467 61.2209 13.2917C60.4234 13.4367 59.6944 13.8362 59.143 14.4304C58.5916 15.0245 58.2476 15.7813 58.1625 16.5874L36.875 152.625Z" fill="#FFA712"/>
<path d="M103.65 87.5626L120.1 70.6876L103.644 39.3063C103.282 38.6309 102.743 38.0664 102.085 37.6729C101.428 37.2794 100.676 37.0715 99.9094 37.0715C99.143 37.0715 98.391 37.2794 97.7334 37.6729C97.0757 38.0664 96.5372 38.6309 96.175 39.3063L87.3812 56.0688V57.5001L103.65 87.5626Z" fill="#F4BD62"/>
<path d="M103.356 86.8749L119.35 70.4999L103.356 39.9999C103.094 39.3397 102.647 38.7693 102.069 38.3575C101.49 37.9457 100.805 37.7101 100.095 37.6791C99.3856 37.648 98.6822 37.8229 98.0698 38.1825C97.4574 38.5422 96.9622 39.0714 96.6437 39.7062L87.8062 56.7624L87.5437 57.6312L103.356 86.8749Z" fill="#FFA50E"/>
<path d="M36.2625 153.756L36.7437 153.269L38.4875 152.563L102.612 88.6751L103.425 86.4626L87.4312 55.9751L36.2625 153.756V153.756Z" fill="#F6820C"/>
<path d="M105.7 185.975L163.75 153.606L147.162 51.5375C147.044 50.818 146.729 50.1451 146.252 49.5928C145.776 49.0405 145.157 48.6301 144.463 48.4067C143.769 48.1832 143.026 48.1554 142.317 48.3262C141.608 48.4971 140.96 48.8599 140.444 49.375L36.25 153.75L93.9562 185.969C95.7503 186.97 97.7706 187.495 99.825 187.495C101.879 187.495 103.9 186.97 105.694 185.969" fill="#FDE068"/>
<path d="M163.219 153.338L146.769 52.0376C146.74 51.3494 146.507 50.6852 146.101 50.1293C145.694 49.5733 145.131 49.1504 144.484 48.9142C143.837 48.678 143.135 48.6391 142.466 48.8023C141.796 48.9656 141.191 49.3237 140.725 49.8313L36.875 153.556L93.9438 185.431C95.7235 186.424 97.7276 186.945 99.7656 186.945C101.804 186.945 103.808 186.424 105.587 185.431L163.219 153.338Z" fill="#FCCA3F"/>
<path d="M105.7 185C103.906 186.001 101.886 186.527 99.8312 186.527C97.7768 186.527 95.7565 186.001 93.9625 185L36.725 153.262L36.25 153.75L93.9562 185.969C95.7503 186.97 97.7706 187.495 99.825 187.495C101.879 187.495 103.9 186.97 105.694 185.969L163.75 153.606L163.606 152.731L105.7 185Z" fill="#EEAB37"/>
</svg>
