<svg width="262" height="262" viewBox="0 0 262 262" fill="none" xmlns="http://www.w3.org/2000/svg">
<path d="M207.537 236.414C174.402 236.414 161.785 227.752 161.785 213.26C161.689 210.871 162.066 208.487 162.896 206.245C163.725 204.003 164.991 201.947 166.619 200.196C168.247 198.446 170.206 197.035 172.382 196.045C174.558 195.055 176.908 194.506 179.298 194.429V192.357C175.614 191.531 172.336 189.441 170.032 186.45C167.729 183.459 166.546 179.755 166.689 175.982C166.689 165.813 175.343 160.729 184.751 158.658V157.904C179.216 155.517 174.539 151.499 171.345 146.387C168.15 141.275 166.589 135.311 166.869 129.289C166.869 109.328 180.993 95.9659 207.537 95.9659C213.34 95.8668 219.122 96.6932 224.665 98.4139V95.2208C224.381 93.3087 224.543 91.357 225.137 89.5175C225.731 87.6781 226.741 86.0005 228.09 84.6156C229.438 83.2307 231.088 82.1757 232.911 81.5328C234.734 80.8899 236.681 80.6764 238.6 80.9091H253.853V99.3555H232.951V101.992C237.803 104.647 241.808 108.617 244.506 113.445C247.204 118.274 248.486 123.765 248.204 129.289C248.204 149.062 234.269 162.235 207.537 162.235C202.464 162.306 197.402 161.737 192.472 160.541C190.562 161.155 188.879 162.326 187.64 163.903C186.4 165.479 185.659 167.391 185.512 169.391C185.512 174.287 189.655 176.736 198.318 176.736H224.665C248.761 176.736 259.118 187.093 259.118 204.786C259.118 225.304 245.199 236.414 207.537 236.414ZM219.777 197.63H186.266C184.647 198.776 183.337 200.304 182.45 202.078C181.563 203.851 181.127 205.817 181.181 207.799C181.181 215.331 186.83 219.843 201.895 219.843H213.939C229.569 219.843 236.537 215.888 236.537 207.611C236.537 201.388 232.009 197.63 219.777 197.63ZM225.238 130.795V127.594C225.238 117.614 219.024 112.529 207.537 112.529C196.05 112.529 189.835 117.605 189.835 127.594V130.787C189.835 140.58 196.058 145.852 207.537 145.852C219.016 145.852 225.238 140.58 225.238 130.787V130.795ZM18.2908 65.0908H46.3411L80.0409 129.289H80.7941L114.117 65.0908H141.054V196.5H117.507V102.18H116.762L106.593 123.075L79.6643 172.773L52.7438 123.075L42.5831 102.18H41.8216V196.5H18.2908V65.0908Z" fill="#880000"/>
</svg>
