<svg width="325" height="324" viewBox="0 0 325 324" fill="none" xmlns="http://www.w3.org/2000/svg">
<path d="M162.468 187.049C176.447 187.049 187.78 175.717 187.78 161.737C187.78 147.757 176.447 136.424 162.468 136.424C148.488 136.424 137.155 147.757 137.155 161.737C137.155 175.717 148.488 187.049 162.468 187.049Z" fill="#00D8FF"/>
<path d="M162.468 219.773C132.043 220.509 101.695 216.408 72.5575 207.623C59.0976 203.357 46.5437 196.635 35.5304 187.799C31.3278 184.78 27.828 180.888 25.2712 176.389C22.7143 171.891 21.1609 166.892 20.7175 161.737C20.7175 145 39.1045 128.598 69.9048 117.865C99.8215 108.355 131.079 103.746 162.468 104.217C193.437 103.784 224.276 108.31 253.815 117.622C266.778 121.755 278.906 128.151 289.638 136.516C293.768 139.393 297.216 143.145 299.735 147.503C302.255 151.862 303.785 156.721 304.218 161.737C304.218 179.132 283.664 196.759 250.555 207.715C221.982 216.213 192.274 220.28 162.468 219.773V219.773ZM162.468 116.326C132.438 115.925 102.536 120.306 73.8839 129.307C45.5339 139.199 32.827 152.726 32.827 161.707C32.827 171.103 46.4857 185.875 76.4759 196.132C104.351 204.493 133.374 208.386 162.468 207.664C190.984 208.174 219.41 204.315 246.758 196.223C277.893 185.905 292.068 171.113 292.068 161.737C291.557 158.519 290.384 155.443 288.624 152.702C286.864 149.96 284.554 147.614 281.841 145.81C272.24 138.39 261.406 132.721 249.836 129.064C221.578 120.192 192.083 115.892 162.468 116.326V116.326Z" fill="#00D8FF"/>
<path d="M104.957 287.985C100.234 288.094 95.5666 286.948 91.4305 284.664C76.9315 276.301 71.9095 252.183 77.9946 220.138C84.7039 189.47 96.329 160.089 112.42 133.134C127.513 106.091 146.836 81.6369 169.656 60.6993C179.712 51.5332 191.312 44.2213 203.919 39.1027C208.479 36.9657 213.453 35.8579 218.489 35.8579C223.525 35.8579 228.499 36.9657 233.059 39.1027C248.135 47.7899 253.127 74.3984 246.09 108.55C239.173 137.554 227.85 165.325 212.515 190.897C197.953 217.62 179.238 241.861 157.071 262.713C146.65 272.239 134.556 279.753 121.4 284.877C116.134 286.832 110.574 287.883 104.957 287.985V287.985ZM122.909 139.148C107.561 164.96 96.4187 193.05 89.9016 222.365C84.3025 251.88 89.6789 269.629 97.4954 274.144C105.595 278.832 125.258 274.387 149.133 253.53C170.294 233.553 188.157 210.349 202.056 184.781C216.747 160.335 227.609 133.783 234.264 106.049C240.886 73.9023 235.165 54.2193 227.045 49.5415C224.001 48.3754 220.749 47.8534 217.493 48.0085C214.238 48.1636 211.05 48.9925 208.131 50.4427C196.909 55.0733 186.593 61.6473 177.655 69.8624C155.853 89.9179 137.395 113.328 122.98 139.209L122.909 139.148Z" fill="#00D8FF"/>
<path d="M219.947 288.117C206.228 288.117 188.803 279.814 170.659 264.212C147.439 243.084 127.789 218.339 112.47 190.937C96.5814 164.353 85.0484 135.397 78.3085 105.168C75.3855 91.8691 74.8439 78.1568 76.7087 64.6684C77.1399 59.6647 78.6635 54.8165 81.1722 50.4657C83.6808 46.1149 87.1135 42.3674 91.228 39.4875C106.284 30.7699 131.829 39.7305 157.901 62.8763C179.575 83.3509 197.98 107.028 212.475 133.083C228.354 159.047 240.008 187.368 247.001 216.989C250.05 230.776 250.52 245.009 248.388 258.967C247.881 264.115 246.267 269.092 243.656 273.557C241.045 278.022 237.499 281.87 233.261 284.836C229.193 287.091 224.598 288.224 219.947 288.117V288.117ZM122.95 184.842C137.645 211.03 156.416 234.711 178.556 254.998C201.327 274.59 219.39 278.802 227.156 274.236C235.256 269.527 241.23 250.31 235.074 219.216C228.329 190.937 217.151 163.903 201.955 139.117C188.123 114.181 170.555 91.5084 149.862 71.8875C125.319 50.0985 105.413 45.2284 97.303 49.9264C94.7752 51.9806 92.7008 54.5365 91.2108 57.4329C89.7208 60.3293 88.8475 63.5032 88.6461 66.7541C87.0363 78.7835 87.5607 91.0025 90.1952 102.85C96.6783 131.758 107.739 159.445 122.96 184.862L122.95 184.842Z" fill="#00D8FF"/>
</svg>
