<svg width="181" height="181" viewBox="0 0 181 181" fill="none" xmlns="http://www.w3.org/2000/svg">
<path d="M32.8063 139.144L33.7678 137.803L79.131 51.7491L79.2271 50.8385L59.2323 13.281C58.8662 12.5942 58.2935 12.0398 57.5951 11.6964C56.8967 11.353 56.108 11.2379 55.3406 11.3674C54.5732 11.4968 53.8659 11.8643 53.3188 12.4179C52.7717 12.9714 52.4125 13.6829 52.2921 14.4518L32.8063 139.144Z" fill="#FFC24A"/>
<path d="M33.3718 138.126L34.0958 136.712L78.9895 51.5511L59.0455 13.8466C58.7167 13.1908 58.1841 12.6594 57.5278 12.3317C56.8715 12.0041 56.1266 11.8979 55.4049 12.0291C54.6832 12.1603 54.0234 12.5219 53.5244 13.0596C53.0254 13.5973 52.714 14.2822 52.637 15.0117L33.3718 138.126Z" fill="#FFA712"/>
<path d="M93.8033 79.2439L108.691 63.9721L93.7976 35.572C93.4699 34.9608 92.9824 34.45 92.3873 34.0938C91.7922 33.7376 91.1116 33.5496 90.418 33.5496C89.7245 33.5496 89.0439 33.7376 88.4488 34.0938C87.8536 34.45 87.3662 34.9608 87.0384 35.572L79.0801 50.7421V52.0374L93.8033 79.2439Z" fill="#F4BD62"/>
<path d="M93.5374 78.6219L108.012 63.8025L93.5374 36.2C93.3005 35.6025 92.8958 35.0863 92.3721 34.7136C91.8485 34.341 91.2282 34.1277 90.5861 34.0996C89.9439 34.0715 89.3074 34.2298 88.7532 34.5553C88.199 34.8808 87.7507 35.3596 87.4626 35.9341L79.4646 51.3701L79.2271 52.1563L93.5374 78.6219Z" fill="#FFA50E"/>
<path d="M32.8176 139.15L33.2532 138.708L34.8313 138.069L92.8644 80.251L93.5997 78.2487L79.1253 50.6575L32.8176 139.15V139.15Z" fill="#F6820C"/>
<path d="M95.6585 168.307L148.194 139.014L133.182 46.6414C133.074 45.9902 132.79 45.3813 132.359 44.8814C131.928 44.3816 131.367 44.0102 130.739 43.808C130.111 43.6058 129.439 43.5806 128.797 43.7352C128.155 43.8898 127.569 44.2182 127.102 44.6843L32.8063 139.144L85.0304 168.302C86.654 169.208 88.4824 169.683 90.3416 169.683C92.2009 169.683 94.0293 169.208 95.6529 168.302" fill="#FDE068"/>
<path d="M147.713 138.77L132.826 47.0939C132.799 46.471 132.589 45.87 132.221 45.3668C131.853 44.8637 131.344 44.481 130.758 44.2672C130.173 44.0534 129.537 44.0182 128.931 44.1659C128.326 44.3137 127.777 44.6378 127.356 45.0972L33.3718 138.968L85.019 167.815C86.6297 168.714 88.4435 169.185 90.2878 169.185C92.1322 169.185 93.9459 168.714 95.5566 167.815L147.713 138.77Z" fill="#FCCA3F"/>
<path d="M95.6585 167.425C94.0349 168.331 92.2066 168.806 90.3473 168.806C88.488 168.806 86.6597 168.331 85.0361 167.425L33.2361 138.702L32.8063 139.144L85.0304 168.302C86.654 169.208 88.4824 169.683 90.3416 169.683C92.2009 169.683 94.0293 169.208 95.6529 168.302L148.194 139.014L148.064 138.222L95.6585 167.425Z" fill="#EEAB37"/>
</svg>
