<svg width="194" height="200" viewBox="0 0 194 200" fill="none" xmlns="http://www.w3.org/2000/svg">
<g clip-path="url(#clip0_632_188)">
<path d="M193.188 119.762C192.025 116.24 188.979 113.787 185.04 113.198C183.182 112.921 181.055 113.039 178.537 113.558C174.15 114.464 170.894 114.808 168.518 114.875C177.486 99.7349 184.778 82.4697 188.975 66.2174C195.763 39.9379 192.136 27.9659 187.897 22.5508C176.68 8.21743 160.314 0.517433 140.57 0.281827C130.037 0.153039 120.791 2.23258 115.968 3.72804C111.477 2.93562 106.648 2.49319 101.581 2.41137C92.0836 2.25986 83.692 4.33031 76.5215 8.58562C72.5518 7.24319 66.1806 5.35077 58.823 4.14319C41.5185 1.30228 27.5715 3.51592 17.37 10.7227C5.01697 19.4485 -0.709544 34.6091 0.349547 55.7833C0.68591 62.5061 4.44652 82.9606 10.3677 102.359C13.7708 113.509 17.3995 122.768 21.1533 129.882C26.4768 139.969 32.173 145.909 38.5677 148.042C42.1518 149.236 48.6639 150.073 55.5132 144.368C56.3814 145.42 57.5397 146.464 59.0768 147.435C61.0291 148.666 63.4162 149.672 65.8003 150.268C74.392 152.416 82.4397 151.879 89.3056 148.868C89.348 150.089 89.3806 151.256 89.4079 152.264C89.4533 153.898 89.4988 155.5 89.5586 156.998C89.9655 167.13 90.6549 175.008 92.6973 180.52C92.8094 180.823 92.9602 181.286 93.1192 181.776C94.1382 184.895 95.842 190.118 100.177 194.208C104.665 198.445 110.095 199.745 115.068 199.745C117.562 199.745 119.941 199.417 122.028 198.97C129.468 197.376 137.917 194.947 144.029 186.244C149.808 178.017 152.617 165.625 153.125 146.1C153.191 145.548 153.252 145.02 153.31 144.518L153.431 143.486L154.793 143.606L155.143 143.63C162.721 143.975 171.986 142.368 177.676 139.725C182.172 137.639 196.581 130.032 193.188 119.762" fill="black"/>
<path d="M180.232 121.759C157.702 126.407 156.153 118.779 156.153 118.779C179.94 83.481 189.885 38.6757 181.304 27.7098C157.892 -2.20312 117.365 11.9439 116.689 12.3105L116.472 12.3499C112.02 11.4257 107.039 10.8757 101.44 10.784C91.2458 10.6173 83.5124 13.4567 77.6442 17.9067C77.6442 17.9067 5.34879 -11.8766 8.71167 55.3643C9.42682 69.6689 29.2147 163.601 52.8162 135.229C61.4427 124.854 69.7783 116.082 69.7783 116.082C73.9177 118.832 78.8738 120.236 84.0692 119.732L84.473 119.389C84.3473 120.677 84.4049 121.937 84.6344 123.429C78.5541 130.222 80.3412 131.414 68.1867 133.917C55.8874 136.451 63.1124 140.964 67.8299 142.144C73.5488 143.573 86.7791 145.599 95.7185 133.085L95.3624 134.513C97.7442 136.421 99.417 146.924 99.1367 156.446C98.8564 165.967 98.6692 172.504 100.546 177.611C102.424 182.717 104.294 194.205 120.273 190.782C133.624 187.92 140.543 180.506 141.506 168.138C142.188 159.345 143.734 160.645 143.831 152.784L145.072 149.063C146.501 137.144 145.299 133.298 153.524 135.087L155.524 135.263C161.577 135.538 169.501 134.289 174.152 132.127C184.165 127.48 190.105 119.72 180.231 121.759H180.232" fill="#336791"/>
<path d="M81.8761 61.7614C79.8457 61.4788 78.0071 61.7401 77.0768 62.4447C76.5541 62.8409 76.392 63.3 76.348 63.6159C76.2314 64.453 76.8177 65.3788 77.1783 65.856C78.198 67.2076 79.6874 68.1364 81.1617 68.3409C81.3753 68.3712 81.5882 68.3848 81.7995 68.3848C84.2579 68.3848 86.4935 66.4704 86.6904 65.0576C86.9367 63.2879 84.3677 62.1083 81.8761 61.7621M149.137 61.8174C148.943 60.4303 146.475 60.0348 144.132 60.3606C141.793 60.6864 139.525 61.7424 139.714 63.1326C139.865 64.2136 141.818 66.0591 144.128 66.0591C144.324 66.0591 144.521 66.0462 144.719 66.0182C146.262 65.8045 147.393 64.825 147.931 64.2606C148.75 63.4 149.224 62.4409 149.137 61.8174" fill="white"/>
<path d="M187.729 121.231C186.87 118.633 184.105 117.798 179.511 118.746C165.871 121.561 160.986 119.611 159.382 118.43C169.984 102.279 178.706 82.7544 183.412 64.5385C185.64 55.9097 186.872 47.8961 186.972 41.3643C187.084 34.1954 185.862 28.9272 183.344 25.709C173.191 12.7355 158.29 5.77642 140.252 5.58551C127.851 5.44611 117.374 8.6196 115.343 9.51202C111.065 8.44839 106.403 7.79536 101.326 7.71202C92.017 7.56126 83.97 9.79005 77.3079 14.3332C74.4139 13.256 66.9352 10.6885 57.7889 9.21505C41.9768 6.6696 29.4117 8.59839 20.445 14.9507C9.74576 22.531 4.80636 36.081 5.76318 55.2234C6.08515 61.6635 9.75485 81.4757 15.5458 100.449C23.1685 125.422 31.4548 139.559 40.173 142.467C41.1935 142.807 42.37 143.045 43.6677 143.045C46.848 143.045 50.7473 141.612 54.8041 136.735C59.7522 130.799 64.8708 125.007 70.1533 119.367C73.5806 121.206 77.3458 122.233 81.1965 122.336C81.2041 122.437 81.2139 122.538 81.223 122.638C80.5602 123.428 79.9111 124.23 79.2761 125.043C76.6079 128.43 76.0526 129.136 67.4639 130.904C65.0208 131.408 58.5321 132.745 58.4367 137.294C58.3336 142.264 66.1071 144.351 66.9927 144.572C70.0791 145.345 73.0526 145.726 75.8882 145.726C82.7844 145.726 88.8533 143.459 93.7033 139.073C93.5541 156.79 94.2927 174.248 96.42 179.567C98.1624 183.921 102.418 194.563 115.862 194.562C117.835 194.562 120.006 194.332 122.395 193.82C136.426 190.813 142.519 184.611 144.876 170.939C146.137 163.632 148.302 146.185 149.32 136.826C151.468 137.496 154.234 137.803 157.225 137.802C163.461 137.802 170.657 136.477 175.17 134.382C180.24 132.028 189.388 126.251 187.729 121.231V121.231ZM154.315 57.9885C154.269 60.7514 153.889 63.2597 153.486 65.8779C153.052 68.6938 152.603 71.6052 152.49 75.1393C152.379 78.5787 152.809 82.1544 153.224 85.6128C154.063 92.5976 154.925 99.7885 151.59 106.884C151.037 105.903 150.543 104.888 150.113 103.847C149.699 102.842 148.799 101.229 147.553 98.9953C142.705 90.3014 131.353 69.9423 137.164 61.6347C138.895 59.162 143.288 56.6196 154.315 57.9885V57.9885ZM140.949 11.1802C157.111 11.537 169.896 17.5832 178.947 29.1499C185.89 38.0219 178.245 78.3908 156.114 113.217C155.891 112.934 155.668 112.652 155.443 112.371L155.162 112.021C160.881 102.576 159.763 93.2317 158.768 84.9469C158.359 81.5469 157.972 78.3355 158.071 75.3188C158.172 72.1219 158.595 69.3794 159.004 66.7279C159.506 63.4605 160.018 60.0794 159.877 56.0938C159.982 55.6757 160.025 55.1817 159.969 54.5954C159.609 50.7734 155.246 39.3347 146.352 28.9817C141.487 23.3188 134.392 16.9817 124.705 12.7075C128.872 11.8438 134.569 11.0385 140.949 11.1802V11.1802ZM50.5109 133.165C46.0412 138.539 42.9549 137.509 41.9397 137.171C35.3261 134.965 27.6518 120.986 20.8859 98.8196C15.0314 79.6393 11.6102 60.3522 11.3389 54.9438C10.4844 37.8393 14.6306 25.9188 23.6632 19.5128C38.3632 9.08854 62.5314 15.3279 72.2427 18.4923C72.1033 18.6302 71.9579 18.759 71.82 18.8991C55.8836 34.9931 56.2617 62.4901 56.3011 64.1711C56.2995 64.8196 56.3541 65.7378 56.4283 67.0007C56.7026 71.6257 57.2132 80.2332 55.8495 89.981C54.5829 99.0393 57.3753 107.905 63.5094 114.306C64.1389 114.962 64.8006 115.586 65.492 116.176C62.7617 119.1 56.8276 125.567 50.5109 133.165V133.165ZM67.5405 110.443C62.5965 105.284 60.3511 98.1082 61.3791 90.7537C62.8185 80.4567 62.2874 71.4885 62.0018 66.6704C61.9617 65.9961 61.9261 65.4052 61.9056 64.9393C64.2336 62.8749 75.0223 57.0946 82.7162 58.8575C86.2268 59.6613 88.3662 62.0522 89.2556 66.1643C93.8586 87.4544 89.8647 96.3279 86.6556 103.459C85.9942 104.928 85.3692 106.317 84.8359 107.753L84.4223 108.864C83.3753 111.671 82.4011 114.282 81.7973 116.76C76.5412 116.745 71.4283 114.5 67.5405 110.442V110.443ZM68.3473 139.155C66.8124 138.772 65.4321 138.106 64.6223 137.554C65.2988 137.236 66.5026 136.802 68.5905 136.372C78.6942 134.292 80.2548 132.824 83.6624 128.498C84.4435 127.505 85.3291 126.381 86.5556 125.011L86.5571 125.01C88.3836 122.964 89.2192 123.311 90.7344 123.94C91.9624 124.448 93.1586 125.987 93.6435 127.681C93.873 128.481 94.1306 129.999 93.2874 131.181C86.1692 141.148 75.7965 141.02 68.3473 139.155V139.155ZM121.225 188.361C108.865 191.01 104.488 184.703 101.604 177.493C99.7427 172.839 98.8276 151.849 99.4768 128.67C99.4852 128.361 99.4412 128.064 99.3564 127.783C99.2805 127.23 99.165 126.682 99.0109 126.145C98.0458 122.773 95.6935 119.951 92.8715 118.782C91.7503 118.317 89.6927 117.465 87.22 118.098C87.7473 115.925 88.6617 113.471 89.6533 110.814L90.0692 109.697C90.5374 108.437 91.1253 107.132 91.7465 105.75C95.1049 98.2893 99.7041 88.0704 94.7124 64.9847C92.8427 56.3378 86.5988 52.1151 77.1336 53.0961C71.4594 53.6832 66.2677 55.9726 63.6783 57.2855C63.1215 57.5673 62.6124 57.84 62.1367 58.1052C62.8594 49.3931 65.5897 33.1113 75.8033 22.8097C82.2344 16.3249 90.7988 13.1219 101.234 13.2946C121.794 13.631 134.979 24.1825 142.42 32.9757C148.832 40.5522 152.304 48.1848 153.69 52.3014C143.269 51.2416 136.182 53.2984 132.59 58.4347C124.774 69.6075 136.865 91.2923 142.677 101.714C143.743 103.624 144.662 105.275 144.952 105.976C146.844 110.563 149.294 113.625 151.083 115.86C151.631 116.545 152.163 117.209 152.568 117.789C149.412 118.699 143.743 120.801 144.259 131.31C143.843 136.582 140.88 161.269 139.375 169.991C137.387 181.514 133.147 185.805 121.225 188.362V188.361ZM172.819 129.319C169.592 130.817 164.191 131.94 159.061 132.182C153.394 132.447 150.509 131.547 149.831 130.993C149.512 124.445 151.95 123.761 154.529 123.036C154.934 122.923 155.33 122.811 155.712 122.678C155.949 122.871 156.209 123.063 156.493 123.251C161.048 126.257 169.172 126.581 180.64 124.214L180.766 124.189C179.219 125.635 176.572 127.576 172.819 129.319Z" fill="white"/>
</g>
<defs>
<clipPath id="clip0_632_188">
<rect width="193.94" height="200" fill="white"/>
</clipPath>
</defs>
</svg>
