<svg width="203" height="200" viewBox="0 0 203 200" fill="none" xmlns="http://www.w3.org/2000/svg">
<path d="M58.3511 83.625C58.3511 86.1 58.6449 88.0875 59.1011 89.55C59.6199 91.0125 60.3074 92.6125 61.2199 94.3375C61.5275 94.7898 61.6969 95.3219 61.7074 95.8688C61.7074 96.5501 61.2824 97.2063 60.4386 97.8876L56.2386 100.656C55.7405 101.034 55.1384 101.25 54.5136 101.275C53.8324 101.275 53.1761 100.95 52.5261 100.331C51.6167 99.3769 50.8102 98.3295 50.1199 97.2063C49.3714 95.9395 48.6872 94.6357 48.0699 93.3001C42.8636 99.4188 36.3511 102.481 28.5074 102.481C22.9074 102.481 18.4511 100.888 15.1949 97.6938C11.9386 94.4688 10.2824 90.2375 10.2824 84.9C10.2824 79.2688 12.2699 74.6438 16.3386 71.1938C20.4074 67.7438 25.7761 66.0188 32.6449 66.0188C34.8886 66.0188 37.2324 66.2125 39.6761 66.5375C42.1511 66.8625 44.6886 67.4188 47.3261 68V63.15C47.3261 58.1063 46.2824 54.5563 44.2011 52.5063C42.0824 50.4563 38.5074 49.4438 33.3636 49.4438C31.0511 49.4438 28.6449 49.7063 26.1699 50.2875C23.7323 50.8805 21.339 51.6428 19.0074 52.5688C18.2261 52.925 17.4449 53.1875 16.6636 53.45C16.3235 53.551 15.9736 53.616 15.6199 53.6438C14.6761 53.6438 14.2199 52.9625 14.2199 51.5625V48.3063C14.2199 47.2625 14.3511 46.45 14.6761 45.9938C15.1646 45.3757 15.8038 44.8936 16.5324 44.5938C19.1924 43.2652 22.002 42.2601 24.9011 41.6C28.2913 40.7256 31.7814 40.2991 35.2824 40.3313C43.2261 40.3313 48.9886 42.1188 52.7324 45.7375C56.3761 49.3188 58.2324 54.7563 58.2324 62.0813V83.6313L58.3511 83.625ZM31.3636 93.75C33.5449 93.75 35.8261 93.3563 38.2011 92.5438C40.6431 91.7178 42.8217 90.2575 44.5136 88.3125C45.5886 87.0438 46.4011 85.6438 46.7949 84.05C47.1886 82.4563 47.4449 80.5 47.4449 78.2563V75.4563C45.4288 74.9601 43.3859 74.5803 41.3261 74.3188C39.2533 74.0548 37.1657 73.9233 35.0761 73.925C30.6136 73.925 27.3636 74.8063 25.1824 76.5938C22.9699 78.3813 21.9261 80.925 21.9261 84.2438C21.9261 87.3688 22.7074 89.6813 24.3699 91.275C25.9636 92.9375 28.3074 93.75 31.3699 93.75H31.3636ZM84.7824 100.944C83.5761 100.944 82.7636 100.75 82.2449 100.263C81.7261 99.8688 81.2386 98.925 80.8449 97.6938L65.2199 46.2625C64.9142 45.4008 64.7169 44.5043 64.6324 43.5938C64.6324 42.5188 65.1511 41.9313 66.1949 41.9313H72.7386C74.0074 41.9313 74.8574 42.125 75.3074 42.5813C75.8636 42.975 76.2511 43.9188 76.6449 45.1875L87.8449 89.2313L98.2261 45.1875C98.5511 43.85 98.9449 42.975 99.4636 42.5813C100.264 42.0922 101.197 41.865 102.132 41.9313H107.439C108.707 41.9313 109.589 42.125 110.107 42.5813C110.626 42.975 111.114 43.9188 111.376 45.1875L121.889 89.75L133.382 45.1875C133.807 43.85 134.264 42.975 134.72 42.5813C135.497 42.0927 136.41 41.865 137.326 41.9313H143.514C144.589 41.9313 145.176 42.45 145.176 43.5938C145.176 43.9188 145.114 44.2438 145.045 44.6688C144.937 45.2341 144.784 45.79 144.589 46.3313L128.539 97.7313C128.145 99.0688 127.695 99.9438 127.139 100.338C126.398 100.825 125.517 101.053 124.632 100.988H118.901C117.632 100.988 116.782 100.794 116.232 100.338C115.714 99.8813 115.257 99.0001 114.995 97.6688L104.676 54.7625L94.4199 97.6001C94.0949 98.9376 93.7011 99.8125 93.1511 100.269C92.6324 100.725 91.6886 100.919 90.4824 100.919L84.7824 100.944ZM170.232 102.738C166.782 102.738 163.332 102.313 160.014 101.531C156.695 100.75 154.089 99.8688 152.364 98.8625C151.289 98.275 150.576 97.625 150.314 97.0063C150.042 96.4246 149.897 95.7919 149.889 95.1501V91.7626C149.889 90.3626 150.445 89.6813 151.42 89.6813C151.814 89.6813 152.232 89.7438 152.626 89.875C153.02 90.0375 153.632 90.3 154.289 90.5563C156.57 91.5625 159.007 92.3438 161.614 92.8688C164.282 93.4251 166.857 93.6813 169.526 93.6813C173.726 93.6813 176.982 92.9313 179.226 91.4688C181.439 90.1313 182.776 87.725 182.707 85.1563C182.733 83.432 182.093 81.7643 180.92 80.5C179.714 79.2625 177.439 78.125 174.182 77.05L164.545 74.0563C159.695 72.525 156.082 70.2813 153.901 67.2875C151.753 64.52 150.576 61.1222 150.551 57.6188C150.551 54.8188 151.17 52.375 152.376 50.2313C153.582 48.1125 155.176 46.2625 157.164 44.7938C159.228 43.2236 161.569 42.0535 164.064 41.3438C166.732 40.5313 169.532 40.2063 172.464 40.2063C173.926 40.2063 175.457 40.2688 176.926 40.4688C178.457 40.6625 179.857 40.925 181.257 41.2188C182.557 41.5438 183.826 41.8688 185.032 42.2625C186.239 42.6563 187.182 43.075 187.832 43.4688C188.612 43.8664 189.291 44.4346 189.82 45.1313C190.264 45.7808 190.481 46.5584 190.439 47.3438V50.4688C190.439 51.8688 189.882 52.5875 188.907 52.5875C188.018 52.4966 187.156 52.2311 186.37 51.8063C182.355 50.0218 178 49.1325 173.607 49.2C169.801 49.2 166.801 49.7875 164.751 51.0563C162.67 52.325 161.626 54.2438 161.626 56.9813C161.626 58.8375 162.276 60.4313 163.614 61.7C164.951 62.9688 167.42 64.2376 170.939 65.3813L180.376 68.3438C185.164 69.8751 188.645 72.0251 190.695 74.7563C192.745 77.4563 193.757 80.5813 193.757 84.0688C193.757 86.9 193.139 89.5063 192.032 91.7813C190.834 94.0466 189.183 96.0419 187.182 97.6438C185.101 99.3063 182.657 100.475 179.795 101.356C176.704 102.298 173.489 102.77 170.257 102.756L170.232 102.738ZM182.826 135.056C160.92 151.238 129.145 159.794 101.801 159.794C63.4886 159.794 28.9511 145.631 2.87615 122.069C0.826147 120.213 2.6824 117.675 5.1574 119.169C33.3449 135.513 68.1449 145.438 104.114 145.438C128.395 145.438 155.057 140.356 179.632 130.006C183.276 128.313 186.401 132.381 182.82 135.05L182.826 135.056ZM191.945 124.675C189.145 121.094 173.42 122.95 166.326 123.831C164.207 124.094 163.851 122.206 165.807 120.806C178.307 112.05 198.845 114.556 201.257 117.488C203.632 120.513 200.576 141.056 188.889 150.888C187.101 152.419 185.339 151.638 186.151 149.619C188.82 143.044 194.745 128.231 191.945 124.681V124.675Z" fill="#D1D5DB"/>
<path fill-rule="evenodd" clip-rule="evenodd" d="M100.862 159.576C128.495 159.576 160.607 150.929 182.745 134.577L182.739 134.57C186.358 131.873 183.2 127.761 179.518 129.473C154.682 139.933 127.737 145.068 103.199 145.068C66.8489 145.068 31.68 135.038 3.19382 118.521C0.692589 117.011 -1.18333 119.576 0.888393 121.451C27.2397 145.264 62.1433 159.576 100.862 159.576ZM166.071 123.233C173.24 122.342 189.131 120.466 191.961 124.085V124.092C194.791 127.679 188.803 142.649 186.106 149.293C185.285 151.334 187.066 152.123 188.872 150.576C200.684 140.64 203.772 119.879 201.372 116.822C198.934 113.859 178.179 111.327 165.546 120.176C163.569 121.59 163.929 123.498 166.071 123.233Z" fill="#EB911A"/>
</svg>
