<svg width="200" height="200" viewBox="0 0 200 200" fill="none" xmlns="http://www.w3.org/2000/svg">
<path d="M142.744 0C134.966 0.0591807 127.233 1.18638 119.763 3.35L119.244 3.51875C114.543 2.7044 109.788 2.24684 105.019 2.15C95.1875 1.98125 86.75 4.35625 79.95 8.33125C73.2437 6.025 59.3438 1.98125 44.6938 2.8C34.5125 3.35 23.375 6.44375 15.1 15.1688C6.9 23.8625 2.54375 37.3375 3.45 55.7C3.70625 60.7438 5.14375 68.975 7.55 79.6813C9.925 90.3625 13.2813 102.863 17.4813 114.288C21.6813 125.681 26.2625 135.931 33.4313 142.894C37.0063 146.375 41.9563 149.344 47.7813 149.088C51.8563 148.919 55.5313 147.131 58.725 144.494C60.2812 146.544 61.95 147.419 63.4438 148.238C65.3688 149.281 67.1875 149.994 69.1125 150.456C72.5625 151.331 78.4562 152.475 85.3562 151.3C87.8688 150.848 90.3177 150.095 92.65 149.056L92.9438 157.225C93.3 165.85 93.5375 173.825 96.1 180.825C96.525 181.969 97.6687 187.825 102.156 193.031C106.681 198.238 115.462 201.463 125.525 199.313C132.594 197.813 141.606 195.081 147.6 186.556C153.525 178.156 156.194 166.081 156.719 146.481C156.844 145.406 157.012 144.531 157.169 143.681L158.569 143.813H158.738C166.288 144.138 174.494 143.063 181.362 139.869C187.412 137.069 192.006 134.238 195.356 129.194C196.175 127.95 197.113 126.425 197.35 123.819C197.606 121.25 196.106 117.175 193.631 115.294C188.688 111.519 185.562 112.95 182.206 113.669C178.919 114.377 175.574 114.779 172.213 114.869C181.844 98.6625 188.744 81.4125 192.688 66.1688C195.031 57.15 196.338 48.85 196.431 41.5938C196.563 34.3375 195.95 27.925 191.613 22.3625C178.006 5.0125 158.894 0.1875 144.119 0.03125H142.75L142.744 0ZM142.35 5.34375C156.319 5.2125 174.181 9.11875 187.006 25.5188C189.906 29.2 190.756 34.5688 190.656 41.2125C190.556 47.8563 189.325 55.7625 187.075 64.4563C182.75 81.325 174.506 100.913 162.956 118.531C163.354 118.831 163.791 119.073 164.256 119.25C166.663 120.256 172.162 121.1 183.162 118.856C185.931 118.263 187.956 117.881 190.069 119.475C190.581 119.907 190.986 120.453 191.251 121.07C191.516 121.686 191.633 122.355 191.594 123.025C191.48 124.04 191.098 125.006 190.488 125.825C188.369 129.006 184.181 132.044 178.806 134.55C174.056 136.756 167.212 137.9 161.2 137.969C158.144 138 155.344 137.769 152.956 137.019L152.831 136.994C151.912 145.813 149.806 163.263 148.431 171.2C147.331 177.606 145.406 182.725 141.731 186.531C138.05 190.375 132.875 192.65 125.875 194.15C117.219 196.006 110.931 194.019 106.869 190.6C102.806 187.181 100.944 182.625 99.8375 179.856C99.0625 177.938 98.6688 175.463 98.2813 172.138C97.8558 168.168 97.5723 164.184 97.4312 160.194C97.175 153.194 97.075 146.194 97.175 139.163C93.5638 142.473 89.0776 144.678 84.25 145.513C78.4937 146.488 73.3812 145.513 70.325 144.763C68.8172 144.378 67.3625 143.809 65.9938 143.069C64.5625 142.319 63.225 141.475 62.3187 139.775C61.7965 138.801 61.635 137.675 61.8625 136.594C62.1327 135.496 62.7645 134.52 63.6563 133.825C65.3125 132.481 67.5 131.744 70.7812 131.056C76.775 129.813 78.8875 128.975 80.1562 127.956C81.2312 127.113 82.475 125.356 84.6125 122.781C84.6125 122.688 84.6125 122.556 84.5813 122.456C80.7082 122.338 76.917 121.313 73.5125 119.463C72.2813 120.763 65.8625 127.538 58.0875 136.913C54.8312 140.813 51.2187 143.063 47.3812 143.231C43.575 143.388 40.1125 141.475 37.1875 138.638C31.3312 132.938 26.6375 123.138 22.5688 112.069C18.5 101 15.2125 88.6688 12.8375 78.1875C10.4938 67.6688 9.09375 59.2063 8.89375 55.1375C8.01875 37.7875 12.0875 26.1063 19.05 18.7125C26.0125 11.3188 35.5562 8.55625 44.8687 8.00625C61.5687 7.0625 77.45 12.8875 80.6437 14.125C86.825 9.925 94.8 7.325 104.762 7.48125C109.484 7.55068 114.181 8.16304 118.763 9.30625L118.931 9.20625C120.947 8.50818 123 7.92392 125.081 7.45625C130.738 6.12878 136.522 5.41838 142.331 5.3375L142.35 5.34375ZM143.619 10.9063H142.387C137.637 10.9625 132.844 11.525 128.194 12.5313C138.575 17.125 146.419 24.1813 151.95 31.2813C155.794 36.1625 158.95 41.5313 161.356 47.2625C162.306 49.4813 162.925 51.3313 163.25 52.7625C163.444 53.4813 163.544 54.0938 163.606 54.7125C163.606 55.0375 163.638 55.3688 163.475 55.9188C163.475 55.95 163.444 56.0188 163.444 56.05C163.712 63.3438 161.888 68.2813 161.65 75.25C161.494 80.3 162.794 86.225 163.119 92.7C163.413 98.7813 162.669 105.456 158.725 112.031C159.05 112.425 159.344 112.813 159.669 113.238C170.119 96.7625 177.669 78.5688 181.675 63.0375C183.825 54.6688 184.956 47.0875 185.056 41.1063C185.156 35.1125 184.05 30.75 182.613 28.9313C171.413 14.6375 156.281 10.9875 143.613 10.9L143.619 10.9063ZM103.675 13.05C93.85 13.0813 86.7813 16.05 81.4188 20.5063C75.875 25.1313 72.1687 31.4125 69.7625 37.8875C66.8625 45.5375 65.8563 52.9563 65.4625 58.0063L65.5937 57.9375C69.0638 55.9945 72.7899 54.549 76.6625 53.6438C80.8312 52.6625 85.3563 52.3688 89.4188 53.9688C93.525 55.525 96.875 59.2688 98.1125 64.9C103.981 92.05 96.2938 102.144 93.4625 109.756C92.3875 112.525 91.4437 115.325 90.6937 118.188C91.05 118.119 91.4125 118.019 91.7687 117.988C93.7875 117.831 95.3438 118.481 96.2625 118.869C99.1313 120.069 101.081 122.544 102.156 125.375C102.42 126.148 102.615 126.943 102.737 127.75C102.845 128.088 102.902 128.439 102.906 128.794C102.578 139.175 102.609 149.565 103 159.944C103.2 164.438 103.494 168.375 103.85 171.5C104.206 174.594 104.694 176.969 105.025 177.781C106.094 180.45 107.656 183.931 110.494 186.306C113.294 188.688 117.325 190.25 124.719 188.688C131.125 187.288 135.069 185.394 137.7 182.663C140.344 179.894 141.9 176.088 142.906 170.263C144.437 161.506 147.463 136.113 147.825 131.363C147.669 127.744 148.181 124.981 149.356 122.863C150.525 120.713 152.35 119.381 153.95 118.663C154.725 118.306 155.475 118.081 156.094 117.881C155.439 116.968 154.766 116.068 154.075 115.181C151.794 112.413 149.919 109.335 148.506 106.038C147.857 104.655 147.139 103.305 146.356 101.994C145.256 100.013 143.856 97.5 142.387 94.6688C139.456 89.0688 136.269 82.2375 134.606 75.5938C132.95 68.95 132.725 62.0875 136.956 57.2688C140.7 52.9688 147.306 51.1875 157.162 52.1938C156.869 51.3125 156.713 50.5625 156.219 49.425C153.977 44.1597 151.054 39.2112 147.525 34.7063C139.156 24 125.581 13.3813 104.656 13.025L103.675 13.05ZM48.3438 13.475C47.2909 13.4739 46.2382 13.5072 45.1875 13.575C36.7563 14.0688 28.8125 16.5 23.1125 22.525C17.4188 28.5813 13.6813 38.4438 14.4875 54.8188C14.6563 57.9438 15.9875 66.6 18.2938 76.9188C20.6125 87.2438 23.8938 99.3875 27.8375 110.125C31.7688 120.831 36.5312 130.175 41.0875 134.6C43.3625 136.781 45.3437 137.694 47.1375 137.631C48.9312 137.531 51.1125 136.488 53.7812 133.3C58.6243 127.456 63.6519 121.768 68.8563 116.244C65.1653 113.031 62.3422 108.94 60.647 104.35C58.9519 99.7592 58.4392 94.8158 59.1563 89.975C60 83.825 60.1313 78.0563 60 73.5C59.9063 69.075 59.6062 66.15 59.6062 64.2938V64.0938L59.575 64.0375C59.575 54.4313 61.275 44.9313 64.525 35.9125C66.8688 29.6875 70.325 23.4125 75.525 18.2938C70.4187 16.6 61.3313 14.0688 51.5063 13.575C50.4555 13.5074 49.4029 13.4741 48.35 13.475H48.3438ZM151.656 57.4813C146 57.5813 142.837 59.05 141.15 60.9313C138.8 63.6375 138.575 68.3875 140.044 74.25C141.5 80.1063 144.538 86.65 147.369 92.0938C148.769 94.825 150.138 97.2688 151.238 99.25C152.381 101.269 153.194 102.669 153.681 103.906C154.138 105.013 154.663 105.988 155.181 106.9C157.363 102.275 157.756 97.75 157.525 93C157.231 87.1438 155.869 81.15 156.094 75.1C156.325 68 157.725 63.375 157.825 57.9063C155.784 57.6364 153.728 57.4944 151.669 57.4813H151.656ZM83.0437 58.4688C81.3187 58.4688 79.5937 58.6938 77.9 59.0875C74.5432 59.8949 71.3116 61.1543 68.2938 62.8313C67.2781 63.3809 66.3102 64.0143 65.4 64.725L65.2 64.8813C65.2688 66.125 65.4937 69.05 65.5937 73.4125C65.6937 78.1625 65.5938 84.2125 64.6875 90.7625C62.6688 105.019 73.0188 116.806 85.1625 116.838C85.8813 113.906 87.0437 110.938 88.2187 107.819C91.6 98.7 98.2438 92.0625 92.6438 66.0875C91.7375 61.8563 89.9125 60.1313 87.4 59.1563C86.0019 58.6642 84.5253 58.4332 83.0437 58.475V58.4688ZM149.025 60.1563H149.45C149.969 60.1875 150.494 60.225 150.944 60.35C151.35 60.4295 151.738 60.5843 152.087 60.8063C152.25 60.9037 152.389 61.0352 152.496 61.1916C152.603 61.348 152.675 61.5257 152.706 61.7125V61.7813C152.705 62.181 152.604 62.574 152.412 62.925C152.167 63.3739 151.862 63.788 151.506 64.1563C150.666 65.0959 149.527 65.7163 148.281 65.9125C147.076 66.067 145.857 65.7661 144.862 65.0688C144.469 64.783 144.108 64.4538 143.788 64.0875C143.506 63.7916 143.323 63.4163 143.263 63.0125C143.226 62.6274 143.343 62.2433 143.588 61.9438C143.877 61.648 144.207 61.3954 144.569 61.1938C145.375 60.7375 146.45 60.4125 147.694 60.2438C148.144 60.1875 148.6 60.15 149.025 60.1188V60.1563ZM83.85 61.5563C84.275 61.5563 84.7687 61.5875 85.225 61.65C86.525 61.85 87.6313 62.175 88.5063 62.6938C88.9352 62.9027 89.3129 63.2036 89.6125 63.575C89.9371 63.9667 90.1002 64.4673 90.0688 64.975C89.9798 65.4562 89.764 65.905 89.4437 66.275C89.1009 66.6925 88.6963 67.055 88.2438 67.35C87.1607 68.1281 85.8225 68.4655 84.5 68.2938C83.1602 68.0784 81.9331 67.4152 81.0188 66.4125C80.6348 65.9998 80.3051 65.5399 80.0375 65.0438C79.7458 64.6013 79.6196 64.0701 79.6812 63.5438C79.8125 62.6688 80.5625 62.175 81.2813 61.9188C82.1 61.65 82.975 61.5625 83.85 61.5938V61.5563ZM159.344 122.75H159.312C158.112 123.206 157.106 123.375 156.256 123.769C155.396 124.093 154.689 124.729 154.275 125.55C153.719 126.5 153.3 128.194 153.425 131.081C153.801 131.352 154.222 131.553 154.669 131.675C156.069 132.1 158.475 132.394 161.144 132.356C166.45 132.288 172.994 131.056 176.475 129.425C179.32 128.106 181.962 126.387 184.319 124.319C172.7 126.694 166.162 126.075 162.119 124.419C161.125 123.989 160.194 123.428 159.35 122.75H159.344ZM92.4187 123.531H92.25C91.8 123.563 91.175 123.731 89.9063 125.1C87.0063 128.35 86 130.4 83.625 132.294C81.2188 134.213 78.125 135.225 71.9063 136.494C70.5798 136.731 69.2884 137.134 68.0625 137.694C68.2875 137.894 68.2875 137.963 68.6437 138.119C69.5625 138.644 70.725 139.069 71.675 139.325C74.3438 139.975 78.7 140.756 83.2937 139.975C87.85 139.194 92.6 137.006 96.675 131.319C97.3938 130.344 97.45 128.875 96.8687 127.313C96.2875 125.788 95.0125 124.419 94.1375 124.063C93.5899 123.808 93.0092 123.631 92.4125 123.538L92.4187 123.531Z" fill="#D1D5DB"/>
</svg>
