<svg width="250" height="224" viewBox="0 0 250 224" fill="none" xmlns="http://www.w3.org/2000/svg">
<path d="M250 111.761C250 95.198 229.26 79.5001 197.458 69.7709C204.802 37.3647 201.542 11.573 187.167 3.31258C183.684 1.36175 179.741 0.379791 175.75 0.468831V11.823C178.094 11.823 179.979 12.2918 181.563 13.1563C188.49 17.1355 191.5 32.2605 189.156 51.7293C188.594 56.5209 187.677 61.5626 186.552 66.7084C175.902 64.1421 165.094 62.2874 154.198 61.1563C147.707 52.201 140.625 43.689 133 35.6772C149.615 20.2397 165.208 11.7813 175.813 11.7813V0.416748C161.792 0.416748 143.448 10.4063 124.896 27.7293C106.354 10.5209 88 0.625081 73.9896 0.625081V11.9793C84.5417 11.9793 100.188 20.3959 116.802 35.7293C109.667 43.2293 102.531 51.7293 95.75 61.1563C84.8316 62.2748 74.0037 64.1473 63.3438 66.7605C62.2172 61.8833 61.3307 56.9538 60.6875 51.9897C58.2917 32.5105 61.25 17.3855 68.1354 13.3647C69.6563 12.448 71.6458 12.0313 73.9896 12.0313V0.677165C69.7188 0.677165 65.8333 1.59383 62.4792 3.52092C48.1563 11.7813 44.9479 37.5105 52.3333 69.823C20.6354 79.6147 0 95.2501 0 111.761C0 128.323 20.7396 144.021 52.5417 153.74C45.1979 186.156 48.4583 211.948 62.8333 220.198C66.1458 222.136 70.0208 223.052 74.2917 223.052C88.3125 223.052 106.656 213.063 125.208 195.74C143.75 212.958 162.094 222.844 176.115 222.844C180.136 222.929 184.109 221.944 187.625 219.99C201.948 211.74 205.156 186.011 197.771 153.698C229.365 143.969 250 128.271 250 111.761ZM183.646 77.7709C181.667 84.5819 179.372 91.2975 176.771 97.8959C172.512 89.6122 167.836 81.5497 162.76 73.7397C170 74.8126 176.979 76.1355 183.656 77.7709H183.646ZM160.313 132.042C156.497 138.703 152.4 145.198 148.031 151.511C132.742 152.858 117.365 152.876 102.073 151.563C93.3015 139.033 85.6306 125.769 79.1458 111.917C85.6207 98.0324 93.259 84.721 101.979 72.1251C117.264 70.7748 132.638 70.7539 147.927 72.0626C152.156 78.1251 156.292 84.6043 160.26 91.4376C164.135 98.1043 167.656 104.875 170.865 111.708C167.621 118.625 164.1 125.408 160.313 132.042V132.042ZM176.771 125.417C179.521 132.24 181.875 139.073 183.802 145.698C177.135 147.333 170.094 148.708 162.813 149.771C167.867 141.89 172.526 133.762 176.771 125.417V125.417ZM125.104 179.792C120.365 174.896 115.625 169.448 110.937 163.479C115.521 163.688 120.208 163.844 124.948 163.844C129.74 163.844 134.479 163.74 139.115 163.479C134.531 169.448 129.792 174.896 125.104 179.792ZM87.1875 149.771C80.164 148.753 73.1913 147.412 66.2917 145.75C68.1771 139.177 70.5208 132.396 73.1667 125.625C75.2604 129.688 77.4583 133.771 79.8542 137.854C82.25 141.927 84.6875 145.906 87.1875 149.771ZM124.844 43.7293C129.583 48.6251 134.323 54.073 139.01 60.0418C134.427 59.8334 129.74 59.6772 125 59.6772C120.208 59.6772 115.469 59.7813 110.833 60.0418C115.417 54.073 120.156 48.6251 124.844 43.7293ZM87.1354 73.7501C82.082 81.614 77.4234 89.7247 73.1771 98.0522C70.5022 91.4111 68.1556 84.6425 66.1458 77.7709C72.8125 76.1876 79.8542 74.8126 87.1354 73.7501ZM41.0208 137.542C22.9792 129.854 11.3125 119.761 11.3125 111.761C11.3125 103.761 22.9792 93.6147 41.0208 85.9793C45.3958 84.0939 50.1875 82.4064 55.1354 80.8334C58.0417 90.8126 61.8646 101.208 66.5938 111.865C62.1288 121.887 58.3527 132.203 55.2917 142.74C50.4526 141.241 45.69 139.507 41.0208 137.542V137.542ZM68.4375 210.354C61.5104 206.396 58.5 191.25 60.8438 171.792C61.4063 167 62.3229 161.948 63.4479 156.802C73.4271 159.25 84.3333 161.136 95.8021 162.365C102.294 171.32 109.375 179.832 117 187.844C100.385 203.281 84.7917 211.74 74.1875 211.74C72.1869 211.762 70.2118 211.289 68.4375 210.365V210.354ZM189.313 171.531C191.708 191 188.75 206.136 181.865 210.156C180.344 211.073 178.354 211.479 176.01 211.479C165.458 211.479 149.813 203.073 133.198 187.729C140.791 179.751 147.825 171.258 154.25 162.313C165.168 161.194 175.996 159.322 186.656 156.708C187.833 161.854 188.74 166.792 189.313 171.531V171.531ZM208.927 137.542C204.552 139.427 199.76 141.115 194.813 142.688C191.698 132.097 187.869 121.73 183.354 111.656C188.042 101.063 191.802 90.7189 194.656 80.7814C199.511 82.2847 204.29 84.0193 208.979 85.9793C227.021 93.6668 238.688 103.761 238.688 111.761C238.635 119.761 226.969 129.906 208.927 137.542V137.542Z" fill="#D1D5DB"/>
<path d="M124.948 135.052C131.125 135.052 137.05 132.598 141.418 128.23C145.786 123.862 148.24 117.938 148.24 111.76C148.24 105.583 145.786 99.6588 141.418 95.2907C137.05 90.9227 131.125 88.4688 124.948 88.4688C118.771 88.4688 112.846 90.9227 108.478 95.2907C104.11 99.6588 101.656 105.583 101.656 111.76C101.656 117.938 104.11 123.862 108.478 128.23C112.846 132.598 118.771 135.052 124.948 135.052V135.052Z" fill="#D1D5DB"/>
</svg>
