<svg width="179" height="179" viewBox="0 0 179 179" fill="none" xmlns="http://www.w3.org/2000/svg">
<path d="M160.473 11.1875H18.5265C14.4733 11.1875 11.1875 14.4733 11.1875 18.5265V160.473C11.1875 164.527 14.4733 167.812 18.5265 167.812H160.473C164.527 167.812 167.812 164.527 167.812 160.473V18.5265C167.812 14.4733 164.527 11.1875 160.473 11.1875Z" fill="#3178C6"/>
<path fill-rule="evenodd" clip-rule="evenodd" d="M102.058 132.902V150.064C105.176 151.603 108.499 152.686 111.925 153.28C115.885 154.011 119.903 154.37 123.93 154.354C127.854 154.373 131.768 153.977 135.609 153.174C139.058 152.477 142.348 151.149 145.315 149.258C148.068 147.48 150.338 145.047 151.921 142.176C154.755 136.232 155.129 129.41 152.961 123.191C152.047 120.866 150.684 118.743 148.95 116.943C147.09 115.029 144.976 113.379 142.669 112.037C140.012 110.481 137.251 109.109 134.407 107.931C132.169 107.003 130.155 106.1 128.365 105.224C126.776 104.463 125.254 103.566 123.818 102.545C122.693 101.756 121.716 100.775 120.931 99.647C120.254 98.6228 119.901 97.418 119.919 96.1901C119.904 95.06 120.219 93.95 120.825 92.9961C121.483 91.9977 122.362 91.1635 123.393 90.5572C124.653 89.8153 126.024 89.2808 127.454 88.9742C129.209 88.5842 131.003 88.3965 132.801 88.4148C134.313 88.42 135.824 88.5284 137.321 88.7392C138.938 88.9579 140.538 89.2887 142.109 89.7293C143.707 90.1723 145.271 90.7332 146.786 91.4074C148.256 92.0628 149.662 92.8531 150.987 93.768V77.7531C148.229 76.71 145.37 75.96 142.456 75.5156C138.937 75.0036 135.384 74.7623 131.828 74.794C127.941 74.7731 124.065 75.2144 120.282 76.1085C116.863 76.8899 113.612 78.2786 110.684 80.2088C107.963 82.021 105.717 84.459 104.133 87.3184C102.455 90.4938 101.625 94.0486 101.722 97.6389C101.598 102.387 103.162 107.025 106.136 110.728C109.784 114.835 114.384 117.983 119.533 119.896C121.882 120.866 124.073 121.815 126.106 122.744C127.939 123.56 129.702 124.527 131.375 125.636C132.724 126.513 133.909 127.621 134.877 128.908C135.727 130.075 136.178 131.486 136.163 132.93C136.171 134.012 135.893 135.077 135.358 136.018C134.763 137.028 133.927 137.876 132.924 138.484C131.67 139.249 130.298 139.801 128.863 140.118C126.995 140.536 125.083 140.733 123.169 140.705C119.412 140.698 115.684 140.036 112.155 138.747C108.467 137.417 105.048 135.437 102.058 132.902V132.902ZM73.2278 90.1768H95.6028V76.0414H33.2157V90.1768H55.49V153.129H73.2278V90.1768Z" fill="white"/>
</svg>
