<svg width="512" height="512" viewBox="0 0 512 512" fill="none" xmlns="http://www.w3.org/2000/svg">
<path d="M93.19 329.38L140.64 25.3102C142.28 14.9402 156.19 12.4902 161.1 21.7602L212.1 117.21L93.19 329.38ZM432 400L385.26 123.21C384.921 121.232 384.047 119.384 382.733 117.866C381.419 116.349 379.715 115.22 377.805 114.602C375.895 113.984 373.853 113.9 371.899 114.36C369.945 114.82 368.154 115.805 366.72 117.21L80 400L239.36 491.91C244.25 494.592 249.738 495.998 255.315 495.998C260.892 495.998 266.38 494.592 271.27 491.91L432 400ZM302.36 158.93L265.82 89.3902C264.911 87.6038 263.526 86.1036 261.818 85.0558C260.109 84.0079 258.144 83.4533 256.14 83.4533C254.136 83.4533 252.171 84.0079 250.462 85.0558C248.754 86.1036 247.369 87.6038 246.46 89.3902L85.83 375.74L302.36 158.93Z" fill="#D1D5DB"/>
</svg>
