<svg width="570" height="642" viewBox="0 0 570 642" fill="none" xmlns="http://www.w3.org/2000/svg">
<g clip-path="url(#clip0_1001_149)">
<path fill-rule="evenodd" clip-rule="evenodd" d="M339.72 73.3942L471.412 149.431C475.214 145.408 479.577 141.956 484.366 139.18C511.677 123.478 546.514 132.801 562.378 160.114C578.08 187.428 568.757 222.262 541.444 238.126C536.691 240.864 531.569 242.903 526.235 244.183V396.312C531.51 397.594 536.577 399.62 541.282 402.329C568.757 418.193 578.08 453.03 562.216 480.343C546.514 507.654 511.515 516.977 484.202 501.277C478.91 498.241 474.143 494.372 470.085 489.817L339.194 565.386C341.111 571.191 342.085 577.265 342.078 583.377C342.078 614.778 316.566 640.457 285 640.457C253.434 640.457 227.922 614.941 227.922 583.377C227.922 577.766 228.728 572.347 230.231 567.228L98.5744 491.213C94.8141 495.156 90.5124 498.545 85.7984 501.277C58.3226 516.977 23.4859 507.654 7.78415 480.343C-7.91534 453.03 1.40727 418.193 28.7183 402.329C33.4232 399.619 38.4897 397.593 43.7654 396.31V244.183C38.4314 242.903 33.3091 240.864 28.5557 238.126C1.24251 222.427 -8.0801 187.428 7.62161 160.114C23.3233 132.801 58.3204 123.478 85.6336 139.18C90.3965 141.941 94.7381 145.371 98.5254 149.367L230.256 73.3096C228.703 68.0391 227.917 62.5724 227.922 57.0779C227.922 25.5164 253.434 0 285 0C316.566 0 342.078 25.5142 342.078 57.0779C342.078 62.7512 341.254 68.2263 339.72 73.3942ZM326 96.8221L458.006 173.037C455.904 180.385 455.301 188.081 456.233 195.666C457.166 203.251 459.614 210.572 463.432 217.192C471.468 231.171 484.558 240.438 499.086 244.049V396.368C498.345 396.549 497.608 396.747 496.875 396.956L324.466 98.3473C324.987 97.8485 325.499 97.3386 326 96.8221ZM245.57 98.3807L73.1627 396.985C72.4172 396.769 71.6674 396.569 70.9138 396.384V244.049C85.4422 240.438 98.5321 231.171 106.568 217.192C110.394 210.559 112.844 203.223 113.773 195.623C114.701 188.022 114.089 180.312 111.972 172.953L243.94 96.7597C244.472 97.3097 245.015 97.8507 245.57 98.3784V98.3807ZM300.949 111.907L473.316 410.444C469.368 414.212 465.983 418.529 463.267 423.263C460.558 427.968 458.533 433.034 457.251 438.31H112.753C111.47 433.034 109.443 427.968 106.733 423.263C104.007 418.562 100.629 414.271 96.6997 410.518L269.1 111.92C274.269 113.409 279.621 114.161 285 114.156C290.537 114.156 295.888 113.372 300.949 111.907ZM327.211 544.924L458.36 469.203C457.967 467.967 457.616 466.718 457.307 465.458H112.68C112.497 466.198 112.299 466.935 112.087 467.667L243.878 543.76C249.2 538.226 255.586 533.826 262.654 530.825C269.721 527.825 277.322 526.285 285 526.299C292.946 526.285 300.807 527.935 308.077 531.143C315.347 534.351 321.865 539.045 327.211 544.924Z" fill="#E535AB"/>
</g>
<defs>
<clipPath id="clip0_1001_149">
<rect width="570" height="641.25" fill="white"/>
</clipPath>
</defs>
</svg>
