<svg width="122" height="165" viewBox="0 0 122 165" fill="none" xmlns="http://www.w3.org/2000/svg">
<g clip-path="url(#clip0_677_175)">
<path d="M39.3426 127.465C39.3426 127.465 33.0531 131.122 43.8189 132.36C56.8617 133.848 63.5272 133.635 77.9005 130.914C77.9005 130.914 81.6795 133.284 86.9564 135.336C54.7362 149.145 14.0349 134.536 39.3426 127.465M35.4054 109.445C35.4054 109.445 28.351 114.667 39.1249 115.781C53.0573 117.218 64.06 117.336 83.0992 113.67C83.0992 113.67 85.7326 116.339 89.8734 117.8C50.9167 129.191 7.52611 118.698 35.4054 109.445" fill="#5382A1"/>
<path d="M68.5971 78.8766C76.5365 88.0168 66.5113 96.2421 66.5113 96.2421C66.5113 96.2421 86.6699 85.8357 77.4119 72.8038C68.7654 60.6518 62.1341 54.6129 98.0314 33.7942C98.0314 33.7942 41.6848 47.8668 68.5971 78.8761" fill="#E76F00"/>
<path d="M111.211 140.794C111.211 140.794 115.866 144.628 106.085 147.596C87.4872 153.23 28.6778 154.931 12.3406 147.82C6.46809 145.266 17.4812 141.72 20.9453 140.976C24.558 140.192 26.6229 140.339 26.6229 140.339C20.0918 135.737 -15.5915 149.373 8.49773 153.277C74.1919 163.931 128.252 148.48 111.211 140.794ZM42.3668 90.7737C42.3668 90.7737 12.4531 97.8791 31.774 100.459C39.9316 101.551 56.1939 101.304 71.3421 100.035C83.722 98.9909 96.1529 96.7702 96.1529 96.7702C96.1529 96.7702 91.7876 98.6397 88.6295 100.796C58.2522 108.786 -0.431432 105.069 16.4628 96.8965C30.7503 89.9903 42.3673 90.7737 42.3673 90.7737M96.0294 120.769C126.91 104.722 112.632 89.3021 102.666 91.3799C100.224 91.8879 99.1347 92.3282 99.1347 92.3282C99.1347 92.3282 100.042 90.9081 101.773 90.2933C121.488 83.3619 136.651 110.736 95.409 121.578C95.409 121.578 95.8869 121.151 96.0294 120.769Z" fill="#5382A1"/>
<path d="M77.4119 0.176746C77.4119 0.176746 94.514 17.285 61.1915 43.5912C34.4708 64.6939 55.0983 76.7259 61.1806 90.473C45.583 76.4004 34.1362 64.0119 41.8159 52.4822C53.0868 35.5565 84.3119 27.3507 77.4119 0.17627" fill="#E76F00"/>
<path d="M45.4014 164.251C75.0425 166.149 120.559 163.198 121.637 149.173C121.637 149.173 119.565 154.49 97.1407 158.712C71.8415 163.473 40.6387 162.918 22.1318 159.866C22.1323 159.866 25.9204 163.002 45.4019 164.251" fill="#5382A1"/>
</g>
<defs>
<clipPath id="clip0_677_175">
<rect width="122" height="164.887" fill="white"/>
</clipPath>
</defs>
</svg>
