<svg width="86" height="191" viewBox="0 0 86 191" fill="none" xmlns="http://www.w3.org/2000/svg">
<path d="M83.6729 75.8517C73.6077 31.5424 49.8672 16.9826 47.317 11.412C45.1081 7.94243 43.212 4.28342 41.6508 0.478157L41.4755 0C41.4755 0.151417 41.4755 0.247048 41.4357 0.390495V1.53807V1.5301V1.69746L41.4436 1.78512L41.4357 1.87278V2.28719L41.364 2.68565V3.18772H41.3241V3.31522H41.0372V3.76947H40.9894V4.13606H40.7981V4.6461L40.6148 4.78157L40.575 4.83736V5.01268H40.5351V5.15613H40.4873V5.51475H40.4395V5.66617H40.3997V5.80961H40.3598V5.98494H40.0012V6.10448H39.9614V6.25589H39.9215V6.37543H39.8737V6.55873H39.8338V6.66233C39.6905 6.73198 39.5588 6.82338 39.4434 6.93328L39.3716 7.01297C39.3477 7.04485 39.3716 7.01297 39.3716 7.01297V7.47519H39.3318V7.41144H39.2919V7.49113H39.2521V7.55489H39.2122V7.73021H38.7261V7.8099H38.6464V7.96929H38.4073V8.04898H38.3675V8.0968H38.2878V8.17649H38.0487V8.22431H38.0089V8.68653H37.9611V8.76622H37.9212V8.81403H37.8814V8.86185L37.7698 8.98936L37.6742 9.06905C37.5655 9.14769 37.4617 9.23285 37.3634 9.32407L37.188 9.45955L36.7975 9.77035L36.2078 10.2644C35.7536 10.639 35.2754 11.0614 34.7255 11.5316C33.3787 12.711 31.7769 14.2252 29.944 16.0581L29.8244 16.1777C11.3675 35.7624 0.785871 61.4687 0.106938 88.3715V88.5149C-0.0523103 91.6321 -0.033685 94.7558 0.162723 97.8708L0.154754 97.6318V97.7035C0.972636 111.207 4.94686 124.331 11.758 136.02L11.5349 135.605C13.9894 139.909 16.428 143.567 19.0898 147.041L18.9145 146.802C24.5676 154.325 31.2255 161.036 38.7022 166.749L38.9493 166.933C41.2876 174.105 42.3661 181.627 42.137 189.167V189.079L47.2692 190.793C46.695 183.937 46.8526 177.039 47.7394 170.216L47.6916 170.702C48.2096 168.654 49.1739 166.877 50.4808 165.411L50.4729 165.427C52.8477 163.729 54.9277 162.048 56.8961 160.239L56.8483 160.286C56.9917 160.135 57.0714 159.999 57.1989 159.856C66.3001 151.349 73.5537 141.061 78.5085 129.631C83.4633 118.201 86.0133 105.874 85.9999 93.416C85.9999 87.0326 85.3465 80.8086 84.0953 74.7918L84.1989 75.3815L83.6729 75.8517Z" fill="#4BA13E"/>
</svg>
