<svg width="319" height="311" viewBox="0 0 319 311" fill="none" xmlns="http://www.w3.org/2000/svg">
<path d="M102.285 305.211C94.8762 305.211 87.8794 301.919 83.1455 295.95L11.115 206.424C6.38112 200.455 4.52943 192.842 6.38112 185.431L32.1067 73.679C33.7528 66.2698 38.6923 60.301 45.4848 57.0088L149.622 7.20243C152.915 5.55759 156.62 4.73392 160.325 4.73392C164.029 4.73392 167.733 5.55634 171.026 7.20367L275.165 56.8032C281.956 60.0954 286.896 66.0641 288.542 73.4734L314.267 185.226C315.915 192.635 314.267 200.25 309.535 206.219L237.502 295.744C232.768 301.506 225.771 305.005 218.362 305.005L102.288 305.211H102.285Z" fill="#326DE6"/>
<path d="M159.97 9.87015C162.85 9.87015 165.728 10.4864 168.401 11.7201L272.444 61.2741C277.79 63.947 281.902 68.882 283.136 74.6398L308.838 186.289C310.277 192.253 308.838 198.421 304.931 203.15L232.966 292.594C229.264 297.323 223.506 299.996 217.544 299.996H102.192C96.229 299.996 90.4724 297.323 86.7712 292.594L14.8057 203.15C11.1044 198.421 9.66401 192.253 10.899 186.289L36.601 74.6398C38.0401 68.6765 41.9468 63.7416 47.2926 61.2741L151.337 11.516C154.01 10.4876 157.093 9.87139 159.972 9.87139L159.97 9.87015ZM159.97 0.205612C155.653 0.205612 151.335 1.23394 147.222 3.08393L43.1805 52.8445C34.9552 56.7512 29.1985 63.947 27.1419 72.7886L1.43988 184.439C-0.615532 193.281 1.43988 202.328 7.19777 209.525L79.1633 298.968C84.7158 305.959 93.1453 309.865 101.987 309.865H217.338C226.179 309.865 234.61 305.959 240.161 298.968L312.128 209.524C317.885 202.533 319.941 193.281 317.885 184.438L292.183 72.7886C290.127 63.947 284.369 56.7512 276.145 52.8445L172.513 3.08269C168.607 1.23394 164.289 0.205612 159.97 0.205612Z" fill="white"/>
<path d="M264.461 177.611C264.256 177.611 264.256 177.611 264.461 177.611H264.256C264.05 177.611 263.844 177.611 263.844 177.405C263.433 177.405 263.022 177.2 262.609 177.2C261.169 176.994 259.934 176.788 258.699 176.788C258.081 176.788 257.464 176.788 256.641 176.581H256.435C252.114 176.17 248.615 175.759 245.321 174.73C243.881 174.112 243.469 173.289 243.057 172.466C243.057 172.26 242.851 172.26 242.851 172.054L240.176 171.232C241.44 161.55 240.952 151.72 238.736 142.212C236.488 132.624 232.588 123.501 227.21 115.251L229.269 113.4V112.988C229.269 111.959 229.475 110.93 230.297 109.9C232.767 107.636 235.855 105.785 239.559 103.52C240.176 103.109 240.793 102.904 241.411 102.491C242.646 101.874 243.675 101.258 244.91 100.434C245.116 100.228 245.527 100.023 245.939 99.6115C246.145 99.4046 246.35 99.4046 246.35 99.199C249.231 96.7293 249.849 92.6134 247.791 89.9368C246.762 88.4963 244.91 87.6739 243.057 87.6739C241.412 87.6739 239.97 88.2907 238.53 89.32L238.119 89.7312C237.708 89.9368 237.501 90.3493 237.089 90.5549C236.06 91.5841 235.237 92.4066 234.414 93.4358C234.003 93.8471 233.592 94.4651 232.974 94.8763C230.091 97.9641 227.416 100.434 224.741 102.286C224.124 102.697 223.507 102.904 222.889 102.904C222.478 102.904 222.065 102.904 221.654 102.697H221.243L218.772 104.344C216.096 101.463 213.216 98.9934 210.335 96.5237C197.929 86.8267 182.999 80.8974 167.321 79.441L167.115 76.7656L166.704 76.3544C166.086 75.7363 165.263 75.1195 165.057 73.679C164.851 70.3856 165.263 66.681 165.675 62.5651V62.3595C165.675 61.7414 165.88 60.919 166.086 60.301C166.291 59.0673 166.497 57.8312 166.704 56.3907V54.539C166.704 50.8344 163.822 47.7478 160.324 47.7478C158.677 47.7478 157.03 48.5702 155.796 49.8051C154.562 51.04 153.944 52.6861 153.944 54.539V56.1851C153.944 57.6256 154.149 58.8605 154.561 60.0954C154.766 60.7134 154.766 61.3302 154.972 62.1539V62.3595C155.383 66.4754 156.001 70.18 155.59 73.4734C155.384 74.9139 154.561 75.5307 153.944 76.1488L153.533 76.56L153.326 79.2354C149.621 79.6466 145.917 80.0578 142.212 80.8814C126.365 84.3805 112.37 92.4078 101.463 103.932L99.4048 102.491H98.9936C98.5824 102.491 98.1699 102.697 97.7587 102.697C97.1407 102.697 96.5238 102.491 95.9058 102.08C93.2304 100.228 90.5551 97.5517 87.6741 94.4651C87.2629 94.0539 86.8517 93.4358 86.2336 93.0246C85.4099 91.9954 84.5863 91.1717 83.557 90.1437C83.3514 89.9368 82.9402 89.7325 82.529 89.32C82.3234 89.1144 82.1178 89.1144 82.1178 88.9088C80.8426 87.8553 79.2434 87.2736 77.5895 87.2614C75.7365 87.2614 73.8848 88.0851 72.8555 89.5256C70.797 92.201 71.4151 96.3168 74.296 98.7866C74.5016 98.7866 74.5016 98.9934 74.7072 98.9934C75.1185 99.199 75.3253 99.6102 75.7365 99.8158C76.9714 100.638 78.0007 101.256 79.2355 101.874C79.8536 102.08 80.4704 102.491 81.0885 102.904C84.7919 105.167 87.8797 107.02 90.3495 109.284C91.3787 110.312 91.3787 111.341 91.3787 112.37V112.781L93.436 114.634C93.0248 115.251 92.6136 115.664 92.4068 116.28C82.1165 132.54 78.2063 151.68 80.8816 170.614L78.2063 171.436C78.2063 171.643 78.0007 171.643 78.0007 171.848C77.5895 172.671 76.9714 173.495 75.7365 174.112C72.6499 175.141 68.9453 175.553 64.6238 175.965H64.417C63.8002 175.965 62.9765 175.965 62.3597 176.17C61.1248 176.17 59.8899 176.376 58.4495 176.581C58.0382 176.581 57.627 176.788 57.2146 176.788C57.009 176.788 56.8034 176.788 56.5965 176.994C52.8919 177.816 50.6277 181.315 51.2458 184.608C51.8638 187.49 54.5392 189.343 57.8314 189.343C58.4495 189.343 58.8607 189.343 59.4787 189.136C59.6843 189.136 59.8899 189.136 59.8899 188.93C60.3012 188.93 60.7124 188.725 61.1236 188.725C62.5653 188.313 63.5946 187.902 64.8295 187.284C65.4463 187.079 66.0631 186.666 66.6812 186.462H66.8868C70.797 185.02 74.296 183.785 77.5895 183.374H78.0007C79.2355 183.374 80.0592 183.991 80.676 184.403C80.8816 184.403 80.8816 184.609 81.0872 184.609L83.9695 184.198C88.909 199.426 98.3755 213.01 110.93 222.889C113.811 225.152 116.692 227.005 119.78 228.858L118.545 231.532C118.545 231.739 118.75 231.739 118.75 231.943C119.162 232.767 119.573 233.796 119.162 235.236C117.928 238.324 116.075 241.411 113.811 244.91V245.115C113.4 245.733 112.988 246.145 112.577 246.761C111.754 247.791 111.136 248.82 110.312 250.055C110.106 250.26 109.901 250.672 109.695 251.084C109.695 251.29 109.489 251.495 109.489 251.495C107.843 254.994 109.078 258.905 112.165 260.345C112.987 260.756 113.811 260.963 114.635 260.963C117.104 260.963 119.574 259.316 120.809 257.052C120.809 256.846 121.015 256.64 121.015 256.64C121.22 256.229 121.426 255.818 121.631 255.611C122.249 254.171 122.455 253.141 122.866 251.907L123.484 250.055C124.925 245.939 125.954 242.646 127.806 239.765C128.628 238.53 129.659 238.324 130.481 237.912C130.687 237.912 130.687 237.912 130.892 237.706L132.334 235.031C141.389 238.53 151.268 240.381 161.146 240.381C167.115 240.381 173.289 239.765 179.053 238.324C182.679 237.513 186.253 236.482 189.754 235.236L190.988 237.5C191.195 237.5 191.195 237.5 191.4 237.706C192.429 237.912 193.252 238.324 194.076 239.559C195.722 242.44 196.957 245.939 198.397 249.849V250.055L199.015 251.907C199.426 253.141 199.632 254.376 200.249 255.611C200.456 256.022 200.661 256.229 200.867 256.64C200.867 256.846 201.074 257.052 201.074 257.052C202.307 259.521 204.777 260.963 207.247 260.963C208.07 260.963 208.894 260.756 209.717 260.345C211.157 259.523 212.392 258.287 212.804 256.64C213.216 254.994 213.216 253.141 212.393 251.495C212.393 251.29 212.186 251.29 212.186 251.084C211.981 250.673 211.775 250.262 211.569 250.055C210.951 248.82 210.129 247.791 209.305 246.761C208.894 246.145 208.483 245.733 208.072 245.117V244.91C205.806 241.411 203.748 238.324 202.72 235.236C202.308 233.796 202.72 232.973 202.925 231.944C202.925 231.739 203.131 231.739 203.131 231.533L202.102 229.063C213.01 222.683 222.271 213.627 229.269 202.514C232.974 196.751 235.855 190.371 237.912 183.991L240.382 184.402C240.588 184.402 240.588 184.196 240.793 184.196C241.617 183.785 242.235 183.168 243.469 183.168H243.881C247.174 183.58 250.672 184.813 254.583 186.255H254.789C255.406 186.46 256.023 186.872 256.641 187.077C257.876 187.695 258.905 188.107 260.345 188.519C260.757 188.519 261.168 188.725 261.58 188.725C261.786 188.725 261.991 188.725 262.197 188.93C262.815 189.136 263.226 189.136 263.844 189.136C266.931 189.136 269.606 187.079 270.43 184.403C270.43 181.933 268.166 178.64 264.461 177.612V177.611ZM169.172 167.526L160.117 171.849L151.062 167.526L148.799 157.854L154.972 150.033H165.057L171.231 157.854L169.174 167.526H169.172ZM222.889 146.123C224.485 152.929 224.972 159.947 224.329 166.908L192.841 157.854C189.96 157.031 188.314 154.149 188.93 151.268C189.136 150.445 189.548 149.621 190.165 149.004L215.068 126.571C218.566 132.334 221.242 138.921 222.889 146.123ZM205.189 114.223L178.229 133.363C175.965 134.804 172.877 134.391 171.025 132.128C170.408 131.51 170.203 130.687 169.996 129.864L168.144 96.3168C182.161 97.9308 195.218 104.242 205.189 114.223ZM145.505 97.3448C147.769 96.9336 149.827 96.5224 152.091 96.1112L150.239 129.039C150.034 131.92 147.769 134.39 144.682 134.39C143.859 134.39 142.83 134.184 142.212 133.773L114.84 114.223C123.279 105.785 133.775 100.02 145.505 97.3448ZM104.961 126.569L129.452 148.385C131.716 150.238 131.922 153.736 130.07 156C129.452 156.822 128.629 157.44 127.6 157.647L95.7002 166.908C94.4653 152.913 97.5519 138.713 104.961 126.569ZM99.4036 182.343L132.128 176.786C134.804 176.58 137.274 178.433 137.89 181.109C138.096 182.342 138.096 183.373 137.685 184.402L125.13 214.655C113.605 207.245 104.343 195.926 99.4036 182.343ZM174.524 223.299C169.79 224.328 165.057 224.945 160.117 224.945C152.915 224.945 145.917 223.711 139.332 221.653L155.59 192.222C157.236 190.369 159.911 189.547 162.176 190.782C163.137 191.371 163.975 192.139 164.645 193.045L180.492 221.653C178.64 222.269 176.582 222.682 174.523 223.299H174.524ZM214.656 194.692C209.511 202.924 202.718 209.509 194.899 214.655L181.934 183.577C181.316 181.109 182.345 178.433 184.815 177.197C185.637 176.786 186.666 176.58 187.696 176.58L220.625 182.138C219.39 186.665 217.331 190.782 214.656 194.692Z" fill="white"/>
</svg>
