<svg width="200" height="200" viewBox="0 0 200 200" fill="none" xmlns="http://www.w3.org/2000/svg">
<g clip-path="url(#clip0_634_126)">
<path d="M181.725 152.375L112.941 6.30011C112.086 4.50105 110.76 2.96701 109.104 1.86076C107.448 0.754507 105.522 0.117307 103.533 0.0167731C101.541 -0.115795 99.5509 0.300446 97.7789 1.22022C96.007 2.13998 94.5212 3.52806 93.4832 5.23344L18.8832 126.067C17.7509 127.892 17.1621 130.001 17.1857 132.149C17.2094 134.296 17.8444 136.392 19.0165 138.192L55.4832 194.675C56.8635 196.793 58.8908 198.408 61.2632 199.28C63.6357 200.153 66.2264 200.236 68.6498 199.517L174.508 168.208C177.75 167.25 180.4 164.958 181.783 161.917C183.166 158.875 183.15 155.392 181.725 152.375V152.375ZM166.325 158.642L76.4998 185.2C75.8774 185.389 75.2166 185.414 74.5817 185.272C73.9468 185.131 73.3595 184.827 72.877 184.39C72.3945 183.954 72.0332 183.4 71.8284 182.782C71.6235 182.165 71.5821 181.505 71.7082 180.867L103.791 27.2168C104.391 24.3418 108.366 23.8834 109.616 26.5501L169.025 152.7C169.287 153.263 169.425 153.875 169.428 154.496C169.431 155.117 169.299 155.731 169.041 156.296C168.784 156.86 168.407 157.363 167.936 157.768C167.466 158.173 166.913 158.471 166.316 158.642H166.325Z" fill="#D1D5DB"/>
</g>
<defs>
<clipPath id="clip0_634_126">
<rect width="200" height="200" fill="white"/>
</clipPath>
</defs>
</svg>
