<svg width="390" height="130" viewBox="0 0 390 130" fill="none" xmlns="http://www.w3.org/2000/svg">
<g clip-path="url(#clip0_675_147)">
<path d="M72.5301 27.072H72.7091C51.4536 27.072 37.1639 39.3158 37.1639 63.4078V78.0921C39.3571 77.1394 41.7048 76.5923 44.0932 76.4772C46.518 76.3796 48.9244 76.9374 51.059 78.0921V63.4078C51.059 47.8964 59.6404 39.7111 72.6017 39.7111C85.5629 39.7111 94.1444 47.8964 94.1444 63.4078V100.964H108.039V63.4078C108.039 39.315 93.6774 27.072 72.5301 27.072V27.072ZM115.723 65.0234H115.58C115.58 42.978 131.485 27.072 154.356 27.072C177.228 27.072 192.739 43.0854 192.739 65.0234V69.9418H130.265C131.889 81.8496 142.353 90.5353 154.356 89.9412C163.763 89.9412 170.299 87.1046 174.391 80.9645H189.615C183.906 94.4292 170.836 103.01 154.105 103.01C131.629 103.01 115.723 87.1046 115.723 65.0234V65.0234ZM178.592 57.842C175.967 46.814 165.818 39.2518 154.5 39.8901C143.281 39.2731 133.266 46.8719 130.839 57.842H178.592V57.842ZM200.386 65.0234C200.386 43.4396 215.922 27.59 238.205 27.0842L239.306 27.072C244.384 26.8709 249.45 27.7084 254.193 29.5333C258.936 31.3582 263.257 34.132 266.89 37.6849C270.524 41.2378 273.394 45.4951 275.325 50.1959C277.256 54.8967 278.207 59.9422 278.119 65.0234C278.119 87.1046 262.178 103.01 239.306 103.01C216.435 103.01 200.386 87.1046 200.386 65.0234V65.0234ZM263.65 65.0234C263.843 61.7054 263.332 58.3841 262.15 55.2778C260.967 52.1715 259.141 49.3505 256.791 47.0003C254.441 44.6502 251.62 42.824 248.514 41.6419C245.407 40.4597 242.086 39.9484 238.768 40.1414C235.464 40.0103 232.168 40.5638 229.088 41.7674C226.008 42.9709 223.21 44.7984 220.87 47.1351C218.529 49.4718 216.698 52.2671 215.49 55.3455C214.282 58.4239 213.724 61.7189 213.85 65.0234C213.657 68.3461 214.169 71.6721 215.353 74.7827C216.537 77.8934 218.366 80.7182 220.72 83.0717C223.073 85.4252 225.898 87.254 229.009 88.438C232.119 89.6219 235.445 90.1342 238.768 89.9412C253.884 90.3716 263.65 79.7442 263.65 65.0234V65.0234ZM385.114 31.9554V100.532C385.114 118.485 378.149 127.496 360.197 127.496H357.325V115.685H358.976C367.952 115.685 371.219 111.591 371.219 101.323V31.9554H385.114ZM338.547 17.9521C342.003 19.0601 345.016 21.2418 347.147 24.18C349.278 27.1183 350.416 30.6597 350.395 34.2892V78.5232H358.545V90.7669H350.395V107.929H336.5V90.7669H301.385C298.155 90.9093 294.949 90.144 292.132 88.5575C289.314 86.971 286.997 84.6269 285.444 81.7909C284.16 79.1635 283.67 76.219 284.034 73.3175C284.397 70.416 285.599 67.6834 287.491 65.4538L318.871 24.1996C321.037 21.1738 324.123 18.9301 327.67 17.804C331.216 16.6779 335.032 16.7299 338.547 17.9521V17.9521ZM333.987 31.1297H332.766C332.19 31.1541 331.628 31.317 331.128 31.6044C330.629 31.8919 330.205 32.2955 329.894 32.7811L298.943 73.2095C298.416 73.7609 298.12 74.4934 298.117 75.2562C298.118 76.2084 298.496 77.1215 299.169 77.7947C299.843 78.4679 300.756 78.8461 301.708 78.8461H336.427V34.3966C336.427 31.9554 334.812 31.1289 333.986 31.1289L333.987 31.1297Z" fill="#D1D5DB"/>
<path d="M378.15 0C371.607 0 366.302 5.30454 366.302 11.8484C366.302 18.3922 371.607 23.6968 378.15 23.6968C384.693 23.6968 389.999 18.3922 389.999 11.8484C389.999 5.3053 384.694 0 378.15 0ZM43.3048 83.4064C40.7526 83.2738 38.2507 84.1507 36.3397 85.8476L23.2703 77.302C23.622 76.2507 23.7683 75.1416 23.7015 74.035C23.7085 71.6901 23.0197 69.3959 21.7221 67.4427C20.4245 65.4896 18.5765 63.9653 16.4121 63.0631C14.2477 62.1608 11.8643 61.9211 9.5636 62.3742C7.26289 62.8273 5.14836 63.9529 3.48775 65.6085C1.82715 67.2641 0.695137 69.3752 0.235056 71.6745C-0.225026 73.9739 0.00751169 76.358 0.903226 78.5251C1.79894 80.6922 3.31755 82.5448 5.26677 83.8483C7.21599 85.1518 9.50817 85.8476 11.8531 85.8476C13.1122 85.9203 14.3733 85.7419 15.5629 85.3228C16.7525 84.9037 17.8468 84.2523 18.7823 83.4064L31.8517 92.3823C31.528 93.4396 31.3947 94.5456 31.4564 95.6501C31.3909 96.7538 31.525 97.8605 31.8517 98.917L18.7823 107.929C16.8245 106.334 14.3784 105.459 11.8531 105.452C9.50969 105.452 7.21893 106.147 5.27048 107.449C3.32202 108.75 1.80338 110.601 0.906609 112.766C0.00983342 114.931 -0.224804 117.313 0.232368 119.612C0.689541 121.91 1.81799 124.021 3.47501 125.678C5.13204 127.335 7.24322 128.464 9.54158 128.921C11.8399 129.378 14.2223 129.143 16.3873 128.247C18.5523 127.35 20.4027 125.831 21.7046 123.883C23.0066 121.934 23.7015 119.643 23.7015 117.3C23.7708 116.193 23.6253 115.084 23.2703 114.032L36.3397 105.056C38.3105 106.649 40.7711 107.511 43.3048 107.498C44.8591 107.498 46.3982 107.191 47.8338 106.595C49.2694 105.999 50.5733 105.126 51.6707 104.025C52.7682 102.925 53.6376 101.618 54.2292 100.181C54.8208 98.7436 55.1228 97.2036 55.1181 95.6493C55.1593 89.0377 49.9149 83.6013 43.3048 83.4064" fill="#018BFF"/>
</g>
<defs>
<clipPath id="clip0_675_147">
<rect width="390" height="129.491" fill="white"/>
</clipPath>
</defs>
</svg>
