<svg width="200" height="200" viewBox="0 0 200 200" fill="none" xmlns="http://www.w3.org/2000/svg">
<path d="M196.333 122.692C196.218 122.34 196.058 122.004 195.858 121.692C194.7 119.508 191.883 118.85 187.467 119.767C173.683 122.6 168.35 120.85 166.417 119.6C177.6 102.533 186.792 81.9168 191.758 62.6834C194.025 53.9334 198.408 33.3251 192.775 23.2668C192.418 22.5752 192 21.917 191.525 21.3001C180.767 7.58343 165 0.208432 145.917 0.00843241C133.458 -0.124901 122.833 2.89177 119.95 4.0001C118.523 3.73273 117.089 3.50486 115.65 3.31677C112.041 2.66548 108.384 2.31151 104.717 2.25843C94.8667 2.1001 86.3583 4.45843 79.3 9.25843C72.1667 6.58343 39.4083 -4.4499 19.1333 9.91677C7.79167 17.9418 2.575 32.2751 3.58334 52.5334C3.925 59.3501 7.80834 80.3168 13.9417 100.4C17.775 112.95 21.7583 122.917 25.8833 130.25C30.4917 138.533 35.2667 143.525 40.1667 145.167C43.9 146.4 49.6083 146.358 55.65 139.092C60.8909 132.823 66.2955 126.693 71.8583 120.708C75.4833 122.667 79.4083 123.725 83.4417 123.85C83.4413 123.861 83.4413 123.872 83.4417 123.883C82.7405 124.718 82.0543 125.566 81.3833 126.425C78.5583 130.008 77.9667 130.758 68.8833 132.633C66.3 133.167 59.4333 134.575 59.3333 139.392C59.3142 140.355 59.5779 141.302 60.0917 142.117C61.9833 145.642 67.775 147.2 68.55 147.392C79.675 150.167 89.425 148.158 96.65 141.733C96.5083 160.325 97.2917 178.55 99.525 184.133C101.367 188.742 105.875 200 120.108 200C122.192 200 124.492 199.75 127.017 199.217C141.867 196.033 148.317 189.467 150.808 175C152.058 167.75 154.158 151.042 155.3 140.825C155.442 140.242 155.6 139.825 155.775 139.692C155.775 139.692 156.358 139.292 159.333 139.942C159.454 139.969 159.577 139.988 159.7 140L161.817 140.183L161.942 140.192C169 140.517 177.867 139.008 183.033 136.608C188.4 134.108 198.083 128 196.325 122.692H196.333ZM19.75 98.9668C13.55 78.6751 9.93334 58.2584 9.65 52.5418C8.74167 34.4418 13.125 21.8501 22.6667 15.1001C37.975 4.2751 63 10.6001 73.5667 14.0168L73.4833 14.1001C56.625 31.1168 57.025 60.2168 57.0833 62.0001C57.0833 62.6834 57.1333 63.6584 57.2167 65.0001C57.5 69.8834 58.05 79.0001 56.6 89.3168C55.2667 98.9001 58.2167 108.283 64.7083 115.058C65.375 115.758 66.0833 116.417 66.8083 117.033C63.9167 120.125 57.6417 126.975 50.95 135.017C46.2167 140.7 42.95 139.608 41.8833 139.25C38.6167 138.167 35.1083 134.358 31.5583 128.233C27.5583 121.242 23.5333 111.3 19.7667 98.9668H19.75ZM69.8083 141.367C68.5432 141.048 67.3307 140.549 66.2083 139.883C66.95 139.558 68.1833 139.133 70.2333 138.717C80.9333 136.508 82.5833 134.958 86.1917 130.383C87.1637 129.114 88.1838 127.883 89.25 126.692C89.5302 126.379 89.7404 126.009 89.8667 125.608C91.2833 124.35 92.1333 124.692 93.5 125.258C94.8 125.8 96.0667 127.425 96.5833 129.217C96.8333 130.067 97.1 131.675 96.2083 132.925C88.675 143.475 77.6917 143.342 69.8083 141.367ZM87.2583 108.133L86.825 109.3C85.7167 112.275 84.6833 115.042 84.0417 117.667C78.4833 117.65 73.0667 115.267 68.9583 110.975C63.725 105.517 61.35 97.9251 62.4333 90.1418C63.9583 79.2418 63.4 69.7501 63.1 64.6501L62.9917 62.8168C65.4583 60.6334 76.875 54.5168 85.0167 56.3834C88.7333 57.2334 91 59.7668 91.9333 64.1168C96.8083 86.6501 92.5833 96.0334 89.1833 103.583C88.4935 105.078 87.8542 106.596 87.2667 108.133H87.2583ZM148.625 146.233C148.483 147.708 148.325 149.367 148.108 151.2L146.892 154.85C146.795 155.141 146.745 155.444 146.742 155.75C146.692 159.708 146.292 161.158 145.783 163C144.956 165.871 144.453 168.825 144.283 171.808C143.367 183.592 136.967 190.367 124.142 193.108C111.517 195.817 109.275 188.975 107.308 182.933C107.103 182.299 106.886 181.668 106.658 181.042C104.867 176.158 105.075 169.275 105.35 159.75C105.483 155.075 105.142 143.908 102.6 137.7C102.633 135.258 102.683 132.775 102.758 130.267C102.765 129.948 102.72 129.63 102.625 129.325C102.544 128.739 102.422 128.16 102.258 127.592C101.242 124.025 98.7583 121.042 95.7583 119.8C94.575 119.308 92.4 118.408 89.7833 119.075C90.3417 116.775 91.3083 114.183 92.3583 111.367L92.8 110.183C93.3 108.85 93.9167 107.475 94.575 106.017C98.125 98.1168 102.992 87.3001 97.7083 62.8668C95.7333 53.7168 89.125 49.2501 79.1083 50.2834C73.1083 50.9084 67.6083 53.3334 64.8667 54.7168C64.3166 54.995 63.7721 55.2839 63.2333 55.5834C64 46.3668 66.8917 29.1334 77.7 18.2334C78.5021 17.4244 79.3449 16.6568 80.225 15.9334C80.663 15.8495 81.0762 15.6672 81.4333 15.4001C87.7 10.6501 95.5583 8.31677 104.783 8.45843C108.2 8.51677 111.467 8.74177 114.567 9.13343C130.733 12.0918 141.6 21.1918 148.2 28.9918C154.983 37.0084 158.658 45.0834 160.125 49.4418C149.1 48.3251 141.6 50.5001 137.792 55.9418C129.525 67.7584 142.325 90.7084 148.475 101.742C149.6 103.758 150.575 105.508 150.883 106.242C152.883 111.1 155.475 114.342 157.367 116.708C157.95 117.433 158.517 118.133 158.942 118.75C155.608 119.717 149.608 121.942 150.15 133.058C149.943 135.325 149.71 137.589 149.45 139.85C149.067 141.583 148.867 143.683 148.617 146.233H148.625ZM156.042 132.725C155.708 125.792 158.292 125.067 161.017 124.308C161.394 124.204 161.77 124.09 162.142 123.967C162.493 124.279 162.866 124.566 163.258 124.825C168.008 127.958 176.45 128.333 188.317 125.942C186.633 127.417 183.992 129.275 180.375 130.95C176.958 132.533 171.242 133.725 165.817 133.983C159.817 134.267 156.767 133.317 156.042 132.725V132.725ZM160.792 55.4668C160.694 58.2642 160.401 61.0515 159.917 63.8084C159.458 66.7918 158.983 69.8751 158.858 73.6168C158.742 77.2501 159.192 81.0334 159.633 84.7001C160.525 92.0918 161.433 99.7001 157.908 107.208C157.322 106.172 156.798 105.1 156.342 104C155.518 102.246 154.615 100.53 153.633 98.8584C148.5 89.6584 136.492 68.1084 142.633 59.3251C145.8 54.8001 153.817 54.6084 160.792 55.4668V55.4668ZM162.692 113.908C162.457 113.61 162.221 113.313 161.983 113.017L161.692 112.65C167.742 102.65 166.558 92.7584 165.5 83.9918C165.067 80.3918 164.667 76.9918 164.767 73.8084C164.875 70.4168 165.317 67.5168 165.75 64.7084C166.283 61.2501 166.833 57.6751 166.675 53.4584C166.799 52.9403 166.832 52.4047 166.775 51.8751C166.392 47.8251 161.775 35.7251 152.358 24.7668C146.221 17.5341 138.576 11.7318 129.958 7.76677C135.509 6.63156 141.168 6.11175 146.833 6.21677C163.933 6.6001 177.458 13.0001 187.033 25.2418C187.238 25.5069 187.424 25.7853 187.592 26.0751C193.617 37.3751 185.292 78.3668 162.7 113.908H162.692ZM89.225 62.9418C89.0167 64.4418 86.6417 66.4668 84.05 66.4668C83.8241 66.4658 83.5986 66.4491 83.375 66.4168C81.6828 66.12 80.1715 65.1792 79.1583 63.7918C78.775 63.2918 78.1583 62.3084 78.275 61.4168C78.3134 61.1681 78.4019 60.9298 78.5351 60.7164C78.6683 60.503 78.8435 60.3188 79.05 60.1751C80.0333 59.4334 81.9833 59.1584 84.1333 59.4584C86.7667 59.8251 89.4833 61.0668 89.2167 62.9418H89.225ZM155.308 59.5168C155.4 60.1834 154.9 61.1834 154.033 62.1001C153.136 63.0775 151.941 63.7308 150.633 63.9584C150.426 63.9867 150.217 64.0006 150.008 64.0001C147.567 64.0001 145.5 62.0501 145.342 60.9084C145.142 59.4334 147.542 58.3251 150.008 57.9751C152.492 57.6251 155.108 58.0501 155.308 59.5168V59.5168Z" fill="#D1D5DB"/>
</svg>
