<svg width="333" height="200" viewBox="0 0 333 200" fill="none" xmlns="http://www.w3.org/2000/svg">
<path d="M166.234 0C121.905 0 94.1987 22.1649 83.1169 66.4935C99.7403 44.3286 119.134 36.0169 141.299 41.5584C153.944 44.7195 162.983 53.8948 172.988 64.0494C189.287 80.5935 208.149 99.7403 249.351 99.7403C293.679 99.7403 321.386 77.5753 332.468 33.2468C315.844 55.4117 296.451 63.7234 274.286 58.1818C261.64 55.0208 252.601 45.8455 242.596 35.6909C226.297 19.1468 207.435 0 166.234 0ZM83.1169 99.7403C38.7883 99.7403 11.0818 121.905 0 166.234C16.6234 144.069 36.0169 135.757 58.1818 141.299C70.8273 144.46 79.8662 153.635 89.8714 163.79C106.17 180.334 125.032 199.481 166.234 199.481C210.562 199.481 238.269 177.316 249.351 132.987C232.727 155.152 213.334 163.464 191.169 157.922C178.523 154.761 169.484 145.586 159.479 135.431C143.181 118.887 124.318 99.7403 83.1169 99.7403Z" fill="url(#paint0_linear_632_169)"/>
<defs>
<linearGradient id="paint0_linear_632_169" x1="-9.23595" y1="63.8338" x2="277.904" y2="229.394" gradientUnits="userSpaceOnUse">
<stop stop-color="#2298BD"/>
<stop offset="1" stop-color="#0ED7B5"/>
</linearGradient>
</defs>
</svg>
