<svg width="716" height="716" viewBox="0 0 716 716" fill="none" xmlns="http://www.w3.org/2000/svg">
<path d="M409.91 126.195C384.85 96.3615 363.071 66.5282 358.895 59.9648H358C353.823 66.2298 332.045 96.3615 306.985 126.195C92.1849 400.363 340.995 585.33 340.995 585.33L343.083 586.822C344.873 615.163 349.646 656.333 349.646 656.333H368.143C368.143 656.333 372.618 615.462 374.408 586.822L376.496 585.032C376.496 585.032 624.71 400.363 409.91 126.195ZM358 581.153C352.771 576.858 347.975 572.062 343.68 566.833L358 268.5L371.425 566.833C367.4 572.01 362.906 576.803 358 581.153Z" fill="#1DAB45"/>
</svg>
