<svg width="256" height="233" viewBox="0 0 256 233" fill="none" xmlns="http://www.w3.org/2000/svg">
<path d="M138.63 32.2321C140.107 32.2321 141.526 32.8094 142.584 33.8408C143.642 34.8722 144.255 36.276 144.293 37.7531L144.295 37.8971V102.742C144.295 104.22 143.718 105.639 142.687 106.697C141.655 107.755 140.251 108.368 138.774 108.406L138.63 108.408H85.754C84.2762 108.408 82.8568 107.831 81.7986 106.799C80.7404 105.768 80.1273 104.363 80.09 102.886L80.089 102.742V37.8971C80.0893 36.4196 80.6666 35.0006 81.6979 33.9426C82.7292 32.8845 84.133 32.2711 85.61 32.2331L85.754 32.2321H138.63ZM138.63 34.7521H85.754C84.9391 34.7523 84.156 35.0682 83.5692 35.6336C82.9824 36.199 82.6375 36.9698 82.607 37.7841L82.604 37.8971V102.742C82.6052 103.558 82.9222 104.341 83.4884 104.928C84.0546 105.515 84.8261 105.86 85.641 105.89L85.754 105.892H138.63C139.445 105.891 140.228 105.573 140.815 105.007C141.402 104.441 141.746 103.67 141.777 102.855L141.779 102.742V37.8971C141.778 37.0625 141.445 36.2626 140.855 35.6729C140.264 35.0832 139.464 34.7521 138.629 34.7521H138.63ZM93.306 92.6701V96.4441H89.528V92.6701H93.306ZM135.486 92.6701V96.4441H95.197V92.6701H135.484H135.486ZM93.306 76.3031V80.0771H89.528V76.3031H93.306ZM135.486 76.3031V80.0771H95.197V76.3031H135.484H135.486ZM93.306 60.5651V64.3381H89.528V60.5651H93.306ZM135.486 60.5651V64.3381H95.197V60.5651H135.484H135.486ZM135.486 46.0851V49.8631H89.527V46.0841H135.484L135.486 46.0851ZM138.63 121.62V121.66C140.101 121.66 141.515 122.232 142.571 123.255C143.628 124.278 144.246 125.673 144.293 127.143L144.295 127.286V192.131C144.295 193.609 143.718 195.028 142.687 196.086C141.655 197.144 140.251 197.757 138.774 197.795L138.63 197.797H85.754C84.2812 197.797 82.8663 197.224 81.8091 196.198C80.752 195.173 80.1357 193.776 80.091 192.304L80.089 192.131V127.286C80.0893 125.809 80.6666 124.39 81.6979 123.332C82.7292 122.274 84.133 121.66 85.61 121.622L85.754 121.621H138.63V121.62ZM138.63 124.141H85.754C84.9391 124.141 84.156 124.457 83.5692 125.023C82.9824 125.588 82.6375 126.359 82.607 127.173L82.604 127.286V192.131C82.6052 192.947 82.9222 193.73 83.4884 194.317C84.0546 194.904 84.8261 195.249 85.641 195.279L85.754 195.281H138.63C139.442 195.28 140.223 194.965 140.809 194.403C141.395 193.841 141.742 193.074 141.777 192.263L141.779 192.151V127.306C141.778 126.491 141.461 125.709 140.895 125.123C140.328 124.536 139.557 124.193 138.743 124.163L138.63 124.161V124.141ZM93.306 182.073V185.852H89.528V182.073H93.306ZM135.486 182.103V185.823H95.197V182.103H135.484H135.486ZM93.306 165.706V169.484H89.528V165.706H93.306ZM135.486 165.735V169.455H95.197V165.735H135.484H135.486ZM93.306 149.972V153.746H89.528V149.972H93.306ZM135.486 150.002V153.717H95.197V150H135.484L135.486 150.002ZM135.486 135.492V139.27H89.527V135.492H135.484H135.486ZM153.879 70.3201V73.4641H172.762V158.995H153.879V162.144H175.911V70.3201H172.762H153.879Z" fill="#8E8F8F"/>
<path d="M19.332 14.795C23.055 8.68798 29.189 5.12598 35.385 3.05798L36.23 2.78498L37.074 2.52998C37.496 2.40698 37.917 2.28998 38.337 2.17998L39.174 1.96698C39.314 1.93298 39.453 1.89898 39.591 1.86698L40.421 1.67698L40.832 1.58798L41.65 1.42098L42.459 1.26898L43.257 1.12898L44.044 1.00298L44.817 0.887977L45.576 0.785977L46.319 0.694977L47.045 0.613977L47.753 0.542977L48.777 0.452977L49.752 0.382977L50.674 0.330977L51.676 0.287977L52.593 0.261977L53.153 0.252977L53.669 0.248977H54.14L54.757 0.256977L55.105 0.263977L55.74 0.285977L56.02 0.299977V15.414C42.652 14.142 36.687 18.18 34.057 22.483L33.82 22.887C33.4931 23.4692 33.2106 24.0752 32.975 24.7L32.833 25.096C32.81 25.161 32.788 25.226 32.767 25.292L32.646 25.682L32.538 26.065L32.444 26.441C32.429 26.503 32.414 26.565 32.401 26.626L32.324 26.991L32.29 27.171L32.23 27.521L32.178 27.861L32.137 28.19L32.09 28.66L32.059 29.099L32.044 29.443L32.037 29.762V30.052L32.042 30.312L32.052 30.542L32.069 30.822L32.101 31.152V36.705L32.068 48.042L32.028 56.212L31.982 63.084L31.932 68.891L31.882 73.464L31.824 77.916L31.764 81.711L31.688 85.732L31.641 87.827L31.59 89.807L31.524 92.012L31.501 92.702L31.499 93.978L31.492 94.759L31.483 95.287L31.463 96.085L31.431 96.857L31.405 97.327L31.375 97.799L31.337 98.273L31.269 98.985L31.215 99.461L31.152 99.938L31.081 100.415L31.042 100.653L30.957 101.129L30.911 101.367L30.811 101.842L30.701 102.316L30.58 102.789C30.537 102.946 30.493 103.103 30.446 103.259L30.3 103.729L30.142 104.194L29.97 104.657C28.034 109.66 23.65 114.115 13.725 116.178C23.381 118.183 27.792 122.448 29.807 127.278L29.991 127.74C30.169 128.204 30.326 128.672 30.464 129.143L30.597 129.615C30.681 129.93 30.757 130.247 30.827 130.565L30.925 131.041L30.97 131.28L31.054 131.757L31.129 132.235L31.194 132.713L31.252 133.191L31.302 133.668L31.344 134.144L31.38 134.619L31.423 135.328L31.445 135.798L31.472 136.586L31.484 137.106L31.493 137.623L31.499 138.388L31.501 139.658L31.569 141.872L31.629 144.21L31.685 146.716L31.735 149.37L31.79 152.624L31.864 157.999L31.914 162.554L31.94 165.116L31.993 171.662L32.051 181.374L32.091 191.885L32.106 191.876V201.199L32.091 201.331L32.073 201.529L32.062 201.707L32.047 202.038L32.042 202.299V202.589L32.049 202.908L32.064 203.252L32.094 203.686L32.123 203.991L32.181 204.473L32.231 204.809L32.29 205.154L32.36 205.509L32.398 205.689L32.484 206.057L32.532 206.243L32.636 206.621L32.754 207.004C32.774 207.069 32.796 207.134 32.818 207.198L32.957 207.588C33.005 207.719 33.057 207.851 33.11 207.983L33.28 208.379C35.38 213.087 40.917 218.172 55.24 217.006L56.025 216.936V232.051L55.624 232.071L54.88 232.092L54.268 232.102H53.541L52.996 232.097L52.406 232.085L51.774 232.067L50.952 232.034L50.372 232.005L49.77 231.969L49.144 231.926L48.498 231.876L47.832 231.816L47.147 231.749L46.444 231.672L45.725 231.585L44.991 231.488C44.8669 231.471 44.7429 231.453 44.619 231.435L43.865 231.321L43.483 231.261L42.711 231.129C42.5809 231.106 42.4509 231.083 42.321 231.059L41.534 230.907C41.4016 230.881 41.2692 230.854 41.137 230.827L40.337 230.657L39.532 230.471C39.262 230.407 38.992 230.341 38.721 230.271L37.905 230.056C30.415 228.014 22.545 223.978 18.498 216.069C19.376 206.347 23.374 198.059 30.555 192.9C30.893 192.662 31.235 192.43 31.582 192.207L31.974 191.958C31.488 192.258 31.01 192.576 30.541 192.91C23.374 198.059 19.376 206.347 18.498 216.03C16.696 212.392 15.7518 208.389 15.738 204.329L15.648 200.162L15.531 195.11L15.385 189.198L15.185 181.662L15.003 175.126L14.751 166.569L14.467 157.403L13.991 142.979L13.876 139.634C13.595 132.062 10.556 128.374 7.393 126.594L7.02 126.393C6.95828 126.361 6.89628 126.33 6.834 126.299L6.461 126.123C6.33817 126.068 6.21449 126.014 6.09 125.963L5.721 125.819C5.59996 125.773 5.47793 125.73 5.355 125.689L4.993 125.571C4.873 125.535 4.755 125.501 4.637 125.468L4.354 125.393L4.076 125.326L3.802 125.266L3.534 125.213L3.143 125.145L2.89 125.108L2.645 125.076L2.292 125.037L1.98 125.035L1.343 125.028C1.01035 125.023 0.677648 125.023 0.345 125.028L0 125.037V107.324C0.829 107.354 1.57 107.339 2.292 107.3L2.645 107.26L2.89 107.229L3.143 107.191L3.534 107.123L3.802 107.07L4.076 107.01L4.354 106.943L4.637 106.869L4.993 106.765L5.355 106.648L5.721 106.518C9.397 105.143 13.545 101.61 13.876 92.702L14.306 79.892L14.639 69.428L14.819 63.49L15.095 53.964L15.275 47.338L15.406 42.291L15.571 35.534L15.667 31.334L15.738 28.003C15.848 22.754 17.142 18.493 19.195 15.035L19.333 14.806L19.332 14.795ZM199.975 15.165V0.0519766L200.381 0.0319766L200.945 0.0149766L201.311 0.00797656L201.957 0.000976562H202.45L202.99 0.00697656L203.822 0.0239766L204.885 0.0619766L205.454 0.0889766L206.046 0.122977L206.977 0.185977L207.624 0.237977L208.29 0.297977L208.975 0.367977L209.676 0.445977L210.394 0.533977L211.126 0.631977L211.872 0.741977L212.631 0.861977L213.014 0.926977L213.789 1.06598L214.573 1.21798L215.365 1.38198L216.165 1.56198L216.969 1.75398C217.373 1.85398 217.779 1.96098 218.185 2.07198L218.999 2.30398C226.609 4.53898 234.432 8.89598 238.107 17.331C239.505 20.6282 240.238 24.1695 240.262 27.751L240.352 31.918L240.469 36.97L240.551 40.35L240.681 45.41L240.86 52.073L240.997 56.957L241.249 65.515L241.533 74.681L242.009 89.105L242.124 92.45C242.41 100.148 245.546 103.83 248.765 105.575L249.137 105.768L249.323 105.858L249.693 106.028L250.063 106.18C250.124 106.205 250.186 106.228 250.247 106.251L250.612 106.383L250.793 106.443L251.152 106.554L251.329 106.605L251.855 106.74L252.198 106.817L252.532 106.882L252.857 106.938L253.11 106.976L253.355 107.008L253.708 107.047C254.327 107.08 254.971 107.096 255.655 107.081L256 107.071V124.789C255.236 124.763 254.471 124.771 253.708 124.814L253.475 124.838L253.233 124.868L252.857 124.922L252.466 124.99L252.198 125.043L251.924 125.103L251.646 125.17L251.363 125.244L251.186 125.294L250.826 125.404L250.645 125.464L250.279 125.595C250.217 125.618 250.156 125.641 250.095 125.665L249.725 125.818C246.198 127.337 242.438 130.948 242.125 139.411L241.693 152.214L241.361 162.679L241.181 168.618L240.905 178.145L240.725 184.771L240.594 189.818L240.429 196.575L240.333 200.775L240.262 204.105C240.234 207.22 239.681 210.307 238.626 213.238L238.5 213.581L238.506 213.613C234.738 223.348 225.62 227.925 217.202 230.055L216.376 230.257L215.966 230.352L215.149 230.532L214.744 230.615L213.94 230.773L213.541 230.847L212.751 230.985L212.361 231.049L211.589 231.169L210.831 231.276L210.088 231.372L209.36 231.457L208.65 231.533L207.959 231.599L206.959 231.681L206.319 231.726L205.404 231.78L204.544 231.818L203.494 231.85L202.896 231.86L202.346 231.864H201.848L201.403 231.859L201.015 231.852L200.542 231.838L200.132 231.821L199.989 231.813V216.699C213.984 218.031 219.865 213.543 222.301 209.024L222.511 208.619C222.577 208.485 222.641 208.349 222.701 208.215L222.876 207.813C222.931 207.68 222.984 207.546 223.034 207.413L223.177 207.018L223.305 206.626L223.364 206.432L223.472 206.049L223.566 205.672L223.649 205.303L223.72 204.943L223.78 204.593L223.831 204.253L223.873 203.923L223.92 203.453L223.942 203.157L223.966 202.67L223.973 202.352V202.062L223.968 201.8L223.958 201.571L223.948 201.376L223.924 201.093L223.909 200.961V192.672L223.932 184.955L223.97 176.992L224.015 170.281L224.074 163.43L224.142 157.281L224.19 153.706L224.235 150.827L224.295 147.525L224.337 145.435L224.384 143.447L224.433 141.572L224.499 139.406L224.501 138.136L224.508 137.362L224.516 136.84L224.529 136.314L224.557 135.518L224.583 134.984L224.612 134.508L224.647 134.031L224.687 133.552L224.737 133.072L224.792 132.592L224.856 132.11L224.892 131.87L224.969 131.389L225.056 130.909L225.153 130.429L225.261 129.949C225.393 129.392 225.548 128.837 225.729 128.287L225.892 127.817C226.118 127.193 226.38 126.577 226.685 125.971L226.921 125.519C229.207 121.321 233.647 117.719 242.275 115.925C231.393 113.666 227.173 108.538 225.535 102.964L225.403 102.492C225.319 102.177 225.243 101.86 225.173 101.542L225.075 101.066L225.03 100.828L224.946 100.35L224.871 99.872L224.806 99.394L224.748 98.917L224.698 98.44L224.656 97.964L224.62 97.489L224.577 96.78L224.555 96.31L224.528 95.522L224.516 95.002L224.507 94.486L224.501 93.72L224.499 92.45L224.452 90.973L224.401 89.095L224.343 86.678L224.29 84.104L224.24 81.394L224.182 77.607L224.113 72.161L224.061 67.072L224.013 61.177L223.95 50.694L223.909 39.334C224.769 38.86 225.602 38.339 226.405 37.774C230.409 34.906 233.425 31.04 235.458 26.492L235.598 26.174C233.562 30.86 230.498 34.841 226.391 37.78C225.721 38.25 225.031 38.69 224.321 39.099L223.894 39.339V30.905L223.909 30.773L223.927 30.574L223.938 30.396L223.953 30.066L223.958 29.805V29.515L223.951 29.195L223.936 28.851L223.918 28.566L223.878 28.112L223.819 27.63L223.769 27.295L223.71 26.949L223.64 26.594C223.628 26.5339 223.615 26.4739 223.602 26.414L223.516 26.047C223.5 25.9845 223.484 25.9222 223.468 25.86L223.364 25.482L223.246 25.099C223.226 25.035 223.204 24.97 223.182 24.905L223.043 24.515C222.995 24.385 222.943 24.253 222.89 24.121L222.72 23.724C220.62 19.017 215.083 13.932 200.76 15.097L199.975 15.167V15.165Z" fill="#FE0902"/>
<path d="M31.17 36.092C31.32 36.202 31.476 36.305 31.632 36.406L32.101 36.706V31.153L32.086 31.021L32.069 30.822L32.057 30.644L32.042 30.313L32.037 30.053V29.762L32.044 29.443L32.059 29.099L32.078 28.809L32.103 28.506L32.137 28.19L32.178 27.861L32.229 27.521L32.289 27.171L32.361 26.81L32.401 26.626L32.489 26.254L32.59 25.874L32.646 25.681L32.766 25.292L32.833 25.096L32.975 24.7C33.201 24.103 33.479 23.494 33.82 22.887L34.057 22.483C36.687 18.18 42.652 14.143 56.021 15.414V0.3L55.741 0.286L55.26 0.269L54.938 0.26L54.14 0.25H53.67L53.153 0.253L52.297 0.269L51.515 0.294L50.674 0.331L49.752 0.384L48.777 0.454L48.099 0.511L47.045 0.614L46.319 0.694L45.576 0.786L44.817 0.888L44.044 1.003L43.257 1.129L42.459 1.269L41.65 1.421L40.832 1.588C40.6945 1.61747 40.5572 1.64747 40.42 1.678L39.591 1.867C39.453 1.899 39.314 1.933 39.174 1.967L38.337 2.18C37.917 2.29 37.497 2.407 37.074 2.53L36.23 2.785L35.385 3.058C29.189 5.126 23.055 8.688 19.332 14.795C20.536 23.712 24.466 31.314 31.17 36.092ZM56.025 232.052V216.937C41.404 218.328 35.639 213.367 33.407 208.655L33.224 208.252C33.1379 208.054 33.0565 207.854 32.98 207.652L32.838 207.255C32.8155 207.19 32.7935 207.125 32.772 207.059L32.651 206.669L32.543 206.287L32.448 205.91L32.366 205.541L32.295 205.181L32.234 204.831L32.184 204.491L32.142 204.161L32.095 203.691L32.064 203.252L32.049 202.908L32.042 202.589V202.299L32.047 202.039L32.057 201.809L32.067 201.614L32.091 201.331L32.106 201.191V191.876C31.579 192.201 31.062 192.543 30.556 192.9C23.374 198.059 19.376 206.347 18.498 216.07C22.546 223.978 30.414 228.014 37.905 230.056L38.721 230.271C38.991 230.341 39.262 230.407 39.532 230.471L40.338 230.656L41.137 230.827L41.928 230.984C42.06 231.01 42.19 231.034 42.321 231.058L43.098 231.196L43.483 231.26L44.243 231.38L44.619 231.435L45.36 231.538L45.725 231.585L46.445 231.672L47.147 231.749L47.832 231.816L48.498 231.876L49.144 231.926L49.77 231.969L50.372 232.005L51.232 232.047L51.774 232.067L52.407 232.085L52.997 232.097L53.541 232.102L54.268 232.101L54.88 232.092L55.37 232.079L56.025 232.051V232.052ZM238.107 17.33C234.197 8.358 225.596 4 217.55 1.901L216.747 1.699L215.949 1.511L215.553 1.422L214.765 1.255L214.373 1.177L213.597 1.03L212.831 0.895L212.075 0.772L211.331 0.66L210.6 0.56L209.883 0.47L209.182 0.389L208.497 0.318L207.83 0.255L206.865 0.177L205.946 0.116L205.078 0.069L204.264 0.036L203.754 0.021L203.139 0.008L202.57 0H202.052L201.585 0.003L201.173 0.009L200.661 0.022L200.285 0.036L199.975 0.051V15.166C214.596 13.774 220.361 18.735 222.593 23.447L222.776 23.851C222.863 24.051 222.944 24.252 223.02 24.451L223.162 24.847C223.185 24.913 223.207 24.978 223.228 25.044L223.349 25.433L223.457 25.816L223.552 26.192L223.634 26.562L223.705 26.922L223.766 27.272L223.816 27.612L223.858 27.942L223.905 28.412L223.936 28.85L223.951 29.195L223.958 29.513V29.803L223.953 30.064L223.943 30.294L223.927 30.574L223.894 30.906V39.339C224.754 38.864 225.587 38.3432 226.391 37.779C232.89 33.127 236.781 25.868 238.107 17.33ZM227.034 194.587C226.037 193.878 224.993 193.238 223.909 192.671V200.96L223.924 201.092L223.941 201.29L223.953 201.468L223.968 201.799L223.973 202.06V202.35L223.966 202.669L223.942 203.156L223.92 203.452L223.873 203.922L223.831 204.252L223.781 204.592L223.72 204.942L223.649 205.302L223.566 205.672L223.472 206.048L223.364 206.431L223.305 206.625L223.177 207.017L223.034 207.413C222.984 207.545 222.931 207.679 222.876 207.813L222.702 208.214C222.641 208.349 222.577 208.484 222.51 208.618L222.301 209.023C219.865 213.543 213.984 218.03 199.989 216.698V231.812L200.213 231.824L200.857 231.847L201.648 231.861L202.128 231.864L202.948 231.859L203.556 231.848L204.211 231.829L205.023 231.797L205.889 231.752L206.495 231.713L207.444 231.643L208.101 231.585L208.777 231.519L209.47 231.444L210.18 231.359L210.904 231.265L211.643 231.159L212.393 231.043C212.52 231.023 212.646 231.002 212.773 230.98L213.541 230.846L214.318 230.699L214.71 230.621L215.5 230.455L215.897 230.367L216.697 230.179C225.253 228.105 234.662 223.542 238.507 213.612C236.985 205.679 233.153 198.97 227.034 194.587Z" fill="#FFAB00"/>
</svg>
