<svg width="481" height="481" viewBox="0 0 481 481" fill="none" xmlns="http://www.w3.org/2000/svg">
<g clip-path="url(#clip0_632_170)">
<path d="M240.52 96.2002C176.387 96.2002 136.303 128.267 120.27 192.4C144.32 160.334 172.378 148.309 204.445 156.325C222.743 160.895 235.81 174.162 250.3 188.873C273.889 212.803 301.166 240.5 360.77 240.5C424.903 240.5 464.987 208.434 481.02 144.3C456.97 176.367 428.912 188.392 396.845 180.375C378.547 175.806 365.48 162.538 350.99 147.828C327.421 123.898 300.144 96.2002 240.52 96.2002ZM120.27 240.5C56.1367 240.5 16.0534 272.567 0.0200806 336.7C24.0701 304.634 52.1284 292.609 84.1951 300.625C102.493 305.195 115.56 318.462 130.05 333.173C153.639 357.103 180.916 384.8 240.52 384.8C304.653 384.8 344.737 352.734 360.77 288.6C336.72 320.667 308.662 332.692 276.595 324.675C258.297 320.106 245.23 306.838 230.74 292.128C207.171 268.198 179.894 240.5 120.27 240.5V240.5Z" fill="#D1D5DB"/>
</g>
<defs>
<clipPath id="clip0_632_170">
<rect width="481" height="481" fill="white"/>
</clipPath>
</defs>
</svg>
