<svg width="256" height="256" viewBox="0 0 256 256" fill="none" xmlns="http://www.w3.org/2000/svg">
<path d="M96.4475 7.38202C128.714 -0.892982 164.376 3.92902 192.833 21.492C228.673 42.925 252.071 83.468 252.666 125.202C253.976 167.352 232.007 209.146 196.703 232.067C157.41 258.5 103.055 259.513 62.9285 234.389C22.0285 209.979 -1.84553 160.744 4.28747 113.473C9.22747 63.523 47.8075 19.467 96.4475 7.38202Z" fill="#D1D5DB"/>
<path d="M91.5051 27.803C152.469 3.39298 227.245 48.461 233.555 113.831C243.379 172.651 194.56 232.424 134.965 234.151C78.2881 239.807 23.5161 191.761 21.9091 134.847C17.6821 88.767 48.0451 43.044 91.5051 27.803Z" fill="#171717"/>
<path d="M97.6368 121.69C124.964 99.364 151.695 76.264 179.617 54.593C164.971 77.098 149.909 99.304 135.263 121.808C122.701 121.868 110.14 121.869 97.6368 121.69ZM120.737 134.132C133.358 134.132 145.92 134.132 158.482 134.311C130.977 156.517 104.365 179.795 76.3828 201.407C91.0288 178.902 106.091 156.637 120.737 134.132Z" fill="#D1D5DB"/>
</svg>
