<svg width="200" height="200" viewBox="0 0 200 200" fill="none" xmlns="http://www.w3.org/2000/svg">
<path fill-rule="evenodd" clip-rule="evenodd" d="M157.562 151.313L79.6187 174.55C79.0757 174.715 78.4992 174.736 77.9456 174.611C77.392 174.486 76.8803 174.22 76.4603 173.839C76.0403 173.457 75.7264 172.973 75.5493 172.434C75.3722 171.895 75.338 171.319 75.45 170.763L103.3 36.3188C103.418 35.7696 103.705 35.2712 104.12 34.8934C104.536 34.5157 105.06 34.2777 105.618 34.2129C106.175 34.148 106.74 34.2597 107.231 34.532C107.722 34.8044 108.116 35.2238 108.356 35.7313L159.912 146.113C160.144 146.603 160.266 147.138 160.27 147.681C160.274 148.223 160.161 148.76 159.937 149.255C159.714 149.749 159.386 150.189 158.976 150.544C158.566 150.9 158.084 151.162 157.562 151.313V151.313ZM170.931 145.825L111.25 18.0188C110.516 16.4424 109.367 15.0957 107.926 14.1234C106.484 13.1511 104.805 12.5899 103.069 12.5001C101.332 12.3806 99.5964 12.7428 98.0525 13.5467C96.5086 14.3507 95.2166 15.5651 94.3187 17.0563L29.6 122.8C28.6127 124.401 28.0993 126.248 28.1192 128.129C28.1391 130.009 28.6916 131.846 29.7125 133.425L61.3625 182.856C62.5551 184.704 64.314 186.115 66.3759 186.879C68.4378 187.643 70.6916 187.718 72.8 187.094L164.675 159.7C166.063 159.296 167.346 158.596 168.437 157.648C169.528 156.7 170.401 155.527 170.995 154.209C171.589 152.892 171.89 151.461 171.878 150.016C171.866 148.571 171.541 147.145 170.925 145.838L170.931 145.825Z" fill="#0C344B"/>
</svg>
