<svg width="113" height="113" viewBox="0 0 113 113" fill="none" xmlns="http://www.w3.org/2000/svg">
<g clip-path="url(#clip0_710_176)">
<path d="M63.9674 0.00015712V14.935H35.4208C30.0816 15.1302 25.0104 17.3231 21.2111 21.0794C17.425 24.8171 15.1844 29.8429 14.9348 35.1573V88.4838H1.14921e-05V35.355C-0.00374047 30.7129 0.911257 26.1159 2.69227 21.8291C4.47328 17.5422 7.0851 13.6502 10.3772 10.3773C13.5903 7.13878 17.4026 4.55617 21.6018 2.77336C25.9534 0.929368 30.6335 -0.0140051 35.3596 0.00015712H63.9674ZM88.4837 0.00015712V14.8691H73.5442V0.00015712H88.4837ZM113 0.00015712V14.8691H98.0652V0.00015712H113ZM113 24.5164V39.4513H98.0652V24.5164H113ZM113 49.0327V63.9676H98.0652V49.0327H113ZM113 73.549V88.4838H98.0652V73.5443L113 73.549ZM113 98.0653V113H98.0652V98.0653H113ZM88.4837 98.0653V113H73.5442V98.0653H88.4837ZM63.9674 98.0653V113H49.0326V98.0653H63.9674ZM39.4511 98.0653V113H24.5163V98.0653H39.4511ZM14.8689 98.0653V113H1.14921e-05V98.0653H14.8689Z" fill="#34F9C3"/>
</g>
<defs>
<clipPath id="clip0_710_176">
<rect width="113" height="113" fill="white"/>
</clipPath>
</defs>
</svg>
